NunitoSans-M0ExpandedExtraLight.ufo
<glyph name="numbersign" format="2">
  <advance width="722"/>
  <unicode hex="0023"/>
  <outline>
    <contour>
      <point x="115" y="0" type="line"/>
      <point x="164" y="0" type="line"/>
      <point x="210" y="190" type="line"/>
      <point x="429" y="190" type="line"/>
      <point x="383" y="0" type="line"/>
      <point x="432" y="0" type="line"/>
      <point x="478" y="190" type="line"/>
      <point x="670" y="190" type="line"/>
      <point x="670" y="232" type="line"/>
      <point x="488" y="232" type="line"/>
      <point x="549" y="481" type="line"/>
      <point x="694" y="481" type="line"/>
      <point x="694" y="523" type="line"/>
      <point x="559" y="523" type="line"/>
      <point x="603" y="705" type="line"/>
      <point x="554" y="705" type="line"/>
      <point x="510" y="523" type="line"/>
      <point x="291" y="523" type="line"/>
      <point x="335" y="705" type="line"/>
      <point x="286" y="705" type="line"/>
      <point x="242" y="523" type="line"/>
      <point x="52" y="523" type="line"/>
      <point x="52" y="481" type="line"/>
      <point x="232" y="481" type="line"/>
      <point x="171" y="232" type="line"/>
      <point x="28" y="232" type="line"/>
      <point x="28" y="190" type="line"/>
      <point x="161" y="190" type="line"/>
    </contour>
    <contour>
      <point x="220" y="232" type="line"/>
      <point x="281" y="481" type="line"/>
      <point x="500" y="481" type="line"/>
      <point x="439" y="232" type="line"/>
    </contour>
  </outline>
</glyph>
<glyph name="ampersand" format="2">
  <advance width="817"/>
  <unicode hex="0026"/>
  <outline>
    <contour>
      <point x="324" y="-8" type="curve" smooth="yes"/>
      <point x="449" y="-8"/>
      <point x="548" y="34"/>
      <point x="616" y="112" type="curve"/>
      <point x="603" y="112" type="line"/>
      <point x="722" y="0" type="line"/>
      <point x="782" y="0" type="line"/>
      <point x="629" y="143" type="line"/>
      <point x="630" y="129" type="line"/>
      <point x="682" y="198"/>
      <point x="713" y="292"/>
      <point x="719" y="405" type="curve"/>
      <point x="673" y="405" type="line"/>
      <point x="669" y="302"/>
      <point x="644" y="218"/>
      <point x="599" y="157" type="curve"/>
      <point x="614" y="157" type="line"/>
      <point x="358" y="395" type="line"/>
      <point x="355" y="385" type="line"/>
      <point x="474" y="442"/>
      <point x="534" y="502"/>
      <point x="534" y="578" type="curve" smooth="yes"/>
      <point x="534" y="659"/>
      <point x="467" y="713"/>
      <point x="366" y="713" type="curve" smooth="yes"/>
      <point x="262" y="713"/>
      <point x="192" y="656"/>
      <point x="192" y="573" type="curve" smooth="yes"/>
      <point x="192" y="501"/>
      <point x="245" y="447"/>
      <point x="304" y="392" type="curve"/>
      <point x="309" y="401" type="line"/>
      <point x="271" y="381" type="line" smooth="yes"/>
      <point x="176" y="331"/>
      <point x="79" y="274"/>
      <point x="79" y="163" type="curve" smooth="yes"/>
      <point x="79" y="56"/>
      <point x="171" y="-8"/>
    </contour>
    <contour>
      <point x="323" y="32" type="curve" smooth="yes"/>
      <point x="194" y="32"/>
      <point x="125" y="79"/>
      <point x="125" y="163" type="curve" smooth="yes"/>
      <point x="125" y="260"/>
      <point x="211" y="308"/>
      <point x="300" y="355" type="curve" smooth="yes"/>
      <point x="340" y="376" type="line"/>
      <point x="321" y="376" type="line"/>
      <point x="585" y="128" type="line"/>
      <point x="585" y="139" type="line"/>
      <point x="526" y="69"/>
      <point x="437" y="32"/>
    </contour>
    <contour>
      <point x="366" y="675" type="curve" smooth="yes"/>
      <point x="442" y="675"/>
      <point x="490" y="635.196"/>
      <point x="490" y="576" type="curve" smooth="yes"/>
      <point x="490" y="496"/>
      <point x="401" y="449"/>
      <point x="332" y="413" type="curve"/>
      <point x="340" y="413" type="line"/>
      <point x="275" y="473"/>
      <point x="236" y="514"/>
      <point x="236" y="569" type="curve" smooth="yes"/>
      <point x="236" y="633.212"/>
      <point x="288" y="675"/>
    </contour>
  </outline>
</glyph>
<glyph name="quotesingle" format="2">
  <advance width="242"/>
  <unicode hex="0027"/>
  <outline>
    <contour>
      <point x="106" y="439" type="line"/>
      <point x="136" y="439" type="line"/>
      <point x="150" y="705" type="line"/>
      <point x="92" y="705" type="line"/>
    </contour>
  </outline>
</glyph>
<glyph name="asterisk" format="2">
  <advance width="489"/>
  <unicode hex="002A"/>
  <outline>
    <contour>
      <point x="160" y="340" type="line"/>
      <point x="248" y="498" type="line"/>
      <point x="241" y="498" type="line"/>
      <point x="328" y="341" type="line"/>
      <point x="364" y="361" type="line"/>
      <point x="269" y="517" type="line"/>
      <point x="263" y="510" type="line"/>
      <point x="448" y="505" type="line"/>
      <point x="448" y="546" type="line"/>
      <point x="263" y="542" type="line"/>
      <point x="269" y="536" type="line"/>
      <point x="364" y="691" type="line"/>
      <point x="328" y="712" type="line"/>
      <point x="241" y="554" type="line"/>
      <point x="248" y="554" type="line"/>
      <point x="160" y="712" type="line"/>
      <point x="124" y="691" type="line"/>
      <point x="220" y="536" type="line"/>
      <point x="225" y="542" type="line"/>
      <point x="41" y="546" type="line"/>
      <point x="41" y="505" type="line"/>
      <point x="225" y="510" type="line"/>
      <point x="220" y="517" type="line"/>
      <point x="124" y="361" type="line"/>
    </contour>
  </outline>
</glyph>
<glyph name="comma" format="2">
  <advance width="252"/>
  <unicode hex="002C"/>
  <outline>
    <contour>
      <point x="113" y="-100" type="line"/>
      <point x="147" y="-70"/>
      <point x="164" y="-35"/>
      <point x="164" y="17" type="curve" smooth="yes"/>
      <point x="164" y="74" type="line"/>
      <point x="88" y="74" type="line"/>
      <point x="88" y="0" type="line"/>
      <point x="135" y="0" type="line"/>
      <point x="120" y="7" type="line"/>
      <point x="120" y="-29"/>
      <point x="110" y="-50"/>
      <point x="85" y="-77" type="curve"/>
    </contour>
  </outline>
</glyph>
<glyph name="zero" format="2">
  <advance width="748"/>
  <unicode hex="0030"/>
  <outline>
    <contour>
      <point x="374" y="-8" type="curve" smooth="yes"/>
      <point x="566" y="-8"/>
      <point x="670" y="119"/>
      <point x="670" y="353" type="curve" smooth="yes"/>
      <point x="670" y="586"/>
      <point x="566" y="713"/>
      <point x="374" y="713" type="curve" smooth="yes"/>
      <point x="182" y="713"/>
      <point x="78" y="586"/>
      <point x="78" y="352" type="curve" smooth="yes"/>
      <point x="78" y="119"/>
      <point x="182" y="-8"/>
    </contour>
    <contour>
      <point x="374" y="35" type="curve" smooth="yes"/>
      <point x="209" y="35"/>
      <point x="127" y="140"/>
      <point x="127" y="352" type="curve" smooth="yes"/>
      <point x="127" y="564"/>
      <point x="209" y="670"/>
      <point x="374" y="670" type="curve" smooth="yes"/>
      <point x="539" y="670"/>
      <point x="621" y="565"/>
      <point x="621" y="353" type="curve" smooth="yes"/>
      <point x="621" y="141"/>
      <point x="539" y="35"/>
    </contour>
  </outline>
</glyph>
<glyph name="two" format="2">
  <advance width="748"/>
  <unicode hex="0032"/>
  <outline>
    <contour>
      <point x="123" y="0" type="line"/>
      <point x="661" y="0" type="line"/>
      <point x="661" y="42" type="line"/>
      <point x="180" y="42" type="line"/>
      <point x="180" y="31" type="line"/>
      <point x="483" y="281" type="line" smooth="yes"/>
      <point x="533" y="322"/>
      <point x="624" y="399"/>
      <point x="624" y="523" type="curve" smooth="yes"/>
      <point x="624" y="647"/>
      <point x="533" y="713"/>
      <point x="377" y="713" type="curve" smooth="yes"/>
      <point x="261" y="713"/>
      <point x="163" y="677"/>
      <point x="96" y="612" type="curve"/>
      <point x="121" y="573" type="line"/>
      <point x="192" y="638"/>
      <point x="270" y="669"/>
      <point x="374" y="669" type="curve" smooth="yes"/>
      <point x="503" y="669"/>
      <point x="575" y="622"/>
      <point x="575" y="519" type="curve" smooth="yes"/>
      <point x="575" y="411"/>
      <point x="496" y="347"/>
      <point x="458" y="315" type="curve" smooth="yes"/>
      <point x="123" y="35" type="line"/>
    </contour>
  </outline>
</glyph>
<glyph name="three" format="2">
  <advance width="748"/>
  <unicode hex="0033"/>
  <outline>
    <contour>
      <point x="373" y="-8" type="curve" smooth="yes"/>
      <point x="540" y="-8"/>
      <point x="645" y="63"/>
      <point x="645" y="188" type="curve" smooth="yes"/>
      <point x="645" y="287"/>
      <point x="577" y="350"/>
      <point x="451" y="368" type="curve"/>
      <point x="451" y="358" type="line"/>
      <point x="557" y="378"/>
      <point x="621" y="445"/>
      <point x="621" y="537" type="curve" smooth="yes"/>
      <point x="621" y="649"/>
      <point x="527" y="713"/>
      <point x="374" y="713" type="curve" smooth="yes"/>
      <point x="260" y="713"/>
      <point x="162" y="677"/>
      <point x="96" y="612" type="curve"/>
      <point x="121" y="575" type="line"/>
      <point x="192" y="640"/>
      <point x="270" y="669"/>
      <point x="373" y="669" type="curve" smooth="yes"/>
      <point x="500" y="669"/>
      <point x="572" y="622"/>
      <point x="572" y="533" type="curve" smooth="yes"/>
      <point x="572" y="439"/>
      <point x="492" y="380"/>
      <point x="357" y="380" type="curve" smooth="yes"/>
      <point x="240" y="380" type="line"/>
      <point x="240" y="338" type="line"/>
      <point x="359" y="338" type="line" smooth="yes"/>
      <point x="517" y="338"/>
      <point x="596" y="288"/>
      <point x="596" y="188" type="curve" smooth="yes"/>
      <point x="596" y="89"/>
      <point x="520" y="36"/>
      <point x="373" y="36" type="curve" smooth="yes"/>
      <point x="268" y="36"/>
      <point x="186" y="63"/>
      <point x="105" y="125" type="curve"/>
      <point x="81" y="86" type="line"/>
      <point x="153" y="26"/>
      <point x="257" y="-8"/>
    </contour>
  </outline>
</glyph>
<glyph name="six" format="2">
  <advance width="748"/>
  <unicode hex="0036"/>
  <outline>
    <contour>
      <point x="403" y="-8" type="curve" smooth="yes"/>
      <point x="559" y="-8"/>
      <point x="671" y="85"/>
      <point x="671" y="215" type="curve" smooth="yes"/>
      <point x="671" y="344"/>
      <point x="561" y="435"/>
      <point x="401" y="435" type="curve" smooth="yes"/>
      <point x="256" y="435"/>
      <point x="146" y="357"/>
      <point x="134" y="233" type="curve"/>
      <point x="141" y="233" type="line"/>
      <point x="141" y="341" type="line" smooth="yes"/>
      <point x="141" y="558"/>
      <point x="245" y="669"/>
      <point x="426" y="669" type="curve" smooth="yes"/>
      <point x="505" y="669"/>
      <point x="583" y="641"/>
      <point x="644" y="585" type="curve"/>
      <point x="667" y="624" type="line"/>
      <point x="614" y="677"/>
      <point x="514" y="713"/>
      <point x="427" y="713" type="curve" smooth="yes"/>
      <point x="217" y="713"/>
      <point x="93" y="578"/>
      <point x="93" y="331" type="curve" smooth="yes"/>
      <point x="93" y="117"/>
      <point x="204" y="-8"/>
    </contour>
    <contour>
      <point x="398" y="36" type="curve" smooth="yes"/>
      <point x="265" y="36"/>
      <point x="173" y="109"/>
      <point x="173" y="213" type="curve" smooth="yes"/>
      <point x="173" y="318"/>
      <point x="265" y="391"/>
      <point x="398" y="391" type="curve" smooth="yes"/>
      <point x="530" y="391"/>
      <point x="622" y="318"/>
      <point x="622" y="213" type="curve" smooth="yes"/>
      <point x="622" y="109"/>
      <point x="530" y="36"/>
    </contour>
  </outline>
</glyph>
<glyph name="less" format="2">
  <advance width="748"/>
  <unicode hex="003C"/>
  <outline>
    <contour>
      <point x="639" y="33" type="line"/>
      <point x="639" y="81" type="line"/>
      <point x="137" y="299" type="line"/>
      <point x="137" y="275" type="line"/>
      <point x="639" y="493" type="line"/>
      <point x="639" y="541" type="line"/>
      <point x="103" y="307" type="line"/>
      <point x="103" y="267" type="line"/>
    </contour>
  </outline>
</glyph>
<glyph name="equal" format="2">
  <advance width="748"/>
  <unicode hex="003D"/>
  <outline>
    <contour>
      <point x="103" y="367" type="line"/>
      <point x="645" y="367" type="line"/>
      <point x="645" y="407" type="line"/>
      <point x="103" y="407" type="line"/>
    </contour>
    <contour>
      <point x="103" y="167" type="line"/>
      <point x="645" y="167" type="line"/>
      <point x="645" y="207" type="line"/>
      <point x="103" y="207" type="line"/>
    </contour>
  </outline>
</glyph>
<glyph name="greater" format="2">
  <advance width="748"/>
  <unicode hex="003E"/>
  <outline>
    <contour>
      <point x="103" y="33" type="line"/>
      <point x="639" y="267" type="line"/>
      <point x="639" y="307" type="line"/>
      <point x="103" y="541" type="line"/>
      <point x="103" y="493" type="line"/>
      <point x="605" y="275" type="line"/>
      <point x="605" y="299" type="line"/>
      <point x="103" y="81" type="line"/>
    </contour>
  </outline>
</glyph>
<glyph name="question" format="2">
  <advance width="526"/>
  <unicode hex="003F"/>
  <outline>
    <contour>
      <point x="224" y="165" type="line"/>
      <point x="254" y="165" type="line"/>
      <point x="256" y="187" type="line" smooth="yes"/>
      <point x="261" y="245"/>
      <point x="288" y="293"/>
      <point x="375" y="371" type="curve" smooth="yes"/>
      <point x="461" y="449"/>
      <point x="489" y="498"/>
      <point x="489" y="556" type="curve" smooth="yes"/>
      <point x="489" y="656"/>
      <point x="404" y="713"/>
      <point x="273" y="713" type="curve" smooth="yes"/>
      <point x="165" y="713"/>
      <point x="61" y="674"/>
      <point x="-1" y="612" type="curve"/>
      <point x="24" y="573" type="line"/>
      <point x="97" y="638"/>
      <point x="177" y="669"/>
      <point x="272" y="669" type="curve" smooth="yes"/>
      <point x="376" y="669"/>
      <point x="440" y="632"/>
      <point x="440" y="555" type="curve" smooth="yes"/>
      <point x="440" y="506"/>
      <point x="414" y="461"/>
      <point x="341" y="397" type="curve" smooth="yes"/>
      <point x="244" y="313"/>
      <point x="224" y="250"/>
      <point x="224" y="185" type="curve" smooth="yes"/>
    </contour>
    <contour>
      <point x="201" y="0" type="line"/>
      <point x="277" y="0" type="line"/>
      <point x="277" y="74" type="line"/>
      <point x="201" y="74" type="line"/>
    </contour>
  </outline>
</glyph>
<glyph name="B" format="2">
  <advance width="823"/>
  <unicode hex="0042"/>
  <anchor x="416" y="0" name="bottom"/>
  <anchor x="416" y="705" name="top"/>
  <outline>
    <contour>
      <point x="118" y="0" type="line"/>
      <point x="468" y="0" type="line" smooth="yes"/>
      <point x="647" y="0"/>
      <point x="737" y="67"/>
      <point x="737" y="188" type="curve" smooth="yes"/>
      <point x="737" y="298"/>
      <point x="663" y="356"/>
      <point x="531" y="365" type="curve"/>
      <point x="531" y="351" type="line"/>
      <point x="653" y="369"/>
      <point x="717" y="427"/>
      <point x="717" y="524" type="curve" smooth="yes"/>
      <point x="717" y="640"/>
      <point x="627" y="705"/>
      <point x="452" y="705" type="curve" smooth="yes"/>
      <point x="118" y="705" type="line"/>
    </contour>
    <contour>
      <point x="164" y="42" type="line"/>
      <point x="164" y="336" type="line"/>
      <point x="470" y="336" type="line" smooth="yes"/>
      <point x="535" y="336"/>
      <point x="688" y="336"/>
      <point x="688" y="190" type="curve" smooth="yes"/>
      <point x="688" y="42"/>
      <point x="530" y="42"/>
      <point x="467" y="42" type="curve" smooth="yes"/>
    </contour>
    <contour>
      <point x="164" y="378" type="line"/>
      <point x="164" y="663" type="line"/>
      <point x="450" y="663" type="line" smooth="yes"/>
      <point x="597" y="663"/>
      <point x="668" y="616"/>
      <point x="668" y="520" type="curve" smooth="yes"/>
      <point x="668" y="424"/>
      <point x="598" y="378"/>
      <point x="452" y="378" type="curve" smooth="yes"/>
    </contour>
  </outline>
</glyph>
<glyph name="F" format="2">
  <advance width="660"/>
  <unicode hex="0046"/>
  <anchor x="362" y="0" name="bottom"/>
  <anchor x="362" y="705" name="top"/>
  <outline>
    <contour>
      <point x="118" y="0" type="line"/>
      <point x="164" y="0" type="line"/>
      <point x="164" y="337" type="line"/>
      <point x="606" y="337" type="line"/>
      <point x="606" y="379" type="line"/>
      <point x="164" y="379" type="line"/>
      <point x="164" y="663" type="line"/>
      <point x="631" y="663" type="line"/>
      <point x="631" y="705" type="line"/>
      <point x="118" y="705" type="line"/>
    </contour>
  </outline>
</glyph>
<glyph name="I" format="2">
  <advance width="282"/>
  <unicode hex="0049"/>
  <anchor x="141" y="0" name="bottom"/>
  <anchor x="164" y="0" name="ogonek"/>
  <anchor x="141" y="705" name="top"/>
  <anchor x="31" y="705" name="topleft"/>
  <outline>
    <contour>
      <point x="118" y="0" type="line"/>
      <point x="164" y="0" type="line"/>
      <point x="164" y="705" type="line"/>
      <point x="118" y="705" type="line"/>
    </contour>
  </outline>
</glyph>
<glyph name="L" format="2">
  <advance width="648"/>
  <unicode hex="004C"/>
  <anchor x="377" y="0" name="bottom"/>
  <anchor x="195" y="387" name="center"/>
  <anchor x="473" y="386" name="dot"/>
  <anchor x="141" y="705" name="top"/>
  <anchor x="317" y="705" name="topright"/>
  <outline>
    <contour>
      <point x="118" y="0" type="line"/>
      <point x="636" y="0" type="line"/>
      <point x="636" y="42" type="line"/>
      <point x="164" y="42" type="line"/>
      <point x="164" y="705" type="line"/>
      <point x="118" y="705" type="line"/>
    </contour>
  </outline>
</glyph>
<glyph name="R" format="2">
  <advance width="807"/>
  <unicode hex="0052"/>
  <anchor x="404" y="0" name="bottom"/>
  <anchor x="404" y="705" name="top"/>
  <outline>
    <contour>
      <point x="118" y="0" type="line"/>
      <point x="164" y="0" type="line"/>
      <point x="164" y="310" type="line"/>
      <point x="380" y="310" type="line" smooth="yes"/>
      <point x="480" y="310"/>
      <point x="516" y="293"/>
      <point x="562" y="226" type="curve" smooth="yes"/>
      <point x="715" y="0" type="line"/>
      <point x="769" y="0" type="line"/>
      <point x="604" y="241" type="line" smooth="yes"/>
      <point x="564" y="300"/>
      <point x="518" y="326"/>
      <point x="454" y="326" type="curve" smooth="yes"/>
      <point x="446" y="326" type="line"/>
      <point x="432" y="313" type="line"/>
      <point x="616" y="313"/>
      <point x="717" y="384"/>
      <point x="717" y="513" type="curve" smooth="yes"/>
      <point x="717" y="638"/>
      <point x="622" y="705"/>
      <point x="444" y="705" type="curve" smooth="yes"/>
      <point x="118" y="705" type="line"/>
    </contour>
    <contour>
      <point x="164" y="352" type="line"/>
      <point x="164" y="663" type="line"/>
      <point x="441" y="663" type="line" smooth="yes"/>
      <point x="596" y="663"/>
      <point x="668" y="613"/>
      <point x="668" y="508" type="curve" smooth="yes"/>
      <point x="668" y="402"/>
      <point x="596" y="352"/>
      <point x="441" y="352" type="curve" smooth="yes"/>
    </contour>
  </outline>
</glyph>
<glyph name="S" format="2">
  <advance width="740"/>
  <unicode hex="0053"/>
  <anchor x="383" y="0" name="bottom"/>
  <anchor x="374" y="705" name="top"/>
  <outline>
    <contour>
      <point x="380" y="-8" type="curve" smooth="yes"/>
      <point x="572" y="-8"/>
      <point x="686" y="61"/>
      <point x="686" y="177" type="curve" smooth="yes"/>
      <point x="686" y="287"/>
      <point x="607" y="333"/>
      <point x="448" y="355" type="curve" smooth="yes"/>
      <point x="303" y="375" type="line" smooth="yes"/>
      <point x="180" y="392"/>
      <point x="130" y="432"/>
      <point x="130" y="515" type="curve" smooth="yes"/>
      <point x="130" y="611"/>
      <point x="223" y="669"/>
      <point x="377" y="669" type="curve" smooth="yes"/>
      <point x="486" y="669"/>
      <point x="564" y="641"/>
      <point x="642" y="575" type="curve"/>
      <point x="667" y="614" type="line"/>
      <point x="596" y="679"/>
      <point x="496" y="713"/>
      <point x="376" y="713" type="curve" smooth="yes"/>
      <point x="196" y="713"/>
      <point x="82" y="635"/>
      <point x="82" y="513" type="curve" smooth="yes"/>
      <point x="82" y="408"/>
      <point x="150" y="351"/>
      <point x="302" y="330" type="curve" smooth="yes"/>
      <point x="449" y="310" type="line" smooth="yes"/>
      <point x="570" y="293"/>
      <point x="638" y="266"/>
      <point x="638" y="174" type="curve" smooth="yes"/>
      <point x="638" y="85"/>
      <point x="546" y="36"/>
      <point x="379" y="36" type="curve" smooth="yes"/>
      <point x="259" y="36"/>
      <point x="177" y="61"/>
      <point x="87" y="125" type="curve"/>
      <point x="62" y="86" type="line"/>
      <point x="142" y="24"/>
      <point x="250" y="-8"/>
    </contour>
  </outline>
</glyph>
<glyph name="U" format="2">
  <advance width="891"/>
  <unicode hex="0055"/>
  <anchor x="445" y="0" name="bottom"/>
  <anchor x="516" y="0" name="ogonek"/>
  <anchor x="445" y="705" name="top"/>
  <anchor x="732" y="705" name="topright"/>
  <outline>
    <contour>
      <point x="445" y="-8" type="curve" smooth="yes"/>
      <point x="667" y="-8"/>
      <point x="779" y="85"/>
      <point x="779" y="268" type="curve" smooth="yes"/>
      <point x="779" y="705" type="line"/>
      <point x="733" y="705" type="line"/>
      <point x="733" y="274" type="line" smooth="yes"/>
      <point x="733" y="114"/>
      <point x="639" y="36"/>
      <point x="445" y="36" type="curve" smooth="yes"/>
      <point x="252" y="36"/>
      <point x="157" y="114"/>
      <point x="157" y="274" type="curve" smooth="yes"/>
      <point x="157" y="705" type="line"/>
      <point x="111" y="705" type="line"/>
      <point x="111" y="268" type="line" smooth="yes"/>
      <point x="111" y="85"/>
      <point x="223" y="-8"/>
    </contour>
  </outline>
</glyph>
<glyph name="V" format="2">
  <advance width="822"/>
  <unicode hex="0056"/>
  <anchor x="411" y="0" name="bottom"/>
  <anchor x="411" y="705" name="top"/>
  <outline>
    <contour>
      <point x="385" y="0" type="line"/>
      <point x="437" y="0" type="line"/>
      <point x="815" y="705" type="line"/>
      <point x="765" y="705" type="line"/>
      <point x="401" y="27" type="line"/>
      <point x="423" y="27" type="line"/>
      <point x="59" y="705" type="line"/>
      <point x="7" y="705" type="line"/>
    </contour>
  </outline>
</glyph>
<glyph name="W" format="2">
  <advance width="1354"/>
  <unicode hex="0057"/>
  <anchor x="679" y="0" name="bottom"/>
  <anchor x="677" y="705" name="top"/>
  <outline>
    <contour>
      <point x="349" y="0" type="line"/>
      <point x="396" y="0" type="line"/>
      <point x="686" y="670" type="line"/>
      <point x="666" y="670" type="line"/>
      <point x="956" y="0" type="line"/>
      <point x="1005" y="0" type="line"/>
      <point x="1309" y="705" type="line"/>
      <point x="1259" y="705" type="line"/>
      <point x="965" y="23" type="line"/>
      <point x="993" y="23" type="line"/>
      <point x="698" y="705" type="line"/>
      <point x="653" y="705" type="line"/>
      <point x="358" y="23" type="line"/>
      <point x="391" y="23" type="line"/>
      <point x="97" y="705" type="line"/>
      <point x="45" y="705" type="line"/>
    </contour>
  </outline>
</glyph>
<glyph name="Z" format="2">
  <advance width="708"/>
  <unicode hex="005A"/>
  <anchor x="371" y="0" name="bottom"/>
  <anchor x="371" y="705" name="top"/>
  <outline>
    <contour>
      <point x="57" y="0" type="line"/>
      <point x="683" y="0" type="line"/>
      <point x="683" y="42" type="line"/>
      <point x="102" y="42" type="line"/>
      <point x="102" y="19" type="line"/>
      <point x="667" y="671" type="line"/>
      <point x="667" y="705" type="line"/>
      <point x="57" y="705" type="line"/>
      <point x="57" y="663" type="line"/>
      <point x="623" y="663" type="line"/>
      <point x="623" y="686" type="line"/>
      <point x="57" y="34" type="line"/>
    </contour>
  </outline>
</glyph>
<glyph name="backslash" format="2">
  <advance width="308"/>
  <unicode hex="005C"/>
  <outline>
    <contour>
      <point x="291" y="-55" type="line"/>
      <point x="331" y="-39" type="line"/>
      <point x="17" y="744" type="line"/>
      <point x="-23" y="728" type="line"/>
    </contour>
  </outline>
</glyph>
<glyph name="bracketright" format="2">
  <advance width="338"/>
  <unicode hex="005D"/>
  <outline>
    <contour>
      <point x="1" y="-180" type="line"/>
      <point x="202" y="-180" type="line"/>
      <point x="202" y="705" type="line"/>
      <point x="1" y="705" type="line"/>
      <point x="1" y="665" type="line"/>
      <point x="156" y="665" type="line"/>
      <point x="156" y="-140" type="line"/>
      <point x="1" y="-140" type="line"/>
    </contour>
  </outline>
</glyph>
<glyph name="asciicircum" format="2">
  <advance width="748"/>
  <unicode hex="005E"/>
  <outline>
    <contour>
      <point x="100" y="151" type="line"/>
      <point x="147" y="151" type="line"/>
      <point x="386" y="595" type="line"/>
      <point x="362" y="595" type="line"/>
      <point x="601" y="151" type="line"/>
      <point x="648" y="151" type="line"/>
      <point x="394" y="627" type="line"/>
      <point x="354" y="627" type="line"/>
    </contour>
  </outline>
</glyph>
<glyph name="b" format="2">
  <advance width="706"/>
  <unicode hex="0062"/>
  <anchor x="387" y="0" name="bottom"/>
  <anchor x="373" y="705" name="top"/>
  <outline>
    <contour>
      <point x="374" y="-8" type="curve" smooth="yes"/>
      <point x="532" y="-8"/>
      <point x="640" y="90"/>
      <point x="640" y="242" type="curve" smooth="yes"/>
      <point x="640" y="394"/>
      <point x="532" y="492"/>
      <point x="374" y="492" type="curve" smooth="yes"/>
      <point x="259" y="492"/>
      <point x="171" y="438"/>
      <point x="141" y="355" type="curve"/>
      <point x="153" y="355" type="line"/>
      <point x="153" y="705" type="line"/>
      <point x="107" y="705" type="line"/>
      <point x="107" y="0" type="line"/>
      <point x="153" y="0" type="line"/>
      <point x="153" y="129" type="line"/>
      <point x="141" y="129" type="line"/>
      <point x="171" y="46"/>
      <point x="259" y="-8"/>
    </contour>
    <contour>
      <point x="372" y="34" type="curve" smooth="yes"/>
      <point x="236" y="34"/>
      <point x="152" y="114"/>
      <point x="152" y="242" type="curve" smooth="yes"/>
      <point x="152" y="370"/>
      <point x="236" y="450"/>
      <point x="372" y="450" type="curve" smooth="yes"/>
      <point x="508" y="450"/>
      <point x="592" y="370"/>
      <point x="592" y="242" type="curve" smooth="yes"/>
      <point x="592" y="114"/>
      <point x="508" y="34"/>
    </contour>
  </outline>
</glyph>
<glyph name="d" format="2">
  <advance width="706"/>
  <unicode hex="0064"/>
  <anchor x="355" y="0" name="bottom"/>
  <anchor x="356" y="245" name="center"/>
  <anchor x="512" y="580" name="stroke"/>
  <anchor x="353" y="484" name="top"/>
  <anchor x="663" y="705" name="topright"/>
  <outline>
    <contour>
      <point x="335" y="-8" type="curve" smooth="yes"/>
      <point x="449" y="-8"/>
      <point x="539" y="44"/>
      <point x="566" y="126" type="curve"/>
      <point x="553" y="126" type="line"/>
      <point x="553" y="0" type="line"/>
      <point x="599" y="0" type="line"/>
      <point x="599" y="705" type="line"/>
      <point x="553" y="705" type="line"/>
      <point x="553" y="358" type="line"/>
      <point x="566" y="358" type="line"/>
      <point x="539" y="440"/>
      <point x="449" y="492"/>
      <point x="335" y="492" type="curve" smooth="yes"/>
      <point x="172" y="492"/>
      <point x="66" y="394"/>
      <point x="66" y="242" type="curve" smooth="yes"/>
      <point x="66" y="90"/>
      <point x="172" y="-8"/>
    </contour>
    <contour>
      <point x="334" y="34" type="curve" smooth="yes"/>
      <point x="198" y="34"/>
      <point x="114" y="114"/>
      <point x="114" y="242" type="curve" smooth="yes"/>
      <point x="114" y="370"/>
      <point x="198" y="450"/>
      <point x="334" y="450" type="curve" smooth="yes"/>
      <point x="470" y="450"/>
      <point x="554" y="370"/>
      <point x="554" y="242" type="curve" smooth="yes"/>
      <point x="554" y="114"/>
      <point x="470" y="34"/>
    </contour>
  </outline>
</glyph>
<glyph name="e" format="2">
  <advance width="647"/>
  <unicode hex="0065"/>
  <anchor x="345" y="0" name="bottom"/>
  <anchor x="437" y="0" name="ogonek"/>
  <anchor x="345" y="484" name="top"/>
  <outline>
    <contour>
      <point x="351" y="-8" type="curve" smooth="yes"/>
      <point x="448" y="-8"/>
      <point x="536" y="21"/>
      <point x="580" y="66" type="curve"/>
      <point x="559" y="102" type="line"/>
      <point x="504" y="55"/>
      <point x="440" y="34"/>
      <point x="356" y="34" type="curve" smooth="yes"/>
      <point x="201" y="34"/>
      <point x="114" y="108"/>
      <point x="114" y="240" type="curve" smooth="yes"/>
      <point x="114" y="246" type="line" smooth="yes"/>
      <point x="114" y="370"/>
      <point x="202" y="452"/>
      <point x="344" y="452" type="curve" smooth="yes"/>
      <point x="473" y="452"/>
      <point x="547" y="384"/>
      <point x="547" y="260" type="curve"/>
      <point x="568" y="272" type="line"/>
      <point x="94" y="272" type="line"/>
      <point x="94" y="233" type="line"/>
      <point x="590" y="233" type="line"/>
      <point x="590" y="260" type="line" smooth="yes"/>
      <point x="590" y="407"/>
      <point x="498" y="492"/>
      <point x="345" y="492" type="curve" smooth="yes"/>
      <point x="179" y="492"/>
      <point x="66" y="391"/>
      <point x="66" y="238" type="curve" smooth="yes"/>
      <point x="66" y="85"/>
      <point x="178" y="-8"/>
    </contour>
  </outline>
</glyph>
<glyph name="f" format="2">
  <advance width="370"/>
  <unicode hex="0066"/>
  <anchor x="151" y="0" name="bottom"/>
  <anchor x="151" y="705" name="top"/>
  <outline>
    <contour>
      <point x="128" y="0" type="line"/>
      <point x="174" y="0" type="line"/>
      <point x="174" y="445" type="line"/>
      <point x="357" y="445" type="line"/>
      <point x="357" y="484" type="line"/>
      <point x="164" y="484" type="line"/>
      <point x="174" y="474" type="line"/>
      <point x="174" y="512" type="line" smooth="yes"/>
      <point x="174" y="611"/>
      <point x="229" y="659"/>
      <point x="329" y="664" type="curve" smooth="yes"/>
      <point x="386" y="667" type="line"/>
      <point x="380" y="707" type="line"/>
      <point x="343" y="705" type="line" smooth="yes"/>
      <point x="199" y="697"/>
      <point x="128" y="634"/>
      <point x="128" y="511" type="curve" smooth="yes"/>
      <point x="128" y="474" type="line"/>
      <point x="138" y="484" type="line"/>
      <point x="6" y="484" type="line"/>
      <point x="6" y="445" type="line"/>
      <point x="128" y="445" type="line"/>
    </contour>
  </outline>
</glyph>
<glyph name="h" format="2">
  <advance width="687"/>
  <unicode hex="0068"/>
  <anchor x="341" y="0" name="bottom"/>
  <anchor x="341" y="245" name="center"/>
  <anchor x="243" y="353" name="dot"/>
  <anchor x="191" y="580" name="stroke"/>
  <anchor x="342" y="705" name="top"/>
  <anchor x="203" y="705" name="topright"/>
  <outline>
    <contour>
      <point x="107" y="0" type="line"/>
      <point x="153" y="0" type="line"/>
      <point x="153" y="256" type="line" smooth="yes"/>
      <point x="153" y="372"/>
      <point x="233" y="450"/>
      <point x="366" y="450" type="curve" smooth="yes"/>
      <point x="475" y="450"/>
      <point x="536" y="406"/>
      <point x="536" y="279" type="curve" smooth="yes"/>
      <point x="536" y="0" type="line"/>
      <point x="582" y="0" type="line"/>
      <point x="582" y="282" type="line" smooth="yes"/>
      <point x="582" y="442"/>
      <point x="494" y="492"/>
      <point x="365" y="492" type="curve" smooth="yes"/>
      <point x="250" y="492"/>
      <point x="179" y="441"/>
      <point x="143" y="362" type="curve"/>
      <point x="153" y="362" type="line"/>
      <point x="153" y="705" type="line"/>
      <point x="107" y="705" type="line"/>
    </contour>
  </outline>
</glyph>
<glyph name="i" format="2">
  <advance width="260"/>
  <unicode hex="0069"/>
  <anchor x="130" y="0" name="bottom"/>
  <anchor x="153" y="0" name="ogonek"/>
  <outline>
    <contour>
      <point x="92" y="618" type="line"/>
      <point x="167" y="618" type="line"/>
      <point x="167" y="684" type="line"/>
      <point x="92" y="684" type="line"/>
    </contour>
    <contour>
      <point x="107" y="0" type="line"/>
      <point x="153" y="0" type="line"/>
      <point x="153" y="484" type="line"/>
      <point x="107" y="484" type="line"/>
    </contour>
  </outline>
</glyph>
<glyph name="k" format="2">
  <advance width="572"/>
  <unicode hex="006B"/>
  <anchor x="286" y="0" name="bottom"/>
  <anchor x="342" y="705" name="top"/>
  <outline>
    <contour>
      <point x="104" y="0" type="line"/>
      <point x="150" y="0" type="line"/>
      <point x="150" y="236" type="line"/>
      <point x="152" y="236" type="line"/>
      <point x="495" y="0" type="line"/>
      <point x="573" y="0" type="line"/>
      <point x="180" y="268" type="line"/>
      <point x="180" y="233" type="line"/>
      <point x="538" y="484" type="line"/>
      <point x="464" y="484" type="line"/>
      <point x="152" y="261" type="line"/>
      <point x="150" y="261" type="line"/>
      <point x="150" y="705" type="line"/>
      <point x="104" y="705" type="line"/>
    </contour>
  </outline>
</glyph>
<glyph name="l" format="2">
  <advance width="332"/>
  <unicode hex="006C"/>
  <anchor x="221" y="0" name="bottom"/>
  <anchor x="140" y="357" name="center"/>
  <anchor x="294" y="357" name="dot"/>
  <anchor x="127" y="705" name="top"/>
  <anchor x="213" y="705" name="topright"/>
  <outline>
    <contour>
      <point x="266" y="-8" type="curve" smooth="yes"/>
      <point x="283" y="-8"/>
      <point x="302" y="-6"/>
      <point x="324" y="-2" type="curve"/>
      <point x="328" y="40" type="line"/>
      <point x="309" y="36"/>
      <point x="288" y="34"/>
      <point x="271" y="34" type="curve" smooth="yes"/>
      <point x="190" y="34"/>
      <point x="150" y="78"/>
      <point x="150" y="159" type="curve" smooth="yes"/>
      <point x="150" y="705" type="line"/>
      <point x="104" y="705" type="line"/>
      <point x="104" y="152" type="line" smooth="yes"/>
      <point x="104" y="51"/>
      <point x="164" y="-8"/>
    </contour>
  </outline>
</glyph>
<glyph name="n" format="2">
  <advance width="687"/>
  <unicode hex="006E"/>
  <anchor x="340" y="0" name="bottom"/>
  <anchor x="340" y="484" name="top"/>
  <outline>
    <contour>
      <point x="107" y="0" type="line"/>
      <point x="153" y="0" type="line"/>
      <point x="153" y="256" type="line" smooth="yes"/>
      <point x="153" y="372"/>
      <point x="233" y="450"/>
      <point x="366" y="450" type="curve" smooth="yes"/>
      <point x="475" y="450"/>
      <point x="536" y="406"/>
      <point x="536" y="279" type="curve" smooth="yes"/>
      <point x="536" y="0" type="line"/>
      <point x="582" y="0" type="line"/>
      <point x="582" y="282" type="line" smooth="yes"/>
      <point x="582" y="442"/>
      <point x="494" y="492"/>
      <point x="365" y="492" type="curve" smooth="yes"/>
      <point x="250" y="492"/>
      <point x="178" y="441"/>
      <point x="142" y="362" type="curve"/>
      <point x="152" y="362" type="line"/>
      <point x="152" y="484" type="line"/>
      <point x="107" y="484" type="line"/>
    </contour>
  </outline>
</glyph>
<glyph name="o" format="2">
  <advance width="668"/>
  <unicode hex="006F"/>
  <anchor x="334" y="0" name="bottom"/>
  <anchor x="330" y="242" name="center"/>
  <anchor x="362" y="0" name="ogonek"/>
  <anchor x="334" y="484" name="top"/>
  <anchor x="390" y="484" name="topright"/>
  <outline>
    <contour>
      <point x="334" y="-8" type="curve" smooth="yes"/>
      <point x="497" y="-8"/>
      <point x="602" y="91"/>
      <point x="602" y="242" type="curve" smooth="yes"/>
      <point x="602" y="393"/>
      <point x="497" y="492"/>
      <point x="334" y="492" type="curve" smooth="yes"/>
      <point x="171" y="492"/>
      <point x="66" y="393"/>
      <point x="66" y="242" type="curve" smooth="yes"/>
      <point x="66" y="91"/>
      <point x="171" y="-8"/>
    </contour>
    <contour>
      <point x="334" y="34" type="curve" smooth="yes"/>
      <point x="197" y="34"/>
      <point x="114" y="114"/>
      <point x="114" y="242" type="curve" smooth="yes"/>
      <point x="114" y="370"/>
      <point x="197" y="450"/>
      <point x="334" y="450" type="curve" smooth="yes"/>
      <point x="471" y="450"/>
      <point x="554" y="370"/>
      <point x="554" y="242" type="curve" smooth="yes"/>
      <point x="554" y="114"/>
      <point x="471" y="34"/>
    </contour>
  </outline>
</glyph>
<glyph name="s" format="2">
  <advance width="585"/>
  <unicode hex="0073"/>
  <anchor x="301" y="0" name="bottom"/>
  <anchor x="300" y="484" name="top"/>
  <outline>
    <contour>
      <point x="301" y="-8" type="curve" smooth="yes"/>
      <point x="430" y="-8"/>
      <point x="514" y="46"/>
      <point x="514" y="129" type="curve" smooth="yes"/>
      <point x="514" y="195"/>
      <point x="464" y="235"/>
      <point x="364" y="250" type="curve" smooth="yes"/>
      <point x="240" y="269" type="line" smooth="yes"/>
      <point x="169" y="280"/>
      <point x="139" y="309"/>
      <point x="139" y="354" type="curve" smooth="yes"/>
      <point x="139" y="407"/>
      <point x="190" y="451"/>
      <point x="300" y="451" type="curve" smooth="yes"/>
      <point x="374" y="451"/>
      <point x="433" y="433"/>
      <point x="480" y="393" type="curve"/>
      <point x="504" y="428" type="line"/>
      <point x="463" y="469"/>
      <point x="389" y="492"/>
      <point x="300" y="492" type="curve" smooth="yes"/>
      <point x="164" y="492"/>
      <point x="89" y="429"/>
      <point x="89" y="352" type="curve" smooth="yes"/>
      <point x="89" y="287"/>
      <point x="136" y="242"/>
      <point x="230" y="227" type="curve" smooth="yes"/>
      <point x="354" y="208" type="line" smooth="yes"/>
      <point x="434" y="196"/>
      <point x="464" y="169"/>
      <point x="464" y="127" type="curve" smooth="yes"/>
      <point x="464" y="70"/>
      <point x="404" y="33"/>
      <point x="301" y="33" type="curve" smooth="yes"/>
      <point x="213" y="33"/>
      <point x="144" y="52"/>
      <point x="93" y="89" type="curve"/>
      <point x="71" y="53" type="line"/>
      <point x="115" y="15"/>
      <point x="199" y="-8"/>
    </contour>
  </outline>
</glyph>
<glyph name="u" format="2">
  <advance width="679"/>
  <unicode hex="0075"/>
  <anchor x="340" y="0" name="bottom"/>
  <anchor x="572" y="0" name="ogonek"/>
  <anchor x="340" y="485" name="top"/>
  <anchor x="525" y="484" name="topright"/>
  <outline>
    <contour>
      <point x="318" y="-8" type="curve" smooth="yes"/>
      <point x="430.937" y="-8"/>
      <point x="501.11" y="43.242"/>
      <point x="537" y="122" type="curve"/>
      <point x="527" y="122" type="line"/>
      <point x="527" y="0" type="line"/>
      <point x="572" y="0" type="line"/>
      <point x="572" y="484" type="line"/>
      <point x="526" y="484" type="line"/>
      <point x="526" y="228" type="line" smooth="yes"/>
      <point x="526" y="112"/>
      <point x="447.502" y="34"/>
      <point x="317" y="34" type="curve" smooth="yes"/>
      <point x="210.565" y="34"/>
      <point x="151" y="78"/>
      <point x="151" y="205" type="curve" smooth="yes"/>
      <point x="151" y="484" type="line"/>
      <point x="105" y="484" type="line"/>
      <point x="105" y="202" type="line" smooth="yes"/>
      <point x="105" y="42"/>
      <point x="191.378" y="-8"/>
    </contour>
  </outline>
</glyph>
<glyph name="v" format="2">
  <advance width="620"/>
  <unicode hex="0076"/>
  <anchor x="310" y="0" name="bottom"/>
  <anchor x="310" y="484" name="top"/>
  <outline>
    <contour>
      <point x="283" y="0" type="line"/>
      <point x="337" y="0" type="line"/>
      <point x="595" y="484" type="line"/>
      <point x="541" y="484" type="line"/>
      <point x="298" y="17" type="line"/>
      <point x="324" y="17" type="line"/>
      <point x="81" y="484" type="line"/>
      <point x="25" y="484" type="line"/>
    </contour>
  </outline>
</glyph>
<glyph name="w" format="2">
  <advance width="1028"/>
  <unicode hex="0077"/>
  <anchor x="514" y="0" name="bottom"/>
  <anchor x="514" y="484" name="top"/>
  <outline>
    <contour>
      <point x="260" y="0" type="line"/>
      <point x="318" y="0" type="line"/>
      <point x="531" y="473" type="line"/>
      <point x="497" y="473" type="line"/>
      <point x="710" y="0" type="line"/>
      <point x="768" y="0" type="line"/>
      <point x="979" y="484" type="line"/>
      <point x="925" y="484" type="line"/>
      <point x="727" y="18" type="line"/>
      <point x="755" y="18" type="line"/>
      <point x="543" y="484" type="line"/>
      <point x="484" y="484" type="line"/>
      <point x="272" y="18" type="line"/>
      <point x="303" y="18" type="line"/>
      <point x="105" y="484" type="line"/>
      <point x="49" y="484" type="line"/>
    </contour>
  </outline>
</glyph>
<glyph name="braceleft" format="2">
  <advance width="384"/>
  <unicode hex="007B"/>
  <outline>
    <contour>
      <point x="281" y="-180" type="curve" smooth="yes"/>
      <point x="383" y="-180" type="line"/>
      <point x="383" y="-140" type="line"/>
      <point x="284" y="-140" type="line" smooth="yes"/>
      <point x="249" y="-140"/>
      <point x="228" y="-121"/>
      <point x="228" y="-88" type="curve" smooth="yes"/>
      <point x="228" y="164" type="line" smooth="yes"/>
      <point x="228" y="224"/>
      <point x="184" y="265"/>
      <point x="121" y="265" type="curve"/>
      <point x="121" y="261" type="line"/>
      <point x="184" y="261"/>
      <point x="228" y="302"/>
      <point x="228" y="362" type="curve" smooth="yes"/>
      <point x="228" y="613" type="line" smooth="yes"/>
      <point x="228" y="646"/>
      <point x="249" y="665"/>
      <point x="284" y="665" type="curve" smooth="yes"/>
      <point x="383" y="665" type="line"/>
      <point x="383" y="705" type="line"/>
      <point x="281" y="705" type="line" smooth="yes"/>
      <point x="218" y="705"/>
      <point x="182" y="672"/>
      <point x="182" y="612" type="curve" smooth="yes"/>
      <point x="182" y="365" type="line" smooth="yes"/>
      <point x="182" y="303"/>
      <point x="149" y="286"/>
      <point x="86" y="283" type="curve" smooth="yes"/>
      <point x="63" y="282" type="line"/>
      <point x="63" y="244" type="line"/>
      <point x="86" y="243" type="line" smooth="yes"/>
      <point x="155" y="240"/>
      <point x="182" y="216"/>
      <point x="182" y="161" type="curve" smooth="yes"/>
      <point x="182" y="-87" type="line" smooth="yes"/>
      <point x="182" y="-147"/>
      <point x="218" y="-180"/>
    </contour>
  </outline>
</glyph>
<glyph name="braceright" format="2">
  <advance width="384"/>
  <unicode hex="007D"/>
  <outline>
    <contour>
      <point x="1" y="-180" type="line"/>
      <point x="103" y="-180" type="line" smooth="yes"/>
      <point x="166" y="-180"/>
      <point x="202" y="-147"/>
      <point x="202" y="-87" type="curve" smooth="yes"/>
      <point x="202" y="161" type="line" smooth="yes"/>
      <point x="202" y="216"/>
      <point x="229" y="240"/>
      <point x="298" y="243" type="curve" smooth="yes"/>
      <point x="321" y="244" type="line"/>
      <point x="321" y="282" type="line"/>
      <point x="298" y="283" type="line" smooth="yes"/>
      <point x="235" y="286"/>
      <point x="202" y="303"/>
      <point x="202" y="365" type="curve" smooth="yes"/>
      <point x="202" y="612" type="line" smooth="yes"/>
      <point x="202" y="672"/>
      <point x="166" y="705"/>
      <point x="103" y="705" type="curve" smooth="yes"/>
      <point x="1" y="705" type="line"/>
      <point x="1" y="665" type="line"/>
      <point x="100" y="665" type="line" smooth="yes"/>
      <point x="135" y="665"/>
      <point x="156" y="646"/>
      <point x="156" y="613" type="curve" smooth="yes"/>
      <point x="156" y="362" type="line" smooth="yes"/>
      <point x="156" y="302"/>
      <point x="200" y="261"/>
      <point x="263" y="261" type="curve"/>
      <point x="263" y="265" type="line"/>
      <point x="200" y="265"/>
      <point x="156" y="224"/>
      <point x="156" y="164" type="curve" smooth="yes"/>
      <point x="156" y="-88" type="line" smooth="yes"/>
      <point x="156" y="-121"/>
      <point x="135" y="-140"/>
      <point x="100" y="-140" type="curve" smooth="yes"/>
      <point x="1" y="-140" type="line"/>
    </contour>
  </outline>
</glyph>
<glyph name="cent" format="2">
  <advance width="748"/>
  <unicode hex="00A2"/>
  <outline>
    <contour>
      <point x="371" y="-115" type="line"/>
      <point x="417" y="-115" type="line"/>
      <point x="417" y="9" type="line"/>
      <point x="403" y="-6" type="line"/>
      <point x="486" y="-5"/>
      <point x="557" y="20"/>
      <point x="607" y="65" type="curve"/>
      <point x="583" y="101" type="line"/>
      <point x="537" y="58"/>
      <point x="472" y="36"/>
      <point x="396" y="36" type="curve" smooth="yes"/>
      <point x="259" y="36"/>
      <point x="172" y="116"/>
      <point x="172" y="242" type="curve" smooth="yes"/>
      <point x="172" y="368"/>
      <point x="259" y="448"/>
      <point x="396" y="448" type="curve" smooth="yes"/>
      <point x="471" y="448"/>
      <point x="534" y="427"/>
      <point x="583" y="384" type="curve"/>
      <point x="607" y="419" type="line"/>
      <point x="558" y="464"/>
      <point x="487" y="489"/>
      <point x="404" y="490" type="curve"/>
      <point x="417" y="468" type="line"/>
      <point x="417" y="604" type="line"/>
      <point x="371" y="604" type="line"/>
      <point x="371" y="468" type="line"/>
      <point x="390" y="490" type="line"/>
      <point x="230" y="487"/>
      <point x="124" y="389"/>
      <point x="124" y="242" type="curve" smooth="yes"/>
      <point x="124" y="95"/>
      <point x="230" y="-3"/>
      <point x="390" y="-6" type="curve"/>
      <point x="371" y="9" type="line"/>
    </contour>
  </outline>
</glyph>
<glyph name="currency" format="2">
  <advance width="748"/>
  <unicode hex="00A4"/>
  <outline>
    <contour>
      <point x="127" y="-22" type="line"/>
      <point x="206" y="53" type="line"/>
      <point x="250" y="18"/>
      <point x="308" y="-3"/>
      <point x="374" y="-3" type="curve" smooth="yes"/>
      <point x="441" y="-3"/>
      <point x="499" y="18"/>
      <point x="543" y="53" type="curve"/>
      <point x="621" y="-22" type="line"/>
      <point x="653" y="11" type="line"/>
      <point x="575" y="85" type="line"/>
      <point x="612" y="128"/>
      <point x="633" y="183"/>
      <point x="633" y="245" type="curve" smooth="yes"/>
      <point x="633" y="306"/>
      <point x="612" y="362"/>
      <point x="576" y="405" type="curve"/>
      <point x="653" y="479" type="line"/>
      <point x="621" y="512" type="line"/>
      <point x="542" y="437" type="line"/>
      <point x="498" y="472"/>
      <point x="440" y="493"/>
      <point x="374" y="493" type="curve" smooth="yes"/>
      <point x="307" y="493"/>
      <point x="250" y="472"/>
      <point x="205" y="437" type="curve"/>
      <point x="127" y="512" type="line"/>
      <point x="95" y="479" type="line"/>
      <point x="172" y="405" type="line"/>
      <point x="136" y="362"/>
      <point x="115" y="306"/>
      <point x="115" y="245" type="curve" smooth="yes"/>
      <point x="115" y="184"/>
      <point x="136" y="128"/>
      <point x="172" y="85" type="curve"/>
      <point x="95" y="11" type="line"/>
    </contour>
    <contour>
      <point x="374" y="37" type="curve" smooth="yes"/>
      <point x="248" y="37"/>
      <point x="162" y="127"/>
      <point x="162" y="245" type="curve" smooth="yes"/>
      <point x="162" y="363"/>
      <point x="248" y="453"/>
      <point x="374" y="453" type="curve" smooth="yes"/>
      <point x="501" y="453"/>
      <point x="586" y="363"/>
      <point x="586" y="245" type="curve" smooth="yes"/>
      <point x="586" y="127"/>
      <point x="501" y="37"/>
    </contour>
  </outline>
</glyph>
<glyph name="brokenbar" format="2">
  <advance width="292"/>
  <unicode hex="00A6"/>
  <outline>
    <contour>
      <point x="123" y="372" type="line"/>
      <point x="169" y="372" type="line"/>
      <point x="169" y="705" type="line"/>
      <point x="123" y="705" type="line"/>
    </contour>
    <contour>
      <point x="123" y="-180" type="line"/>
      <point x="169" y="-180" type="line"/>
      <point x="169" y="153" type="line"/>
      <point x="123" y="153" type="line"/>
    </contour>
  </outline>
</glyph>
<glyph name="copyright" format="2">
  <advance width="1011"/>
  <unicode hex="00A9"/>
  <outline>
    <contour>
      <point x="506" y="-8" type="curve" smooth="yes"/>
      <point x="772" y="-8"/>
      <point x="953" y="138"/>
      <point x="953" y="353" type="curve" smooth="yes"/>
      <point x="953" y="567"/>
      <point x="772" y="713"/>
      <point x="506" y="713" type="curve" smooth="yes"/>
      <point x="240" y="713"/>
      <point x="59" y="567"/>
      <point x="59" y="352" type="curve" smooth="yes"/>
      <point x="59" y="138"/>
      <point x="240" y="-8"/>
    </contour>
    <contour>
      <point x="511" y="137" type="curve" smooth="yes"/>
      <point x="586" y="137"/>
      <point x="650" y="157"/>
      <point x="695" y="195" type="curve"/>
      <point x="669" y="227" type="line"/>
      <point x="623" y="191"/>
      <point x="581" y="177"/>
      <point x="516" y="177" type="curve" smooth="yes"/>
      <point x="383" y="177"/>
      <point x="314" y="238"/>
      <point x="314" y="354" type="curve" smooth="yes"/>
      <point x="314" y="469"/>
      <point x="383" y="528"/>
      <point x="518" y="528" type="curve" smooth="yes"/>
      <point x="584" y="528"/>
      <point x="626" y="514"/>
      <point x="669" y="478" type="curve"/>
      <point x="695" y="510" type="line"/>
      <point x="650" y="548"/>
      <point x="586" y="568"/>
      <point x="509" y="568" type="curve" smooth="yes"/>
      <point x="357" y="568"/>
      <point x="268" y="489"/>
      <point x="268" y="355" type="curve" smooth="yes"/>
      <point x="268" y="219"/>
      <point x="360" y="137"/>
    </contour>
    <contour>
      <point x="506" y="29" type="curve" smooth="yes"/>
      <point x="263" y="29"/>
      <point x="100" y="159"/>
      <point x="100" y="352" type="curve" smooth="yes"/>
      <point x="100" y="545"/>
      <point x="264" y="676"/>
      <point x="506" y="676" type="curve" smooth="yes"/>
      <point x="749" y="676"/>
      <point x="912" y="546"/>
      <point x="912" y="353" type="curve" smooth="yes"/>
      <point x="912" y="160"/>
      <point x="748" y="29"/>
    </contour>
  </outline>
</glyph>
<glyph name="ordfeminine" format="2">
  <advance width="391"/>
  <unicode hex="00AA"/>
  <outline>
    <contour>
      <point x="172" y="413" type="curve" smooth="yes"/>
      <point x="226" y="413"/>
      <point x="269" y="433"/>
      <point x="296" y="471" type="curve"/>
      <point x="299" y="471" type="line"/>
      <point x="299" y="418" type="line"/>
      <point x="338" y="418" type="line"/>
      <point x="338" y="603" type="line" smooth="yes"/>
      <point x="338" y="677"/>
      <point x="294" y="713"/>
      <point x="203" y="713" type="curve" smooth="yes"/>
      <point x="144" y="713"/>
      <point x="88" y="699"/>
      <point x="54" y="676" type="curve"/>
      <point x="68" y="647" type="line"/>
      <point x="99" y="669"/>
      <point x="145" y="683"/>
      <point x="197" y="683" type="curve" smooth="yes"/>
      <point x="271" y="683"/>
      <point x="299" y="660"/>
      <point x="299" y="604" type="curve" smooth="yes"/>
      <point x="299" y="543" type="line" smooth="yes"/>
      <point x="299" y="487"/>
      <point x="245" y="445"/>
      <point x="173" y="445" type="curve" smooth="yes"/>
      <point x="119" y="445"/>
      <point x="81" y="468"/>
      <point x="81" y="502" type="curve" smooth="yes"/>
      <point x="81" y="542"/>
      <point x="121" y="556"/>
      <point x="241" y="556" type="curve" smooth="yes"/>
      <point x="308" y="556" type="line"/>
      <point x="308" y="584" type="line"/>
      <point x="239" y="584" type="line" smooth="yes"/>
      <point x="99" y="584"/>
      <point x="40" y="561"/>
      <point x="40" y="504" type="curve" smooth="yes"/>
      <point x="40" y="451"/>
      <point x="95" y="413"/>
    </contour>
  </outline>
</glyph>
<glyph name="logicalnot" format="2">
  <advance width="748"/>
  <unicode hex="00AC"/>
  <outline>
    <contour>
      <point x="599" y="151" type="line"/>
      <point x="645" y="151" type="line"/>
      <point x="645" y="410" type="line"/>
      <point x="103" y="410" type="line"/>
      <point x="103" y="370" type="line"/>
      <point x="599" y="370" type="line"/>
    </contour>
  </outline>
</glyph>
<glyph name="degree" format="2">
  <advance width="402"/>
  <unicode hex="00B0"/>
  <outline>
    <contour>
      <point x="201" y="405" type="curve" smooth="yes"/>
      <point x="288" y="405"/>
      <point x="354" y="472"/>
      <point x="354" y="559" type="curve" smooth="yes"/>
      <point x="354" y="646"/>
      <point x="288" y="713"/>
      <point x="201" y="713" type="curve" smooth="yes"/>
      <point x="114" y="713"/>
      <point x="48" y="646"/>
      <point x="48" y="559" type="curve" smooth="yes"/>
      <point x="48" y="472"/>
      <point x="114" y="405"/>
    </contour>
    <contour>
      <point x="201" y="447" type="curve" smooth="yes"/>
      <point x="137" y="447"/>
      <point x="94" y="493"/>
      <point x="94" y="559" type="curve" smooth="yes"/>
      <point x="94" y="625"/>
      <point x="137" y="671"/>
      <point x="201" y="671" type="curve" smooth="yes"/>
      <point x="265" y="671"/>
      <point x="308" y="625"/>
      <point x="308" y="559" type="curve" smooth="yes"/>
      <point x="308" y="493"/>
      <point x="265" y="447"/>
    </contour>
  </outline>
</glyph>
<glyph name="ordmasculine" format="2">
  <advance width="402"/>
  <unicode hex="00BA"/>
  <outline>
    <contour>
      <point x="201" y="413" type="curve" smooth="yes"/>
      <point x="303" y="413"/>
      <point x="369" y="472"/>
      <point x="369" y="563" type="curve" smooth="yes"/>
      <point x="369" y="654"/>
      <point x="303" y="713"/>
      <point x="201" y="713" type="curve" smooth="yes"/>
      <point x="99" y="713"/>
      <point x="33" y="654"/>
      <point x="33" y="563" type="curve" smooth="yes"/>
      <point x="33" y="472"/>
      <point x="99" y="413"/>
    </contour>
    <contour>
      <point x="201" y="446" type="curve" smooth="yes"/>
      <point x="120" y="446"/>
      <point x="72" y="487"/>
      <point x="72" y="563" type="curve" smooth="yes"/>
      <point x="72" y="639"/>
      <point x="120" y="680"/>
      <point x="201" y="680" type="curve" smooth="yes"/>
      <point x="282" y="680"/>
      <point x="330" y="639"/>
      <point x="330" y="563" type="curve" smooth="yes"/>
      <point x="330" y="487"/>
      <point x="282" y="446"/>
    </contour>
  </outline>
</glyph>
<glyph name="AE" format="2">
  <advance width="1204"/>
  <unicode hex="00C6"/>
  <anchor x="605" y="0" name="bottom"/>
  <anchor x="603" y="705" name="top"/>
  <outline>
    <contour>
      <point x="1" y="0" type="line"/>
      <point x="59" y="0" type="line"/>
      <point x="211" y="206" type="line"/>
      <point x="189" y="193" type="line"/>
      <point x="678" y="193" type="line"/>
      <point x="655" y="208" type="line"/>
      <point x="711" y="0" type="line"/>
      <point x="1146" y="0" type="line"/>
      <point x="1146" y="42" type="line"/>
      <point x="727" y="42" type="line"/>
      <point x="751" y="22" type="line"/>
      <point x="664" y="348" type="line"/>
      <point x="649" y="337" type="line"/>
      <point x="1121" y="337" type="line"/>
      <point x="1121" y="379" type="line"/>
      <point x="640" y="379" type="line"/>
      <point x="659" y="366" type="line"/>
      <point x="573" y="687" type="line"/>
      <point x="566" y="663" type="line"/>
      <point x="1146" y="663" type="line"/>
      <point x="1146" y="705" type="line"/>
      <point x="525" y="705" type="line"/>
    </contour>
    <contour>
      <point x="535" y="646" type="line"/>
      <point x="537" y="646" type="line"/>
      <point x="650" y="226" type="line"/>
      <point x="656" y="236" type="line"/>
      <point x="213" y="236" type="line"/>
      <point x="224" y="224" type="line"/>
    </contour>
  </outline>
</glyph>
<glyph name="Thorn" format="2">
  <advance width="759"/>
  <unicode hex="00DE"/>
  <anchor x="390" y="0" name="bottom"/>
  <anchor x="390" y="705" name="top"/>
  <outline>
    <contour>
      <point x="118" y="0" type="line"/>
      <point x="164" y="0" type="line"/>
      <point x="164" y="160" type="line"/>
      <point x="444" y="160" type="line" smooth="yes"/>
      <point x="626" y="160"/>
      <point x="717" y="228"/>
      <point x="717" y="365" type="curve" smooth="yes"/>
      <point x="717" y="503"/>
      <point x="626" y="570"/>
      <point x="444" y="570" type="curve" smooth="yes"/>
      <point x="164" y="570" type="line"/>
      <point x="164" y="705" type="line"/>
      <point x="118" y="705" type="line"/>
    </contour>
    <contour>
      <point x="164" y="202" type="line"/>
      <point x="164" y="528" type="line"/>
      <point x="445" y="528" type="line" smooth="yes"/>
      <point x="599" y="528"/>
      <point x="668" y="478"/>
      <point x="668" y="365" type="curve" smooth="yes"/>
      <point x="668" y="252"/>
      <point x="598" y="202"/>
      <point x="445" y="202" type="curve" smooth="yes"/>
    </contour>
  </outline>
</glyph>
<glyph name="germandbls" format="2">
  <advance width="713"/>
  <unicode hex="00DF"/>
  <outline>
    <contour>
      <point x="461" y="-8" type="curve" smooth="yes"/>
      <point x="586" y="-8"/>
      <point x="671" y="45"/>
      <point x="671" y="133" type="curve" smooth="yes"/>
      <point x="671" y="212"/>
      <point x="605" y="248"/>
      <point x="486" y="269" type="curve" smooth="yes"/>
      <point x="397" y="285"/>
      <point x="340" y="304"/>
      <point x="340" y="364" type="curve" smooth="yes"/>
      <point x="340" y="407"/>
      <point x="375" y="430"/>
      <point x="418" y="455" type="curve" smooth="yes"/>
      <point x="484" y="493"/>
      <point x="528" y="531"/>
      <point x="528" y="592" type="curve" smooth="yes"/>
      <point x="528" y="670"/>
      <point x="464" y="713"/>
      <point x="345" y="713" type="curve" smooth="yes"/>
      <point x="191" y="713"/>
      <point x="104" y="642"/>
      <point x="104" y="511" type="curve" smooth="yes"/>
      <point x="104" y="0" type="line"/>
      <point x="150" y="0" type="line"/>
      <point x="150" y="513" type="line" smooth="yes"/>
      <point x="150" y="619"/>
      <point x="217" y="671"/>
      <point x="345" y="671" type="curve" smooth="yes"/>
      <point x="435" y="671"/>
      <point x="479" y="645"/>
      <point x="479" y="590" type="curve" smooth="yes"/>
      <point x="479" y="541"/>
      <point x="439" y="513"/>
      <point x="392" y="486" type="curve" smooth="yes"/>
      <point x="332" y="451"/>
      <point x="291" y="417"/>
      <point x="291" y="359" type="curve" smooth="yes"/>
      <point x="291" y="280"/>
      <point x="355" y="247"/>
      <point x="474" y="226" type="curve" smooth="yes"/>
      <point x="585" y="206"/>
      <point x="621" y="177"/>
      <point x="621" y="131" type="curve" smooth="yes"/>
      <point x="621" y="70"/>
      <point x="559" y="33"/>
      <point x="462" y="33" type="curve" smooth="yes"/>
      <point x="398" y="33"/>
      <point x="329" y="51"/>
      <point x="268" y="96" type="curve"/>
      <point x="243" y="60" type="line"/>
      <point x="295" y="16"/>
      <point x="381" y="-8"/>
    </contour>
  </outline>
</glyph>
<glyph name="ae" format="2">
  <advance width="1063"/>
  <unicode hex="00E6"/>
  <anchor x="516" y="0" name="bottom"/>
  <anchor x="516" y="484" name="top"/>
  <outline>
    <contour>
      <point x="279" y="-8" type="curve" smooth="yes"/>
      <point x="404" y="-8"/>
      <point x="495" y="53"/>
      <point x="527" y="158" type="curve"/>
      <point x="502" y="158" type="line"/>
      <point x="534" y="53"/>
      <point x="631" y="-8"/>
      <point x="767" y="-8" type="curve" smooth="yes"/>
      <point x="863" y="-8"/>
      <point x="952" y="21"/>
      <point x="996" y="66" type="curve"/>
      <point x="975" y="102" type="line"/>
      <point x="920" y="55"/>
      <point x="857" y="34"/>
      <point x="775" y="34" type="curve" smooth="yes"/>
      <point x="621" y="34"/>
      <point x="538" y="108"/>
      <point x="538" y="240" type="curve" smooth="yes"/>
      <point x="538" y="246" type="line" smooth="yes"/>
      <point x="538" y="372"/>
      <point x="625" y="452"/>
      <point x="760" y="452" type="curve" smooth="yes"/>
      <point x="890" y="452"/>
      <point x="963" y="383"/>
      <point x="963" y="260" type="curve"/>
      <point x="984" y="276" type="line"/>
      <point x="518" y="276" type="line"/>
      <point x="518" y="237" type="line"/>
      <point x="1006" y="237" type="line"/>
      <point x="1006" y="260" type="line" smooth="yes"/>
      <point x="1006" y="406"/>
      <point x="915" y="492"/>
      <point x="761" y="492" type="curve" smooth="yes"/>
      <point x="648" y="492"/>
      <point x="558" y="442"/>
      <point x="517" y="356" type="curve"/>
      <point x="534" y="356" type="line"/>
      <point x="520" y="446"/>
      <point x="449" y="492"/>
      <point x="329" y="492" type="curve" smooth="yes"/>
      <point x="243" y="492"/>
      <point x="159" y="468"/>
      <point x="104" y="430" type="curve"/>
      <point x="125" y="390" type="line"/>
      <point x="180" y="429"/>
      <point x="250" y="450"/>
      <point x="326" y="450" type="curve" smooth="yes"/>
      <point x="437" y="450"/>
      <point x="491" y="408"/>
      <point x="491" y="320" type="curve" smooth="yes"/>
      <point x="491" y="201" type="line" smooth="yes"/>
      <point x="491" y="104"/>
      <point x="402" y="32"/>
      <point x="282" y="32" type="curve" smooth="yes"/>
      <point x="189" y="32"/>
      <point x="129" y="75"/>
      <point x="129" y="141" type="curve" smooth="yes"/>
      <point x="129" y="213"/>
      <point x="192" y="237"/>
      <point x="383" y="237" type="curve" smooth="yes"/>
      <point x="498" y="237" type="line"/>
      <point x="498" y="276" type="line"/>
      <point x="380" y="276" type="line" smooth="yes"/>
      <point x="161" y="276"/>
      <point x="79" y="239"/>
      <point x="79" y="140" type="curve" smooth="yes"/>
      <point x="79" y="54"/>
      <point x="162" y="-8"/>
    </contour>
  </outline>
</glyph>
<glyph name="eth" format="2">
  <advance width="665"/>
  <unicode hex="00F0"/>
  <outline>
    <contour>
      <point x="334" y="-8" type="curve" smooth="yes"/>
      <point x="501" y="-8"/>
      <point x="602" y="87"/>
      <point x="602" y="243" type="curve" smooth="yes"/>
      <point x="602" y="431"/>
      <point x="545" y="550"/>
      <point x="401" y="630" type="curve"/>
      <point x="400" y="622" type="line"/>
      <point x="538" y="679" type="line"/>
      <point x="523" y="713" type="line"/>
      <point x="360" y="646" type="line"/>
      <point x="372" y="645" type="line"/>
      <point x="317" y="672"/>
      <point x="251" y="694"/>
      <point x="173" y="713" type="curve"/>
      <point x="163" y="677" type="line"/>
      <point x="225" y="664"/>
      <point x="280" y="647"/>
      <point x="327" y="626" type="curve"/>
      <point x="328" y="633" type="line"/>
      <point x="158" y="563" type="line"/>
      <point x="173" y="529" type="line"/>
      <point x="375" y="612" type="line"/>
      <point x="354" y="613" type="line"/>
      <point x="490" y="543"/>
      <point x="557" y="435"/>
      <point x="555" y="287" type="curve"/>
      <point x="578" y="287" type="line"/>
      <point x="547" y="399"/>
      <point x="466" y="454"/>
      <point x="337" y="454" type="curve" smooth="yes"/>
      <point x="171" y="454"/>
      <point x="66" y="363"/>
      <point x="66" y="223" type="curve" smooth="yes"/>
      <point x="66" y="83"/>
      <point x="171" y="-8"/>
    </contour>
    <contour>
      <point x="334" y="34" type="curve" smooth="yes"/>
      <point x="198" y="34"/>
      <point x="114" y="106"/>
      <point x="114" y="223" type="curve" smooth="yes"/>
      <point x="114" y="340"/>
      <point x="198" y="412"/>
      <point x="334" y="412" type="curve" smooth="yes"/>
      <point x="470" y="412"/>
      <point x="554" y="340"/>
      <point x="554" y="223" type="curve" smooth="yes"/>
      <point x="554" y="106"/>
      <point x="470" y="34"/>
    </contour>
  </outline>
</glyph>
<glyph name="thorn" format="2">
  <advance width="706"/>
  <unicode hex="00FE"/>
  <anchor x="349" y="0" name="bottom"/>
  <anchor x="349" y="484" name="top"/>
  <outline>
    <contour>
      <point x="107" y="-180" type="line"/>
      <point x="153" y="-180" type="line"/>
      <point x="153" y="126" type="line"/>
      <point x="140" y="126" type="line"/>
      <point x="167" y="44"/>
      <point x="257" y="-8"/>
      <point x="371" y="-8" type="curve" smooth="yes"/>
      <point x="534" y="-8"/>
      <point x="640" y="90"/>
      <point x="640" y="242" type="curve" smooth="yes"/>
      <point x="640" y="394"/>
      <point x="534" y="492"/>
      <point x="371" y="492" type="curve" smooth="yes"/>
      <point x="257" y="492"/>
      <point x="167" y="440"/>
      <point x="140" y="358" type="curve"/>
      <point x="153" y="358" type="line"/>
      <point x="153" y="705" type="line"/>
      <point x="107" y="705" type="line"/>
    </contour>
    <contour>
      <point x="372" y="34" type="curve" smooth="yes"/>
      <point x="236" y="34"/>
      <point x="152" y="114"/>
      <point x="152" y="242" type="curve" smooth="yes"/>
      <point x="152" y="370"/>
      <point x="236" y="450"/>
      <point x="372" y="450" type="curve" smooth="yes"/>
      <point x="508" y="450"/>
      <point x="592" y="370"/>
      <point x="592" y="242" type="curve" smooth="yes"/>
      <point x="592" y="114"/>
      <point x="508" y="34"/>
    </contour>
  </outline>
</glyph>
<glyph name="Hbar" format="2">
  <advance width="972"/>
  <unicode hex="0126"/>
  <outline>
    <contour>
      <point x="140" y="0" type="line"/>
      <point x="186" y="0" type="line"/>
      <point x="186" y="337" type="line"/>
      <point x="786" y="337" type="line"/>
      <point x="786" y="0" type="line"/>
      <point x="832" y="0" type="line"/>
      <point x="832" y="527" type="line"/>
      <point x="953" y="527" type="line"/>
      <point x="953" y="567" type="line"/>
      <point x="832" y="567" type="line"/>
      <point x="832" y="705" type="line"/>
      <point x="786" y="705" type="line"/>
      <point x="786" y="567" type="line"/>
      <point x="186" y="567" type="line"/>
      <point x="186" y="705" type="line"/>
      <point x="140" y="705" type="line"/>
      <point x="140" y="567" type="line"/>
      <point x="19" y="567" type="line"/>
      <point x="19" y="527" type="line"/>
      <point x="140" y="527" type="line"/>
    </contour>
    <contour>
      <point x="186" y="379" type="line"/>
      <point x="186" y="527" type="line"/>
      <point x="786" y="527" type="line"/>
      <point x="786" y="379" type="line"/>
    </contour>
  </outline>
</glyph>
<glyph name="kgreenlandic" format="2">
  <advance width="575"/>
  <unicode hex="0138"/>
  <anchor x="289" y="0" name="bottom"/>
  <anchor x="289" y="484" name="top"/>
  <outline>
    <contour>
      <point x="107" y="0" type="line"/>
      <point x="153" y="0" type="line"/>
      <point x="153" y="236" type="line"/>
      <point x="155" y="236" type="line"/>
      <point x="498" y="0" type="line"/>
      <point x="576" y="0" type="line"/>
      <point x="183" y="268" type="line"/>
      <point x="183" y="233" type="line"/>
      <point x="541" y="484" type="line"/>
      <point x="467" y="484" type="line"/>
      <point x="155" y="261" type="line"/>
      <point x="153" y="261" type="line"/>
      <point x="153" y="484" type="line"/>
      <point x="107" y="484" type="line"/>
    </contour>
  </outline>
</glyph>
<glyph name="eng" format="2">
  <advance width="687"/>
  <unicode hex="014B"/>
  <outline>
    <contour>
      <point x="355" y="-193" type="line"/>
      <point x="409" y="-190" type="line" smooth="yes"/>
      <point x="520" y="-184"/>
      <point x="582" y="-122"/>
      <point x="582" y="-19" type="curve" smooth="yes"/>
      <point x="582" y="282" type="line" smooth="yes"/>
      <point x="582" y="442"/>
      <point x="494" y="492"/>
      <point x="365" y="492" type="curve" smooth="yes"/>
      <point x="250" y="492"/>
      <point x="178" y="441"/>
      <point x="142" y="362" type="curve"/>
      <point x="152" y="362" type="line"/>
      <point x="152" y="484" type="line"/>
      <point x="107" y="484" type="line"/>
      <point x="107" y="0" type="line"/>
      <point x="153" y="0" type="line"/>
      <point x="153" y="256" type="line" smooth="yes"/>
      <point x="153" y="372"/>
      <point x="233" y="450"/>
      <point x="366" y="450" type="curve" smooth="yes"/>
      <point x="475" y="450"/>
      <point x="536" y="406"/>
      <point x="536" y="279" type="curve" smooth="yes"/>
      <point x="536" y="-21" type="line" smooth="yes"/>
      <point x="536" y="-98"/>
      <point x="490" y="-144"/>
      <point x="403" y="-149" type="curve" smooth="yes"/>
      <point x="352" y="-152" type="line"/>
    </contour>
  </outline>
</glyph>
<glyph name="florin" format="2">
  <advance width="748"/>
  <unicode hex="0192"/>
  <outline>
    <contour>
      <point x="62" y="-188" type="line"/>
      <point x="108" y="-188" type="line" smooth="yes"/>
      <point x="230" y="-188"/>
      <point x="291" y="-129"/>
      <point x="319" y="-25" type="curve" smooth="yes"/>
      <point x="449" y="451" type="line"/>
      <point x="429" y="445" type="line"/>
      <point x="622" y="445" type="line"/>
      <point x="622" y="484" type="line"/>
      <point x="443" y="484" type="line"/>
      <point x="453" y="472" type="line"/>
      <point x="473" y="546" type="line" smooth="yes"/>
      <point x="499" y="641"/>
      <point x="551" y="672"/>
      <point x="637" y="672" type="curve" smooth="yes"/>
      <point x="684" y="672" type="line"/>
      <point x="684" y="713" type="line"/>
      <point x="638" y="713" type="line" smooth="yes"/>
      <point x="516" y="713"/>
      <point x="455" y="654"/>
      <point x="427" y="550" type="curve" smooth="yes"/>
      <point x="406" y="472" type="line"/>
      <point x="417" y="484" type="line"/>
      <point x="235" y="484" type="line"/>
      <point x="235" y="445" type="line"/>
      <point x="412" y="445" type="line"/>
      <point x="400" y="449" type="line"/>
      <point x="273" y="-21" type="line" smooth="yes"/>
      <point x="247" y="-116"/>
      <point x="195" y="-147"/>
      <point x="109" y="-147" type="curve" smooth="yes"/>
      <point x="62" y="-147" type="line"/>
    </contour>
  </outline>
</glyph>
<glyph name="jdotless" format="2">
  <advance width="257"/>
  <unicode hex="0237"/>
  <anchor x="131" y="0" name="bottom"/>
  <anchor x="131" y="484" name="top"/>
  <outline>
    <contour>
      <point x="-74" y="-193" type="line"/>
      <point x="-20" y="-190" type="line" smooth="yes"/>
      <point x="91" y="-184"/>
      <point x="153" y="-122"/>
      <point x="153" y="-19" type="curve" smooth="yes"/>
      <point x="153" y="484" type="line"/>
      <point x="107" y="484" type="line"/>
      <point x="107" y="-21" type="line" smooth="yes"/>
      <point x="107" y="-98"/>
      <point x="61" y="-144"/>
      <point x="-26" y="-149" type="curve" smooth="yes"/>
      <point x="-77" y="-152" type="line"/>
    </contour>
  </outline>
</glyph>
<glyph name="dhook" format="2">
  <advance width="706"/>
  <unicode hex="0257"/>
  <outline>
    <contour>
      <point x="335" y="-8" type="curve" smooth="yes"/>
      <point x="449" y="-8"/>
      <point x="539" y="44"/>
      <point x="566" y="126" type="curve"/>
      <point x="553" y="126" type="line"/>
      <point x="553" y="0" type="line"/>
      <point x="599" y="0" type="line"/>
      <point x="599" y="559" type="line" smooth="yes"/>
      <point x="599" y="632"/>
      <point x="643" y="672"/>
      <point x="731" y="672" type="curve" smooth="yes"/>
      <point x="746" y="672"/>
      <point x="756" y="671"/>
      <point x="777" y="666" type="curve"/>
      <point x="783" y="706" type="line"/>
      <point x="765" y="711"/>
      <point x="748" y="713"/>
      <point x="726" y="713" type="curve" smooth="yes"/>
      <point x="615" y="713"/>
      <point x="553" y="657"/>
      <point x="553" y="557" type="curve" smooth="yes"/>
      <point x="553" y="358" type="line"/>
      <point x="566" y="358" type="line"/>
      <point x="539" y="440"/>
      <point x="449" y="492"/>
      <point x="335" y="492" type="curve" smooth="yes"/>
      <point x="172" y="492"/>
      <point x="66" y="394"/>
      <point x="66" y="242" type="curve" smooth="yes"/>
      <point x="66" y="90"/>
      <point x="172" y="-8"/>
    </contour>
    <contour>
      <point x="334" y="34" type="curve" smooth="yes"/>
      <point x="198" y="34"/>
      <point x="114" y="114"/>
      <point x="114" y="242" type="curve" smooth="yes"/>
      <point x="114" y="370"/>
      <point x="198" y="450"/>
      <point x="334" y="450" type="curve" smooth="yes"/>
      <point x="470" y="450"/>
      <point x="554" y="370"/>
      <point x="554" y="242" type="curve" smooth="yes"/>
      <point x="554" y="114"/>
      <point x="470" y="34"/>
    </contour>
  </outline>
</glyph>
<glyph name="schwa" format="2">
  <advance width="647"/>
  <unicode hex="0259"/>
  <outline>
    <contour>
      <point x="302" y="-8" type="curve" smooth="yes"/>
      <point x="468" y="-8"/>
      <point x="581" y="93"/>
      <point x="581" y="246" type="curve" smooth="yes"/>
      <point x="581" y="399"/>
      <point x="469" y="492"/>
      <point x="296" y="492" type="curve" smooth="yes"/>
      <point x="199" y="492"/>
      <point x="111" y="463"/>
      <point x="67" y="418" type="curve"/>
      <point x="88" y="382" type="line"/>
      <point x="143" y="429"/>
      <point x="207" y="450"/>
      <point x="291" y="450" type="curve" smooth="yes"/>
      <point x="446" y="450"/>
      <point x="533" y="376"/>
      <point x="533" y="244" type="curve" smooth="yes"/>
      <point x="533" y="238" type="line" smooth="yes"/>
      <point x="533" y="114"/>
      <point x="445" y="32"/>
      <point x="303" y="32" type="curve" smooth="yes"/>
      <point x="174" y="32"/>
      <point x="100" y="100"/>
      <point x="100" y="224" type="curve"/>
      <point x="79" y="212" type="line"/>
      <point x="553" y="212" type="line"/>
      <point x="553" y="251" type="line"/>
      <point x="57" y="251" type="line"/>
      <point x="57" y="224" type="line" smooth="yes"/>
      <point x="57" y="77"/>
      <point x="149" y="-8"/>
    </contour>
  </outline>
</glyph>
<glyph name="apostrophemod" format="2">
  <advance width="300"/>
  <unicode hex="02BC"/>
  <outline>
    <contour>
      <point x="139" y="569" type="line"/>
      <point x="173" y="599"/>
      <point x="190" y="634"/>
      <point x="190" y="686" type="curve" smooth="yes"/>
      <point x="190" y="743" type="line"/>
      <point x="114" y="743" type="line"/>
      <point x="114" y="669" type="line"/>
      <point x="161" y="669" type="line"/>
      <point x="146" y="676" type="line"/>
      <point x="146" y="640"/>
      <point x="136" y="619"/>
      <point x="111" y="592" type="curve"/>
    </contour>
  </outline>
</glyph>
<glyph name="ringhalfright" format="2">
  <advance width="500"/>
  <unicode hex="02BE"/>
  <anchor x="250" y="484" name="_top"/>
  <anchor x="250" y="685" name="top"/>
  <outline>
    <contour>
      <point x="250" y="554" type="line"/>
      <point x="311" y="554"/>
      <point x="357" y="593"/>
      <point x="357" y="650" type="curve" smooth="yes"/>
      <point x="357" y="708"/>
      <point x="312" y="747"/>
      <point x="250" y="747" type="curve"/>
      <point x="250" y="710" type="line"/>
      <point x="287" y="710"/>
      <point x="316" y="687"/>
      <point x="316" y="650" type="curve" smooth="yes"/>
      <point x="316" y="614"/>
      <point x="285" y="590"/>
      <point x="250" y="590" type="curve"/>
    </contour>
  </outline>
</glyph>
<glyph name="firsttonechinese" format="2">
  <advance width="500"/>
  <unicode hex="02C9"/>
  <anchor x="250" y="484" name="_top"/>
  <anchor x="250" y="685" name="top"/>
  <outline>
    <contour>
      <point x="76" y="630" type="line"/>
      <point x="424" y="630" type="line"/>
      <point x="424" y="672" type="line"/>
      <point x="76" y="672" type="line"/>
    </contour>
  </outline>
</glyph>
<glyph name="circumflexcomb" format="2">
  <unicode hex="0302"/>
  <anchor x="0" y="484" name="_top"/>
  <anchor x="0" y="685" name="top"/>
  <outline>
    <contour>
      <point x="-164" y="549" type="line"/>
      <point x="-124" y="549" type="line"/>
      <point x="0" y="717" type="line"/>
      <point x="123" y="549" type="line"/>
      <point x="163" y="549" type="line"/>
      <point x="27" y="757" type="line"/>
      <point x="-28" y="757" type="line"/>
    </contour>
  </outline>
</glyph>
<glyph name="tildecomb" format="2">
  <unicode hex="0303"/>
  <anchor x="0" y="484" name="_top"/>
  <anchor x="0" y="685" name="top"/>
  <outline>
    <contour>
      <point x="-167" y="599" type="line"/>
      <point x="-155" y="663"/>
      <point x="-132" y="692"/>
      <point x="-94" y="692" type="curve" smooth="yes"/>
      <point x="-62" y="692"/>
      <point x="-39" y="672"/>
      <point x="-14" y="651" type="curve" smooth="yes"/>
      <point x="15" y="627"/>
      <point x="45" y="601"/>
      <point x="93" y="601" type="curve" smooth="yes"/>
      <point x="156" y="601"/>
      <point x="198" y="647"/>
      <point x="207" y="730" type="curve"/>
      <point x="167" y="732" type="line"/>
      <point x="155" y="666"/>
      <point x="132" y="639"/>
      <point x="94" y="639" type="curve" smooth="yes"/>
      <point x="62" y="639"/>
      <point x="38" y="659"/>
      <point x="14" y="680" type="curve" smooth="yes"/>
      <point x="-15" y="704"/>
      <point x="-45" y="730"/>
      <point x="-92" y="730" type="curve" smooth="yes"/>
      <point x="-154" y="730"/>
      <point x="-196" y="683"/>
      <point x="-207" y="601" type="curve"/>
    </contour>
  </outline>
</glyph>
<glyph name="hookabovecomb" format="2">
  <unicode hex="0309"/>
  <anchor x="0" y="484" name="_top"/>
  <anchor x="0" y="685" name="top"/>
  <outline>
    <contour>
      <point x="-21" y="549" type="line"/>
      <point x="20" y="549" type="line"/>
      <point x="20" y="564" type="line" smooth="yes"/>
      <point x="20" y="623"/>
      <point x="113" y="622"/>
      <point x="113" y="688" type="curve" smooth="yes"/>
      <point x="113" y="731"/>
      <point x="74" y="754"/>
      <point x="2" y="754" type="curve" smooth="yes"/>
      <point x="-36" y="754"/>
      <point x="-69" y="747"/>
      <point x="-93" y="734" type="curve"/>
      <point x="-82" y="702" type="line"/>
      <point x="-53" y="713"/>
      <point x="-29" y="718"/>
      <point x="-2" y="718" type="curve" smooth="yes"/>
      <point x="45" y="718"/>
      <point x="67" y="707"/>
      <point x="67" y="685" type="curve" smooth="yes"/>
      <point x="67" y="642"/>
      <point x="-21" y="635"/>
      <point x="-21" y="569" type="curve" smooth="yes"/>
    </contour>
  </outline>
</glyph>
<glyph name="hungarumlautcomb" format="2">
  <unicode hex="030B"/>
  <anchor x="0" y="484" name="_top"/>
  <anchor x="0" y="685" name="top"/>
  <outline>
    <contour>
      <point x="51" y="549" type="line"/>
      <point x="82" y="549" type="line"/>
      <point x="180" y="757" type="line"/>
      <point x="124" y="757" type="line"/>
    </contour>
    <contour>
      <point x="-82" y="549" type="line"/>
      <point x="-52" y="549" type="line"/>
      <point x="46" y="757" type="line"/>
      <point x="-9" y="757" type="line"/>
    </contour>
  </outline>
</glyph>
<glyph name="breveinvertedcomb" format="2">
  <unicode hex="0311"/>
  <anchor x="0" y="484" name="_top"/>
  <anchor x="0" y="685" name="top"/>
  <outline>
    <contour>
      <point x="-141" y="547" type="line"/>
      <point x="-132" y="657"/>
      <point x="-88" y="708"/>
      <point x="-1" y="708" type="curve" smooth="yes"/>
      <point x="86" y="708"/>
      <point x="130" y="657"/>
      <point x="139" y="547" type="curve"/>
      <point x="178" y="552" type="line"/>
      <point x="166" y="682"/>
      <point x="105" y="746"/>
      <point x="-1" y="746" type="curve" smooth="yes"/>
      <point x="-107" y="746"/>
      <point x="-168" y="682"/>
      <point x="-180" y="552" type="curve"/>
    </contour>
  </outline>
</glyph>
<glyph name="dieresisbelowcomb" format="2">
  <unicode hex="0324"/>
  <anchor x="0" y="0" name="_bottom"/>
  <anchor x="0" y="-170" name="bottom"/>
  <outline>
    <contour>
      <point x="66" y="-175" type="line"/>
      <point x="136" y="-175" type="line"/>
      <point x="136" y="-109" type="line"/>
      <point x="66" y="-109" type="line"/>
    </contour>
    <contour>
      <point x="-136" y="-175" type="line"/>
      <point x="-66" y="-175" type="line"/>
      <point x="-66" y="-109" type="line"/>
      <point x="-136" y="-109" type="line"/>
    </contour>
  </outline>
</glyph>
<glyph name="commaaccentcomb" format="2">
  <unicode hex="0326"/>
  <anchor x="0" y="0" name="_bottom"/>
  <anchor x="0" y="-170" name="bottom"/>
  <outline>
    <contour>
      <point x="-12" y="-264" type="line"/>
      <point x="23" y="-233"/>
      <point x="39" y="-196"/>
      <point x="39" y="-142" type="curve" smooth="yes"/>
      <point x="39" y="-85" type="line"/>
      <point x="-37" y="-85" type="line"/>
      <point x="-37" y="-159" type="line"/>
      <point x="10" y="-159" type="line"/>
      <point x="-5" y="-152" type="line"/>
      <point x="-5" y="-190"/>
      <point x="-14" y="-213"/>
      <point x="-40" y="-241" type="curve"/>
    </contour>
  </outline>
</glyph>
<glyph name="strokeshortcomb" format="2">
  <unicode hex="0335"/>
  <anchor x="0" y="542" name="_stroke"/>
  <outline>
    <contour>
      <point x="-206" y="522" type="line"/>
      <point x="206" y="522" type="line"/>
      <point x="206" y="561" type="line"/>
      <point x="-206" y="561" type="line"/>
    </contour>
  </outline>
</glyph>
<glyph name="Delta" format="2">
  <advance width="884"/>
  <unicode hex="0394"/>
  <outline>
    <contour>
      <point x="56" y="0" type="line"/>
      <point x="828" y="0" type="line"/>
      <point x="828" y="32" type="line"/>
      <point x="467" y="705" type="line"/>
      <point x="421" y="705" type="line"/>
      <point x="56" y="32" type="line"/>
    </contour>
    <contour>
      <point x="443" y="660" type="line"/>
      <point x="445" y="660" type="line"/>
      <point x="792" y="11" type="line"/>
      <point x="792" y="42" type="line"/>
      <point x="92" y="42" type="line"/>
      <point x="92" y="11" type="line"/>
    </contour>
  </outline>
</glyph>
<glyph name="Sigma" format="2">
  <advance width="748"/>
  <unicode hex="03A3"/>
  <outline>
    <contour>
      <point x="69" y="-180" type="line"/>
      <point x="679" y="-180" type="line"/>
      <point x="679" y="-138" type="line"/>
      <point x="118" y="-138" type="line"/>
      <point x="118" y="-153" type="line"/>
      <point x="467" y="245" type="line"/>
      <point x="467" y="280" type="line"/>
      <point x="118" y="678" type="line"/>
      <point x="118" y="663" type="line"/>
      <point x="679" y="663" type="line"/>
      <point x="679" y="705" type="line"/>
      <point x="69" y="705" type="line"/>
      <point x="69" y="671" type="line"/>
      <point x="434" y="252" type="line"/>
      <point x="434" y="273" type="line"/>
      <point x="69" y="-146" type="line"/>
    </contour>
  </outline>
</glyph>
<glyph name="Omega" format="2">
  <advance width="938"/>
  <unicode hex="03A9"/>
  <outline>
    <contour>
      <point x="52" y="0" type="line"/>
      <point x="392" y="0" type="line"/>
      <point x="392" y="39" type="line"/>
      <point x="203" y="137"/>
      <point x="119" y="248"/>
      <point x="119" y="394" type="curve" smooth="yes"/>
      <point x="119" y="568"/>
      <point x="237" y="669"/>
      <point x="469" y="669" type="curve" smooth="yes"/>
      <point x="702" y="669"/>
      <point x="819" y="567"/>
      <point x="819" y="394" type="curve" smooth="yes"/>
      <point x="819" y="248"/>
      <point x="735" y="137"/>
      <point x="546" y="39" type="curve"/>
      <point x="546" y="0" type="line"/>
      <point x="886" y="0" type="line"/>
      <point x="886" y="41" type="line"/>
      <point x="575" y="41" type="line"/>
      <point x="575" y="25" type="line"/>
      <point x="763" y="105"/>
      <point x="868" y="227"/>
      <point x="868" y="393" type="curve" smooth="yes"/>
      <point x="868" y="589"/>
      <point x="723" y="713"/>
      <point x="469" y="713" type="curve" smooth="yes"/>
      <point x="215" y="713"/>
      <point x="70" y="589"/>
      <point x="70" y="393" type="curve" smooth="yes"/>
      <point x="70" y="227"/>
      <point x="175" y="105"/>
      <point x="363" y="25" type="curve"/>
      <point x="363" y="41" type="line"/>
      <point x="52" y="41" type="line"/>
    </contour>
  </outline>
</glyph>
<glyph name="pi" format="2">
  <advance width="687"/>
  <unicode hex="03C0"/>
  <outline>
    <contour>
      <point x="604" y="-3" type="curve" smooth="yes"/>
      <point x="625" y="-3"/>
      <point x="649" y="-1"/>
      <point x="675" y="3" type="curve"/>
      <point x="675" y="44" type="line"/>
      <point x="651" y="40"/>
      <point x="628" y="39"/>
      <point x="608" y="39" type="curve" smooth="yes"/>
      <point x="517" y="39"/>
      <point x="476" y="78"/>
      <point x="476" y="165" type="curve" smooth="yes"/>
      <point x="476" y="445" type="line"/>
      <point x="636" y="445" type="line"/>
      <point x="636" y="484" type="line"/>
      <point x="22" y="484" type="line"/>
      <point x="22" y="445" type="line"/>
      <point x="154" y="445" type="line"/>
      <point x="151" y="274"/>
      <point x="120" y="121"/>
      <point x="62" y="0" type="curve"/>
      <point x="114" y="0" type="line"/>
      <point x="168" y="119"/>
      <point x="196" y="264"/>
      <point x="200" y="445" type="curve"/>
      <point x="430" y="445" type="line"/>
      <point x="430" y="166" type="line" smooth="yes"/>
      <point x="430" y="53"/>
      <point x="487" y="-3"/>
    </contour>
  </outline>
</glyph>
<glyph name="E-cy" format="2">
  <advance width="825"/>
  <unicode hex="0404"/>
  <anchor x="470" y="0" name="bottom"/>
  <anchor x="473" y="705" name="top"/>
  <outline>
    <contour>
      <point x="468" y="-8" type="curve" smooth="yes"/>
      <point x="592" y="-8"/>
      <point x="696" y="28"/>
      <point x="767" y="95" type="curve"/>
      <point x="740" y="133" type="line"/>
      <point x="663" y="66"/>
      <point x="580" y="36"/>
      <point x="469" y="36" type="curve" smooth="yes"/>
      <point x="255" y="36"/>
      <point x="132" y="148"/>
      <point x="130" y="346" type="curve"/>
      <point x="112" y="337" type="line"/>
      <point x="615" y="337" type="line"/>
      <point x="615" y="379" type="line"/>
      <point x="112" y="379" type="line"/>
      <point x="130" y="356" type="line"/>
      <point x="132" y="554"/>
      <point x="256" y="669"/>
      <point x="469" y="669" type="curve" smooth="yes"/>
      <point x="580" y="669"/>
      <point x="663" y="639"/>
      <point x="740" y="572" type="curve"/>
      <point x="767" y="610" type="line"/>
      <point x="696" y="677"/>
      <point x="593" y="713"/>
      <point x="470" y="713" type="curve" smooth="yes"/>
      <point x="227" y="713"/>
      <point x="81" y="578"/>
      <point x="81" y="352" type="curve" smooth="yes"/>
      <point x="81" y="127"/>
      <point x="226" y="-8"/>
    </contour>
  </outline>
</glyph>
<glyph name="Ge-cy" format="2">
  <advance width="648"/>
  <unicode hex="0413"/>
  <anchor x="117" y="0" name="bottomright"/>
  <anchor x="180" y="353" name="stroke"/>
  <anchor x="339" y="705" name="top"/>
  <outline>
    <contour>
      <point x="118" y="0" type="line"/>
      <point x="164" y="0" type="line"/>
      <point x="164" y="663" type="line"/>
      <point x="636" y="663" type="line"/>
      <point x="636" y="705" type="line"/>
      <point x="118" y="705" type="line"/>
    </contour>
  </outline>
</glyph>
<glyph name="Ze-cy" format="2">
  <advance width="799"/>
  <unicode hex="0417"/>
  <anchor x="397" y="0" name="bottom"/>
  <anchor x="397" y="705" name="top"/>
  <outline>
    <contour>
      <point x="389" y="-8" type="curve" smooth="yes"/>
      <point x="596" y="-8"/>
      <point x="713" y="65"/>
      <point x="713" y="191" type="curve" smooth="yes"/>
      <point x="713" y="286"/>
      <point x="646" y="348"/>
      <point x="523" y="366" type="curve"/>
      <point x="523" y="356" type="line"/>
      <point x="628" y="375"/>
      <point x="691" y="447"/>
      <point x="691" y="534" type="curve" smooth="yes"/>
      <point x="691" y="649"/>
      <point x="581" y="713"/>
      <point x="395" y="713" type="curve" smooth="yes"/>
      <point x="259" y="713"/>
      <point x="146" y="679"/>
      <point x="81" y="618" type="curve"/>
      <point x="106" y="581" type="line"/>
      <point x="176" y="641"/>
      <point x="267" y="669"/>
      <point x="393" y="669" type="curve" smooth="yes"/>
      <point x="554" y="669"/>
      <point x="642" y="623"/>
      <point x="642" y="529" type="curve" smooth="yes"/>
      <point x="642" y="439"/>
      <point x="561" y="378"/>
      <point x="429" y="378" type="curve" smooth="yes"/>
      <point x="212" y="378" type="line"/>
      <point x="212" y="335" type="line"/>
      <point x="431" y="335" type="line" smooth="yes"/>
      <point x="587" y="335"/>
      <point x="664" y="285"/>
      <point x="664" y="191" type="curve" smooth="yes"/>
      <point x="664" y="87"/>
      <point x="571" y="36"/>
      <point x="390" y="36" type="curve" smooth="yes"/>
      <point x="258" y="36"/>
      <point x="162" y="63"/>
      <point x="81" y="125" type="curve"/>
      <point x="57" y="86" type="line"/>
      <point x="130" y="25"/>
      <point x="249" y="-8"/>
    </contour>
  </outline>
</glyph>
<glyph name="Ka-cy" format="2">
  <advance width="751"/>
  <unicode hex="041A"/>
  <anchor x="681" y="0" name="bottomright"/>
  <anchor x="377" y="353" name="center"/>
  <anchor x="389" y="705" name="top"/>
  <anchor x="164" y="705" name="topleft"/>
  <outline>
    <contour>
      <point x="118" y="0" type="line"/>
      <point x="164" y="0" type="line"/>
      <point x="164" y="337" type="line"/>
      <point x="332" y="337" type="line" smooth="yes"/>
      <point x="439" y="337"/>
      <point x="502" y="303"/>
      <point x="557" y="210" type="curve" smooth="yes"/>
      <point x="682" y="0" type="line"/>
      <point x="735" y="0" type="line"/>
      <point x="589" y="240" type="line" smooth="yes"/>
      <point x="534" y="330"/>
      <point x="470" y="370"/>
      <point x="373" y="376" type="curve"/>
      <point x="385" y="359" type="line"/>
      <point x="685" y="705" type="line"/>
      <point x="629" y="705" type="line"/>
      <point x="335" y="364" type="line"/>
      <point x="361" y="379" type="line"/>
      <point x="164" y="379" type="line"/>
      <point x="164" y="705" type="line"/>
      <point x="118" y="705" type="line"/>
    </contour>
  </outline>
</glyph>
<glyph name="El-cy" format="2">
  <advance width="905"/>
  <unicode hex="041B"/>
  <anchor x="741" y="0" name="bottomright"/>
  <outline>
    <contour>
      <point x="39" y="-13" type="line"/>
      <point x="217" y="58"/>
      <point x="286" y="197"/>
      <point x="286" y="484" type="curve" smooth="yes"/>
      <point x="286" y="663" type="line"/>
      <point x="741" y="663" type="line"/>
      <point x="741" y="0" type="line"/>
      <point x="787" y="0" type="line"/>
      <point x="787" y="705" type="line"/>
      <point x="240" y="705" type="line"/>
      <point x="240" y="495" type="line" smooth="yes"/>
      <point x="240" y="218"/>
      <point x="182" y="94"/>
      <point x="21" y="28" type="curve"/>
    </contour>
  </outline>
</glyph>
<glyph name="Ef-cy" format="2">
  <advance width="998"/>
  <unicode hex="0424"/>
  <outline>
    <contour>
      <point x="476" y="-20" type="line"/>
      <point x="522" y="-20" type="line"/>
      <point x="522" y="71" type="line"/>
      <point x="505" y="57" type="line"/>
      <point x="549" y="57" type="line" smooth="yes"/>
      <point x="780" y="57"/>
      <point x="917" y="169"/>
      <point x="917" y="358" type="curve" smooth="yes"/>
      <point x="917" y="549"/>
      <point x="784" y="658"/>
      <point x="549" y="658" type="curve" smooth="yes"/>
      <point x="505" y="658" type="line"/>
      <point x="522" y="644" type="line"/>
      <point x="522" y="730" type="line"/>
      <point x="476" y="730" type="line"/>
      <point x="476" y="644" type="line"/>
      <point x="493" y="658" type="line"/>
      <point x="449" y="658" type="line" smooth="yes"/>
      <point x="214" y="658"/>
      <point x="81" y="549"/>
      <point x="81" y="358" type="curve" smooth="yes"/>
      <point x="81" y="169"/>
      <point x="218" y="57"/>
      <point x="449" y="57" type="curve" smooth="yes"/>
      <point x="493" y="57" type="line"/>
      <point x="476" y="71" type="line"/>
    </contour>
    <contour>
      <point x="476" y="85" type="line"/>
      <point x="493" y="99" type="line"/>
      <point x="436" y="99" type="line" smooth="yes"/>
      <point x="245" y="99"/>
      <point x="130" y="195"/>
      <point x="130" y="360" type="curve" smooth="yes"/>
      <point x="130" y="522"/>
      <point x="240" y="616"/>
      <point x="436" y="616" type="curve" smooth="yes"/>
      <point x="493" y="616" type="line"/>
      <point x="476" y="631" type="line"/>
    </contour>
    <contour>
      <point x="522" y="85" type="line"/>
      <point x="522" y="631" type="line"/>
      <point x="505" y="616" type="line"/>
      <point x="562" y="616" type="line" smooth="yes"/>
      <point x="758" y="616"/>
      <point x="868" y="522"/>
      <point x="868" y="360" type="curve" smooth="yes"/>
      <point x="868" y="195"/>
      <point x="753" y="99"/>
      <point x="562" y="99" type="curve" smooth="yes"/>
      <point x="505" y="99" type="line"/>
    </contour>
  </outline>
</glyph>
<glyph name="Che-cy" format="2">
  <advance width="811"/>
  <unicode hex="0427"/>
  <anchor x="647" y="0" name="bottomright"/>
  <anchor x="375" y="295" name="center"/>
  <anchor x="377" y="705" name="top"/>
  <outline>
    <contour>
      <point x="647" y="0" type="line"/>
      <point x="693" y="0" type="line"/>
      <point x="693" y="705" type="line"/>
      <point x="647" y="705" type="line"/>
      <point x="647" y="364" type="line"/>
      <point x="581" y="334"/>
      <point x="498" y="318"/>
      <point x="408" y="318" type="curve" smooth="yes"/>
      <point x="208" y="318"/>
      <point x="120" y="388"/>
      <point x="120" y="548" type="curve" smooth="yes"/>
      <point x="120" y="705" type="line"/>
      <point x="74" y="705" type="line"/>
      <point x="74" y="542" type="line" smooth="yes"/>
      <point x="74" y="361"/>
      <point x="181" y="274"/>
      <point x="399" y="274" type="curve" smooth="yes"/>
      <point x="496" y="274"/>
      <point x="588" y="291"/>
      <point x="647" y="318" type="curve"/>
    </contour>
  </outline>
</glyph>
<glyph name="Ereversed-cy" format="2">
  <advance width="825"/>
  <unicode hex="042D"/>
  <anchor x="360" y="0" name="bottom"/>
  <anchor x="360" y="705" name="top"/>
  <outline>
    <contour>
      <point x="357" y="-8" type="curve" smooth="yes"/>
      <point x="599" y="-8"/>
      <point x="744" y="127"/>
      <point x="744" y="352" type="curve" smooth="yes"/>
      <point x="744" y="578"/>
      <point x="597" y="713"/>
      <point x="359" y="713" type="curve" smooth="yes"/>
      <point x="235" y="713"/>
      <point x="129" y="676"/>
      <point x="58" y="610" type="curve"/>
      <point x="85" y="572" type="line"/>
      <point x="162" y="638"/>
      <point x="249" y="669"/>
      <point x="356" y="669" type="curve" smooth="yes"/>
      <point x="569" y="669"/>
      <point x="693" y="554"/>
      <point x="695" y="356" type="curve"/>
      <point x="713" y="379" type="line"/>
      <point x="210" y="379" type="line"/>
      <point x="210" y="337" type="line"/>
      <point x="713" y="337" type="line"/>
      <point x="695" y="346" type="line"/>
      <point x="693" y="148"/>
      <point x="570" y="36"/>
      <point x="356" y="36" type="curve" smooth="yes"/>
      <point x="245" y="36"/>
      <point x="162" y="66"/>
      <point x="85" y="133" type="curve"/>
      <point x="58" y="95" type="line"/>
      <point x="129" y="28"/>
      <point x="233" y="-8"/>
    </contour>
  </outline>
</glyph>
<glyph name="be-cy" format="2">
  <advance width="668"/>
  <unicode hex="0431"/>
  <outline>
    <contour>
      <point x="334" y="-8" type="curve" smooth="yes"/>
      <point x="496" y="-8"/>
      <point x="602" y="90"/>
      <point x="602" y="242" type="curve" smooth="yes"/>
      <point x="602" y="393"/>
      <point x="497" y="492"/>
      <point x="337" y="492" type="curve" smooth="yes"/>
      <point x="222" y="492"/>
      <point x="136" y="441"/>
      <point x="105" y="355" type="curve"/>
      <point x="114" y="355" type="line"/>
      <point x="114" y="381" type="line" smooth="yes"/>
      <point x="114" y="510"/>
      <point x="183" y="586"/>
      <point x="327" y="620" type="curve" smooth="yes"/>
      <point x="564" y="676" type="line"/>
      <point x="549" y="717" type="line"/>
      <point x="325" y="664" type="line" smooth="yes"/>
      <point x="116" y="615"/>
      <point x="66" y="507"/>
      <point x="66" y="339" type="curve" smooth="yes"/>
      <point x="66" y="242" type="line" smooth="yes"/>
      <point x="66" y="90"/>
      <point x="172" y="-8"/>
    </contour>
    <contour>
      <point x="334" y="34" type="curve" smooth="yes"/>
      <point x="198" y="34"/>
      <point x="114" y="113"/>
      <point x="114" y="242" type="curve" smooth="yes"/>
      <point x="114" y="371"/>
      <point x="198" y="450"/>
      <point x="334" y="450" type="curve" smooth="yes"/>
      <point x="470" y="450"/>
      <point x="554" y="371"/>
      <point x="554" y="242" type="curve" smooth="yes"/>
      <point x="554" y="113"/>
      <point x="470" y="34"/>
    </contour>
  </outline>
</glyph>
<glyph name="ve-cy" format="2">
  <advance width="649"/>
  <unicode hex="0432"/>
  <outline>
    <contour>
      <point x="107" y="0" type="line"/>
      <point x="380" y="0" type="line" smooth="yes"/>
      <point x="508" y="0"/>
      <point x="585" y="50"/>
      <point x="585" y="132" type="curve" smooth="yes"/>
      <point x="585" y="202"/>
      <point x="526" y="252"/>
      <point x="418" y="252" type="curve"/>
      <point x="418" y="240" type="line"/>
      <point x="507" y="246"/>
      <point x="567" y="293"/>
      <point x="567" y="356" type="curve" smooth="yes"/>
      <point x="567" y="441"/>
      <point x="499" y="484"/>
      <point x="370" y="484" type="curve" smooth="yes"/>
      <point x="107" y="484" type="line"/>
    </contour>
    <contour>
      <point x="153" y="38" type="line"/>
      <point x="153" y="227" type="line"/>
      <point x="386" y="227" type="line" smooth="yes"/>
      <point x="482" y="227"/>
      <point x="537" y="194"/>
      <point x="537" y="133" type="curve" smooth="yes"/>
      <point x="537" y="72"/>
      <point x="482" y="38"/>
      <point x="386" y="38" type="curve" smooth="yes"/>
    </contour>
    <contour>
      <point x="153" y="265" type="line"/>
      <point x="153" y="446" type="line"/>
      <point x="376" y="446" type="line"/>
      <point x="466" y="446"/>
      <point x="519" y="413"/>
      <point x="519" y="356" type="curve" smooth="yes"/>
      <point x="519" y="299"/>
      <point x="466" y="265"/>
      <point x="376" y="265" type="curve" smooth="yes"/>
    </contour>
  </outline>
</glyph>
<glyph name="de-cy" format="2">
  <advance width="699"/>
  <unicode hex="0434"/>
  <outline>
    <contour>
      <point x="30" y="-130" type="line"/>
      <point x="72" y="-130" type="line"/>
      <point x="72" y="0" type="line"/>
      <point x="618" y="0" type="line"/>
      <point x="618" y="-130" type="line"/>
      <point x="660" y="-130" type="line"/>
      <point x="660" y="39" type="line"/>
      <point x="567" y="39" type="line"/>
      <point x="567" y="484" type="line"/>
      <point x="183" y="484" type="line"/>
      <point x="183" y="337" type="line" smooth="yes"/>
      <point x="183" y="203"/>
      <point x="153" y="109"/>
      <point x="88" y="39" type="curve"/>
      <point x="30" y="39" type="line"/>
    </contour>
    <contour>
      <point x="143" y="39" type="line"/>
      <point x="197" y="110"/>
      <point x="229" y="220"/>
      <point x="229" y="335" type="curve" smooth="yes"/>
      <point x="229" y="445" type="line"/>
      <point x="521" y="445" type="line"/>
      <point x="521" y="39" type="line"/>
    </contour>
  </outline>
</glyph>
<glyph name="ze-cy" format="2">
  <advance width="586"/>
  <unicode hex="0437"/>
  <anchor x="286" y="0" name="bottom"/>
  <anchor x="286" y="484" name="top"/>
  <outline>
    <contour>
      <point x="283" y="-8" type="curve" smooth="yes"/>
      <point x="435" y="-8"/>
      <point x="522" y="43"/>
      <point x="522" y="131" type="curve" smooth="yes"/>
      <point x="522" y="200"/>
      <point x="474" y="241"/>
      <point x="380" y="252" type="curve"/>
      <point x="382" y="245" type="line"/>
      <point x="455" y="258"/>
      <point x="502" y="306"/>
      <point x="502" y="367" type="curve" smooth="yes"/>
      <point x="502" y="447"/>
      <point x="424" y="492"/>
      <point x="285" y="492" type="curve" smooth="yes"/>
      <point x="185" y="492"/>
      <point x="105" y="470"/>
      <point x="58" y="429" type="curve"/>
      <point x="81" y="396" type="line"/>
      <point x="128" y="432"/>
      <point x="198" y="450"/>
      <point x="285" y="450" type="curve" smooth="yes"/>
      <point x="396" y="450"/>
      <point x="454" y="420"/>
      <point x="454" y="363" type="curve" smooth="yes"/>
      <point x="454" y="305"/>
      <point x="397" y="266"/>
      <point x="311" y="266" type="curve" smooth="yes"/>
      <point x="154" y="266" type="line"/>
      <point x="154" y="227" type="line"/>
      <point x="316" y="227" type="line" smooth="yes"/>
      <point x="419" y="227"/>
      <point x="474" y="194"/>
      <point x="474" y="133" type="curve" smooth="yes"/>
      <point x="474" y="67"/>
      <point x="410" y="34"/>
      <point x="284" y="34" type="curve" smooth="yes"/>
      <point x="190" y="34"/>
      <point x="122" y="54"/>
      <point x="64" y="98" type="curve"/>
      <point x="41" y="60" type="line"/>
      <point x="94" y="16"/>
      <point x="180" y="-8"/>
    </contour>
  </outline>
</glyph>
<glyph name="el-cy" format="2">
  <advance width="681"/>
  <unicode hex="043B"/>
  <anchor x="527" y="0" name="bottomright"/>
  <outline>
    <contour>
      <point x="55" y="-9" type="line"/>
      <point x="190" y="45"/>
      <point x="229" y="129"/>
      <point x="229" y="365" type="curve" smooth="yes"/>
      <point x="229" y="445" type="line"/>
      <point x="528" y="445" type="line"/>
      <point x="528" y="0" type="line"/>
      <point x="574" y="0" type="line"/>
      <point x="574" y="484" type="line"/>
      <point x="183" y="484" type="line"/>
      <point x="183" y="367" type="line" smooth="yes"/>
      <point x="183" y="148"/>
      <point x="154" y="82"/>
      <point x="33" y="30" type="curve"/>
    </contour>
  </outline>
</glyph>
<glyph name="em-cy" format="2">
  <advance width="782"/>
  <unicode hex="043C"/>
  <anchor x="632" y="0" name="bottomright"/>
  <outline>
    <contour>
      <point x="107" y="0" type="line"/>
      <point x="150" y="0" type="line"/>
      <point x="150" y="447" type="line"/>
      <point x="125" y="447" type="line"/>
      <point x="377" y="78" type="line"/>
      <point x="407" y="78" type="line"/>
      <point x="656" y="446" type="line"/>
      <point x="632" y="446" type="line"/>
      <point x="632" y="0" type="line"/>
      <point x="675" y="0" type="line"/>
      <point x="675" y="484" type="line"/>
      <point x="635" y="484" type="line"/>
      <point x="392" y="130" type="line"/>
      <point x="148" y="484" type="line"/>
      <point x="107" y="484" type="line"/>
    </contour>
  </outline>
</glyph>
<glyph name="tse-cy" format="2">
  <advance width="707"/>
  <unicode hex="0446"/>
  <outline>
    <contour>
      <point x="626" y="-130" type="line"/>
      <point x="668" y="-130" type="line"/>
      <point x="668" y="39" type="line"/>
      <point x="575" y="39" type="line"/>
      <point x="575" y="484" type="line"/>
      <point x="529" y="484" type="line"/>
      <point x="529" y="39" type="line"/>
      <point x="153" y="39" type="line"/>
      <point x="153" y="484" type="line"/>
      <point x="107" y="484" type="line"/>
      <point x="107" y="0" type="line"/>
      <point x="626" y="0" type="line"/>
    </contour>
  </outline>
</glyph>
<glyph name="che-cy" format="2">
  <advance width="655"/>
  <unicode hex="0447"/>
  <anchor x="499" y="0" name="bottomright"/>
  <anchor x="314" y="200" name="center"/>
  <anchor x="314" y="484" name="top"/>
  <outline>
    <contour>
      <point x="502" y="0" type="line"/>
      <point x="548" y="0" type="line"/>
      <point x="548" y="484" type="line"/>
      <point x="502" y="484" type="line"/>
      <point x="502" y="256" type="line"/>
      <point x="445" y="227"/>
      <point x="387" y="212"/>
      <point x="322" y="212" type="curve" smooth="yes"/>
      <point x="202" y="212"/>
      <point x="127" y="246"/>
      <point x="127" y="366" type="curve" smooth="yes"/>
      <point x="127" y="484" type="line"/>
      <point x="81" y="484" type="line"/>
      <point x="81" y="365" type="line" smooth="yes"/>
      <point x="81" y="231"/>
      <point x="157" y="170"/>
      <point x="317" y="170" type="curve" smooth="yes"/>
      <point x="387" y="170"/>
      <point x="451" y="186"/>
      <point x="502" y="212" type="curve"/>
    </contour>
  </outline>
</glyph>
<glyph name="sha-cy" format="2">
  <advance width="948"/>
  <unicode hex="0448"/>
  <outline>
    <contour>
      <point x="107" y="0" type="line"/>
      <point x="841" y="0" type="line"/>
      <point x="841" y="484" type="line"/>
      <point x="795" y="484" type="line"/>
      <point x="795" y="39" type="line"/>
      <point x="497" y="39" type="line"/>
      <point x="497" y="484" type="line"/>
      <point x="451" y="484" type="line"/>
      <point x="451" y="39" type="line"/>
      <point x="153" y="39" type="line"/>
      <point x="153" y="484" type="line"/>
      <point x="107" y="484" type="line"/>
    </contour>
  </outline>
</glyph>
<glyph name="yeru-cy" format="2">
  <advance width="846"/>
  <unicode hex="044B"/>
  <anchor x="424" y="484" name="top"/>
  <outline>
    <contour>
      <point x="107" y="0" type="line"/>
      <point x="368" y="0" type="line" smooth="yes"/>
      <point x="513" y="0"/>
      <point x="586" y="51"/>
      <point x="586" y="153" type="curve" smooth="yes"/>
      <point x="586" y="254"/>
      <point x="514" y="302"/>
      <point x="368" y="302" type="curve" smooth="yes"/>
      <point x="153" y="302" type="line"/>
      <point x="153" y="484" type="line"/>
      <point x="107" y="484" type="line"/>
    </contour>
    <contour>
      <point x="153" y="38" type="line"/>
      <point x="153" y="264" type="line"/>
      <point x="368" y="264" type="line" smooth="yes"/>
      <point x="485" y="264"/>
      <point x="538" y="230"/>
      <point x="538" y="152" type="curve" smooth="yes"/>
      <point x="538" y="73"/>
      <point x="484" y="38"/>
      <point x="368" y="38" type="curve" smooth="yes"/>
    </contour>
    <contour>
      <point x="693" y="0" type="line"/>
      <point x="739" y="0" type="line"/>
      <point x="739" y="484" type="line"/>
      <point x="693" y="484" type="line"/>
    </contour>
  </outline>
</glyph>
<glyph name="softsign-cy" format="2">
  <advance width="643"/>
  <unicode hex="044C"/>
  <outline>
    <contour>
      <point x="107" y="0" type="line"/>
      <point x="368" y="0" type="line" smooth="yes"/>
      <point x="513" y="0"/>
      <point x="586" y="51"/>
      <point x="586" y="153" type="curve" smooth="yes"/>
      <point x="586" y="254"/>
      <point x="514" y="302"/>
      <point x="368" y="302" type="curve" smooth="yes"/>
      <point x="153" y="302" type="line"/>
      <point x="153" y="484" type="line"/>
      <point x="107" y="484" type="line"/>
    </contour>
    <contour>
      <point x="153" y="38" type="line"/>
      <point x="153" y="264" type="line"/>
      <point x="368" y="264" type="line" smooth="yes"/>
      <point x="485" y="264"/>
      <point x="538" y="230"/>
      <point x="538" y="152" type="curve" smooth="yes"/>
      <point x="538" y="73"/>
      <point x="484" y="38"/>
      <point x="368" y="38" type="curve" smooth="yes"/>
    </contour>
  </outline>
</glyph>
<glyph name="ereversed-cy" format="2">
  <advance width="615"/>
  <unicode hex="044D"/>
  <anchor x="291" y="484" name="top"/>
  <outline>
    <contour>
      <point x="278" y="-8" type="curve" smooth="yes"/>
      <point x="443" y="-8"/>
      <point x="549" y="90"/>
      <point x="549" y="242" type="curve" smooth="yes"/>
      <point x="549" y="394"/>
      <point x="443" y="492"/>
      <point x="278" y="492" type="curve" smooth="yes"/>
      <point x="194" y="492"/>
      <point x="117" y="466"/>
      <point x="69" y="421" type="curve"/>
      <point x="93" y="386" type="line"/>
      <point x="143" y="428"/>
      <point x="208" y="450"/>
      <point x="280" y="450" type="curve" smooth="yes"/>
      <point x="414" y="450"/>
      <point x="499" y="372"/>
      <point x="501" y="247" type="curve"/>
      <point x="512" y="268" type="line"/>
      <point x="173" y="268" type="line"/>
      <point x="173" y="229" type="line"/>
      <point x="512" y="229" type="line"/>
      <point x="501" y="237" type="line"/>
      <point x="499" y="111"/>
      <point x="415" y="34"/>
      <point x="280" y="34" type="curve" smooth="yes"/>
      <point x="206" y="34"/>
      <point x="141" y="56"/>
      <point x="93" y="99" type="curve"/>
      <point x="69" y="63" type="line"/>
      <point x="120" y="17"/>
      <point x="194" y="-8"/>
    </contour>
  </outline>
</glyph>
<glyph name="iu-cy" format="2">
  <advance width="894"/>
  <unicode hex="044E"/>
  <outline>
    <contour>
      <point x="560" y="-8" type="curve" smooth="yes"/>
      <point x="723" y="-8"/>
      <point x="828" y="91"/>
      <point x="828" y="242" type="curve" smooth="yes"/>
      <point x="828" y="393"/>
      <point x="723" y="492"/>
      <point x="560" y="492" type="curve" smooth="yes"/>
      <point x="408" y="492"/>
      <point x="306" y="406"/>
      <point x="293" y="271" type="curve"/>
      <point x="153" y="271" type="line"/>
      <point x="153" y="484" type="line"/>
      <point x="107" y="484" type="line"/>
      <point x="107" y="0" type="line"/>
      <point x="153" y="0" type="line"/>
      <point x="153" y="231" type="line"/>
      <point x="292" y="231" type="line"/>
      <point x="297" y="86"/>
      <point x="401" y="-8"/>
    </contour>
    <contour>
      <point x="560" y="34" type="curve" smooth="yes"/>
      <point x="423" y="34"/>
      <point x="340" y="114"/>
      <point x="340" y="242" type="curve" smooth="yes"/>
      <point x="340" y="370"/>
      <point x="423" y="450"/>
      <point x="560" y="450" type="curve" smooth="yes"/>
      <point x="697" y="450"/>
      <point x="780" y="370"/>
      <point x="780" y="242" type="curve" smooth="yes"/>
      <point x="780" y="114"/>
      <point x="697" y="34"/>
    </contour>
  </outline>
</glyph>
<glyph name="ia-cy" format="2">
  <advance width="639"/>
  <unicode hex="044F"/>
  <outline>
    <contour>
      <point x="60" y="0" type="line"/>
      <point x="116" y="0" type="line"/>
      <point x="201" y="118" type="line" smooth="yes"/>
      <point x="243" y="177"/>
      <point x="290" y="199"/>
      <point x="371" y="199" type="curve" smooth="yes"/>
      <point x="486" y="199" type="line"/>
      <point x="486" y="0" type="line"/>
      <point x="532" y="0" type="line"/>
      <point x="532" y="484" type="line"/>
      <point x="290" y="484" type="line" smooth="yes"/>
      <point x="157" y="484"/>
      <point x="85" y="435"/>
      <point x="85" y="345" type="curve" smooth="yes"/>
      <point x="85" y="252"/>
      <point x="157" y="201"/>
      <point x="299" y="201" type="curve"/>
      <point x="310" y="210" type="line"/>
      <point x="304" y="210" type="line" smooth="yes"/>
      <point x="234" y="210"/>
      <point x="195" y="187"/>
      <point x="167" y="148" type="curve" smooth="yes"/>
    </contour>
    <contour>
      <point x="292" y="237" type="line" smooth="yes"/>
      <point x="191" y="237"/>
      <point x="133" y="270"/>
      <point x="133" y="343" type="curve" smooth="yes"/>
      <point x="133" y="412"/>
      <point x="186" y="446"/>
      <point x="292" y="446" type="curve" smooth="yes"/>
      <point x="486" y="446" type="line"/>
      <point x="486" y="237" type="line"/>
    </contour>
  </outline>
</glyph>
<glyph name="dje-cy" format="2">
  <advance width="687"/>
  <unicode hex="0452"/>
  <outline>
    <contour>
      <point x="366" y="-185" type="line"/>
      <point x="527" y="-157"/>
      <point x="582" y="-99"/>
      <point x="582" y="42" type="curve" smooth="yes"/>
      <point x="582" y="282" type="line" smooth="yes"/>
      <point x="582" y="442"/>
      <point x="494" y="492"/>
      <point x="365" y="492" type="curve" smooth="yes"/>
      <point x="250" y="492"/>
      <point x="179" y="441"/>
      <point x="143" y="362" type="curve"/>
      <point x="153" y="362" type="line"/>
      <point x="153" y="560" type="line"/>
      <point x="397" y="560" type="line"/>
      <point x="397" y="599" type="line"/>
      <point x="153" y="599" type="line"/>
      <point x="153" y="705" type="line"/>
      <point x="107" y="705" type="line"/>
      <point x="107" y="599" type="line"/>
      <point x="-16" y="599" type="line"/>
      <point x="-16" y="560" type="line"/>
      <point x="107" y="560" type="line"/>
      <point x="107" y="0" type="line"/>
      <point x="153" y="0" type="line"/>
      <point x="153" y="256" type="line" smooth="yes"/>
      <point x="153" y="372"/>
      <point x="233" y="450"/>
      <point x="366" y="450" type="curve" smooth="yes"/>
      <point x="475" y="450"/>
      <point x="536" y="406"/>
      <point x="536" y="279" type="curve" smooth="yes"/>
      <point x="536" y="39" type="line" smooth="yes"/>
      <point x="536" y="-79"/>
      <point x="496" y="-121"/>
      <point x="357" y="-145" type="curve"/>
    </contour>
  </outline>
</glyph>
<glyph name="dzhe-cy" format="2">
  <advance width="695"/>
  <unicode hex="045F"/>
  <outline>
    <contour>
      <point x="326" y="-130" type="line"/>
      <point x="368" y="-130" type="line"/>
      <point x="368" y="0" type="line"/>
      <point x="588" y="0" type="line"/>
      <point x="588" y="484" type="line"/>
      <point x="542" y="484" type="line"/>
      <point x="542" y="39" type="line"/>
      <point x="153" y="39" type="line"/>
      <point x="153" y="484" type="line"/>
      <point x="107" y="484" type="line"/>
      <point x="107" y="0" type="line"/>
      <point x="326" y="0" type="line"/>
    </contour>
  </outline>
</glyph>
<glyph name="Izhitsa-cy" format="2">
  <advance width="887"/>
  <unicode hex="0474"/>
  <outline>
    <contour>
      <point x="385" y="0" type="line"/>
      <point x="437" y="0" type="line"/>
      <point x="715" y="533" type="line" smooth="yes"/>
      <point x="772" y="642"/>
      <point x="821" y="673"/>
      <point x="937" y="673" type="curve"/>
      <point x="932" y="713" type="line"/>
      <point x="777" y="713"/>
      <point x="732" y="661"/>
      <point x="668" y="539" type="curve" smooth="yes"/>
      <point x="401" y="27" type="line"/>
      <point x="423" y="27" type="line"/>
      <point x="59" y="705" type="line"/>
      <point x="7" y="705" type="line"/>
    </contour>
  </outline>
</glyph>
<glyph name="Iishorttail-cy" format="2">
  <advance width="909"/>
  <unicode hex="048A"/>
  <outline>
    <contour>
      <point x="797" y="-150" type="line"/>
      <point x="839" y="-150" type="line"/>
      <point x="916" y="42" type="line"/>
      <point x="788" y="42" type="line"/>
      <point x="788" y="705" type="line"/>
      <point x="746" y="705" type="line"/>
      <point x="148" y="51" type="line"/>
      <point x="162" y="45" type="line"/>
      <point x="162" y="705" type="line"/>
      <point x="118" y="705" type="line"/>
      <point x="118" y="0" type="line"/>
      <point x="160" y="0" type="line"/>
      <point x="758" y="655" type="line"/>
      <point x="744" y="661" type="line"/>
      <point x="744" y="0" type="line"/>
      <point x="859" y="0" type="line"/>
    </contour>
    <contour>
      <point x="453" y="760" type="curve" smooth="yes"/>
      <point x="569" y="760"/>
      <point x="645" y="799"/>
      <point x="677" y="885" type="curve"/>
      <point x="642" y="898" type="line"/>
      <point x="616" y="829"/>
      <point x="551" y="798"/>
      <point x="453" y="798" type="curve" smooth="yes"/>
      <point x="355" y="798"/>
      <point x="290" y="829"/>
      <point x="264" y="898" type="curve"/>
      <point x="229" y="885" type="line"/>
      <point x="261" y="799"/>
      <point x="337" y="760"/>
    </contour>
  </outline>
</glyph>
<glyph name="Gheupturn-cy" format="2">
  <advance width="648"/>
  <unicode hex="0490"/>
  <outline>
    <contour>
      <point x="118" y="0" type="line"/>
      <point x="164" y="0" type="line"/>
      <point x="164" y="663" type="line"/>
      <point x="636" y="663" type="line"/>
      <point x="636" y="855" type="line"/>
      <point x="592" y="855" type="line"/>
      <point x="592" y="705" type="line"/>
      <point x="118" y="705" type="line"/>
    </contour>
  </outline>
</glyph>
<glyph name="gheupturn-cy" format="2">
  <advance width="507"/>
  <unicode hex="0491"/>
  <outline>
    <contour>
      <point x="107" y="0" type="line"/>
      <point x="153" y="0" type="line"/>
      <point x="153" y="444" type="line"/>
      <point x="497" y="444" type="line"/>
      <point x="497" y="602" type="line"/>
      <point x="455" y="602" type="line"/>
      <point x="455" y="484" type="line"/>
      <point x="107" y="484" type="line"/>
    </contour>
  </outline>
</glyph>
<glyph name="ghemiddlehook-cy" format="2">
  <advance width="650"/>
  <unicode hex="0495"/>
  <outline>
    <contour>
      <point x="372" y="-185" type="line"/>
      <point x="539" y="-156"/>
      <point x="588" y="-97"/>
      <point x="588" y="39" type="curve" smooth="yes"/>
      <point x="588" y="128" type="line" smooth="yes"/>
      <point x="588" y="255"/>
      <point x="517" y="322"/>
      <point x="375" y="322" type="curve" smooth="yes"/>
      <point x="255" y="322"/>
      <point x="172" y="274"/>
      <point x="138" y="188" type="curve"/>
      <point x="153" y="188" type="line"/>
      <point x="153" y="444" type="line"/>
      <point x="497" y="444" type="line"/>
      <point x="497" y="484" type="line"/>
      <point x="107" y="484" type="line"/>
      <point x="107" y="0" type="line"/>
      <point x="153" y="0" type="line"/>
      <point x="153" y="99" type="line" smooth="yes"/>
      <point x="153" y="205"/>
      <point x="237" y="280"/>
      <point x="375" y="280" type="curve" smooth="yes"/>
      <point x="482" y="280"/>
      <point x="542" y="236"/>
      <point x="542" y="124" type="curve" smooth="yes"/>
      <point x="542" y="36" type="line" smooth="yes"/>
      <point x="542" y="-74"/>
      <point x="509" y="-120"/>
      <point x="363" y="-145" type="curve"/>
    </contour>
  </outline>
</glyph>
<glyph name="Zedescender-cy" format="2">
  <advance width="799"/>
  <unicode hex="0498"/>
  <outline>
    <contour>
      <point x="374" y="-150" type="line"/>
      <point x="419" y="-150" type="line"/>
      <point x="419" y="-7" type="line"/>
      <point x="607" y="-1"/>
      <point x="713" y="71"/>
      <point x="713" y="191" type="curve" smooth="yes"/>
      <point x="713" y="284"/>
      <point x="649" y="345"/>
      <point x="531" y="365" type="curve"/>
      <point x="532" y="358" type="line"/>
      <point x="632" y="379"/>
      <point x="691" y="449"/>
      <point x="691" y="534" type="curve" smooth="yes"/>
      <point x="691" y="649"/>
      <point x="581" y="713"/>
      <point x="395" y="713" type="curve" smooth="yes"/>
      <point x="259" y="713"/>
      <point x="146" y="679"/>
      <point x="81" y="618" type="curve"/>
      <point x="106" y="581" type="line"/>
      <point x="176" y="641"/>
      <point x="267" y="669"/>
      <point x="393" y="669" type="curve" smooth="yes"/>
      <point x="554" y="669"/>
      <point x="642" y="623"/>
      <point x="642" y="529" type="curve" smooth="yes"/>
      <point x="642" y="439"/>
      <point x="561" y="378"/>
      <point x="429" y="378" type="curve" smooth="yes"/>
      <point x="212" y="378" type="line"/>
      <point x="212" y="335" type="line"/>
      <point x="431" y="335" type="line" smooth="yes"/>
      <point x="587" y="335"/>
      <point x="664" y="285"/>
      <point x="664" y="191" type="curve" smooth="yes"/>
      <point x="664" y="87"/>
      <point x="571" y="36"/>
      <point x="390" y="36" type="curve" smooth="yes"/>
      <point x="258" y="36"/>
      <point x="162" y="63"/>
      <point x="81" y="125" type="curve"/>
      <point x="57" y="86" type="line"/>
      <point x="127" y="27"/>
      <point x="241" y="-6"/>
      <point x="374" y="-8" type="curve"/>
    </contour>
  </outline>
</glyph>
<glyph name="Kaverticalstroke-cy" format="2">
  <advance width="759"/>
  <unicode hex="049C"/>
  <outline>
    <contour>
      <point x="118" y="0" type="line"/>
      <point x="164" y="0" type="line"/>
      <point x="164" y="337" type="line"/>
      <point x="268" y="337" type="line"/>
      <point x="268" y="167" type="line"/>
      <point x="309" y="167" type="line"/>
      <point x="309" y="345" type="line"/>
      <point x="305" y="337" type="line"/>
      <point x="340" y="337" type="line" smooth="yes"/>
      <point x="446" y="337"/>
      <point x="510" y="303"/>
      <point x="565" y="210" type="curve" smooth="yes"/>
      <point x="690" y="0" type="line"/>
      <point x="743" y="0" type="line"/>
      <point x="597" y="240" type="line" smooth="yes"/>
      <point x="542" y="330"/>
      <point x="478" y="370"/>
      <point x="381" y="376" type="curve"/>
      <point x="397" y="359" type="line"/>
      <point x="693" y="705" type="line"/>
      <point x="637" y="705" type="line"/>
      <point x="360" y="379" type="line"/>
      <point x="309" y="379" type="line"/>
      <point x="309" y="550" type="line"/>
      <point x="268" y="550" type="line"/>
      <point x="268" y="379" type="line"/>
      <point x="164" y="379" type="line"/>
      <point x="164" y="705" type="line"/>
      <point x="118" y="705" type="line"/>
    </contour>
  </outline>
</glyph>
<glyph name="kaverticalstroke-cy" format="2">
  <advance width="608"/>
  <unicode hex="049D"/>
  <outline>
    <contour>
      <point x="107" y="0" type="line"/>
      <point x="153" y="0" type="line"/>
      <point x="153" y="232" type="line"/>
      <point x="225" y="232" type="line"/>
      <point x="225" y="109" type="line"/>
      <point x="267" y="109" type="line"/>
      <point x="267" y="252" type="line"/>
      <point x="247" y="232" type="line"/>
      <point x="262" y="232" type="line" smooth="yes"/>
      <point x="346" y="232"/>
      <point x="370" y="227"/>
      <point x="416" y="167" type="curve" smooth="yes"/>
      <point x="544" y="0" type="line"/>
      <point x="603" y="0" type="line"/>
      <point x="467" y="174" type="line" smooth="yes"/>
      <point x="404" y="254"/>
      <point x="380" y="264"/>
      <point x="309" y="269" type="curve"/>
      <point x="332" y="255" type="line"/>
      <point x="568" y="484" type="line"/>
      <point x="507" y="484" type="line"/>
      <point x="288" y="271" type="line"/>
      <point x="267" y="271" type="line"/>
      <point x="267" y="385" type="line"/>
      <point x="225" y="385" type="line"/>
      <point x="225" y="271" type="line"/>
      <point x="153" y="271" type="line"/>
      <point x="153" y="484" type="line"/>
      <point x="107" y="484" type="line"/>
    </contour>
  </outline>
</glyph>
<glyph name="Kastroke-cy" format="2">
  <advance width="776"/>
  <unicode hex="049E"/>
  <outline>
    <contour>
      <point x="155" y="0" type="line"/>
      <point x="201" y="0" type="line"/>
      <point x="201" y="337" type="line"/>
      <point x="357" y="337" type="line" smooth="yes"/>
      <point x="464" y="337"/>
      <point x="527" y="303"/>
      <point x="582" y="210" type="curve" smooth="yes"/>
      <point x="707" y="0" type="line"/>
      <point x="760" y="0" type="line"/>
      <point x="614" y="240" type="line" smooth="yes"/>
      <point x="559" y="330"/>
      <point x="495" y="370"/>
      <point x="398" y="376" type="curve"/>
      <point x="410" y="359" type="line"/>
      <point x="710" y="705" type="line"/>
      <point x="654" y="705" type="line"/>
      <point x="360" y="364" type="line"/>
      <point x="386" y="379" type="line"/>
      <point x="201" y="379" type="line"/>
      <point x="201" y="548" type="line"/>
      <point x="377" y="548" type="line"/>
      <point x="377" y="588" type="line"/>
      <point x="201" y="588" type="line"/>
      <point x="201" y="705" type="line"/>
      <point x="155" y="705" type="line"/>
      <point x="155" y="588" type="line"/>
      <point x="-20" y="588" type="line"/>
      <point x="-20" y="548" type="line"/>
      <point x="155" y="548" type="line"/>
    </contour>
  </outline>
</glyph>
<glyph name="endescender-cy" format="2">
  <advance width="699"/>
  <unicode hex="04A3"/>
  <outline>
    <contour>
      <point x="640" y="-130" type="line"/>
      <point x="682" y="-130" type="line"/>
      <point x="682" y="40" type="line"/>
      <point x="592" y="40" type="line"/>
      <point x="592" y="484" type="line"/>
      <point x="546" y="484" type="line"/>
      <point x="546" y="271" type="line"/>
      <point x="153" y="271" type="line"/>
      <point x="153" y="484" type="line"/>
      <point x="107" y="484" type="line"/>
      <point x="107" y="0" type="line"/>
      <point x="153" y="0" type="line"/>
      <point x="153" y="231" type="line"/>
      <point x="546" y="231" type="line"/>
      <point x="546" y="0" type="line"/>
      <point x="640" y="0" type="line"/>
    </contour>
  </outline>
</glyph>
<glyph name="enghe-cy" format="2">
  <advance width="838"/>
  <unicode hex="04A5"/>
  <outline>
    <contour>
      <point x="107" y="0" type="line"/>
      <point x="153" y="0" type="line"/>
      <point x="153" y="231" type="line"/>
      <point x="486" y="231" type="line"/>
      <point x="486" y="0" type="line"/>
      <point x="532" y="0" type="line"/>
      <point x="532" y="444" type="line"/>
      <point x="828" y="444" type="line"/>
      <point x="828" y="484" type="line"/>
      <point x="486" y="484" type="line"/>
      <point x="486" y="271" type="line"/>
      <point x="153" y="271" type="line"/>
      <point x="153" y="484" type="line"/>
      <point x="107" y="484" type="line"/>
    </contour>
  </outline>
</glyph>
<glyph name="tedescender-cy" format="2">
  <advance width="510"/>
  <unicode hex="04AD"/>
  <outline>
    <contour>
      <point x="326" y="-130" type="line"/>
      <point x="368" y="-130" type="line"/>
      <point x="368" y="40" type="line"/>
      <point x="278" y="40" type="line"/>
      <point x="278" y="444" type="line"/>
      <point x="511" y="444" type="line"/>
      <point x="511" y="484" type="line"/>
      <point x="-1" y="484" type="line"/>
      <point x="-1" y="444" type="line"/>
      <point x="232" y="444" type="line"/>
      <point x="232" y="0" type="line"/>
      <point x="326" y="0" type="line"/>
    </contour>
  </outline>
</glyph>
<glyph name="ustraightstroke-cy" format="2">
  <advance width="620"/>
  <unicode hex="04B1"/>
  <outline>
    <contour>
      <point x="287" y="-180" type="line"/>
      <point x="333" y="-180" type="line"/>
      <point x="333" y="-39" type="line"/>
      <point x="481" y="-39" type="line"/>
      <point x="481" y="0" type="line"/>
      <point x="327" y="0" type="line"/>
      <point x="333" y="-7" type="line"/>
      <point x="595" y="484" type="line"/>
      <point x="541" y="484" type="line"/>
      <point x="298" y="17" type="line"/>
      <point x="324" y="17" type="line"/>
      <point x="81" y="484" type="line"/>
      <point x="25" y="484" type="line"/>
      <point x="287" y="-7" type="line"/>
      <point x="292" y="0" type="line"/>
      <point x="139" y="0" type="line"/>
      <point x="139" y="-39" type="line"/>
      <point x="287" y="-39" type="line"/>
    </contour>
  </outline>
</glyph>
<glyph name="Tetse-cy" format="2">
  <advance width="1113"/>
  <unicode hex="04B4"/>
  <outline>
    <contour>
      <point x="1044" y="-151" type="line"/>
      <point x="1088" y="-151" type="line"/>
      <point x="1088" y="42" type="line"/>
      <point x="963" y="42" type="line"/>
      <point x="963" y="705" type="line"/>
      <point x="917" y="705" type="line"/>
      <point x="917" y="42" type="line"/>
      <point x="322" y="42" type="line"/>
      <point x="322" y="663" type="line"/>
      <point x="598" y="663" type="line"/>
      <point x="598" y="705" type="line"/>
      <point x="0" y="705" type="line"/>
      <point x="0" y="663" type="line"/>
      <point x="276" y="663" type="line"/>
      <point x="276" y="0" type="line"/>
      <point x="1044" y="0" type="line"/>
    </contour>
  </outline>
</glyph>
<glyph name="cheverticalstroke-cy" format="2">
  <advance width="655"/>
  <unicode hex="04B9"/>
  <outline>
    <contour>
      <point x="502" y="0" type="line"/>
      <point x="548" y="0" type="line"/>
      <point x="548" y="484" type="line"/>
      <point x="502" y="484" type="line"/>
      <point x="502" y="256" type="line"/>
      <point x="447" y="228"/>
      <point x="390" y="213"/>
      <point x="327" y="212" type="curve"/>
      <point x="342" y="206" type="line"/>
      <point x="342" y="344" type="line"/>
      <point x="300" y="344" type="line"/>
      <point x="300" y="206" type="line"/>
      <point x="317" y="212" type="line"/>
      <point x="200" y="213"/>
      <point x="127" y="248"/>
      <point x="127" y="366" type="curve" smooth="yes"/>
      <point x="127" y="484" type="line"/>
      <point x="81" y="484" type="line"/>
      <point x="81" y="365" type="line" smooth="yes"/>
      <point x="81" y="231"/>
      <point x="157" y="170"/>
      <point x="317" y="170" type="curve"/>
      <point x="300" y="183" type="line"/>
      <point x="300" y="68" type="line"/>
      <point x="342" y="68" type="line"/>
      <point x="342" y="183" type="line"/>
      <point x="323" y="170" type="line"/>
      <point x="391" y="171"/>
      <point x="452" y="187"/>
      <point x="502" y="212" type="curve"/>
    </contour>
  </outline>
</glyph>
<glyph name="Shha-cy" format="2">
  <advance width="811"/>
  <unicode hex="04BA"/>
  <anchor x="690" y="0" name="bottomright"/>
  <outline>
    <contour>
      <point x="118" y="0" type="line"/>
      <point x="164" y="0" type="line"/>
      <point x="164" y="341" type="line"/>
      <point x="230" y="371"/>
      <point x="313" y="387"/>
      <point x="403" y="387" type="curve" smooth="yes"/>
      <point x="603" y="387"/>
      <point x="691" y="317"/>
      <point x="691" y="157" type="curve" smooth="yes"/>
      <point x="691" y="0" type="line"/>
      <point x="737" y="0" type="line"/>
      <point x="737" y="163" type="line" smooth="yes"/>
      <point x="737" y="344"/>
      <point x="630" y="431"/>
      <point x="412" y="431" type="curve" smooth="yes"/>
      <point x="315" y="431"/>
      <point x="223" y="414"/>
      <point x="164" y="387" type="curve"/>
      <point x="164" y="705" type="line"/>
      <point x="118" y="705" type="line"/>
    </contour>
  </outline>
</glyph>
<glyph name="cheabkhasian-cy" format="2">
  <advance width="742"/>
  <unicode hex="04BD"/>
  <anchor x="529" y="0" name="ogonek"/>
  <outline>
    <contour>
      <point x="465" y="-8" type="curve" smooth="yes"/>
      <point x="562" y="-8"/>
      <point x="650" y="21"/>
      <point x="694" y="66" type="curve"/>
      <point x="673" y="102" type="line"/>
      <point x="618" y="55"/>
      <point x="554" y="34"/>
      <point x="470" y="34" type="curve" smooth="yes"/>
      <point x="315" y="34"/>
      <point x="228" y="108"/>
      <point x="228" y="240" type="curve"/>
      <point x="222" y="233" type="line"/>
      <point x="704" y="233" type="line"/>
      <point x="704" y="260" type="line" smooth="yes"/>
      <point x="704" y="407"/>
      <point x="612" y="492"/>
      <point x="459" y="492" type="curve" smooth="yes"/>
      <point x="303" y="492"/>
      <point x="193" y="402"/>
      <point x="181" y="264" type="curve"/>
      <point x="189" y="272" type="line"/>
      <point x="157" y="272" type="line" smooth="yes"/>
      <point x="95" y="272"/>
      <point x="65" y="293"/>
      <point x="65" y="346" type="curve" smooth="yes"/>
      <point x="65" y="390" type="line"/>
      <point x="23" y="390" type="line"/>
      <point x="23" y="347" type="line" smooth="yes"/>
      <point x="23" y="269"/>
      <point x="64" y="233"/>
      <point x="155" y="233" type="curve" smooth="yes"/>
      <point x="186" y="233" type="line"/>
      <point x="180" y="238" type="line"/>
      <point x="180" y="85"/>
      <point x="292" y="-8"/>
    </contour>
    <contour>
      <point x="458" y="452" type="curve" smooth="yes"/>
      <point x="587" y="452"/>
      <point x="661" y="384"/>
      <point x="661" y="260" type="curve"/>
      <point x="682" y="272" type="line"/>
      <point x="222" y="272" type="line"/>
      <point x="228" y="260" type="line"/>
      <point x="235" y="376"/>
      <point x="322" y="452"/>
    </contour>
  </outline>
</glyph>
<glyph name="Kahook-cy" format="2">
  <advance width="789"/>
  <unicode hex="04C3"/>
  <outline>
    <contour>
      <point x="484" y="-188" type="curve" smooth="yes"/>
      <point x="639" y="-188"/>
      <point x="715" y="-117"/>
      <point x="715" y="30" type="curve" smooth="yes"/>
      <point x="715" y="109" type="line" smooth="yes"/>
      <point x="715" y="291"/>
      <point x="604" y="379"/>
      <point x="398" y="379" type="curve"/>
      <point x="385" y="359" type="line"/>
      <point x="685" y="705" type="line"/>
      <point x="629" y="705" type="line"/>
      <point x="335" y="364" type="line"/>
      <point x="360" y="379" type="line"/>
      <point x="164" y="379" type="line"/>
      <point x="164" y="705" type="line"/>
      <point x="118" y="705" type="line"/>
      <point x="118" y="0" type="line"/>
      <point x="164" y="0" type="line"/>
      <point x="164" y="337" type="line"/>
      <point x="389" y="337" type="line" smooth="yes"/>
      <point x="576" y="337"/>
      <point x="669" y="264"/>
      <point x="669" y="103" type="curve" smooth="yes"/>
      <point x="669" y="29" type="line" smooth="yes"/>
      <point x="669" y="-92"/>
      <point x="611" y="-146"/>
      <point x="484" y="-146" type="curve" smooth="yes"/>
      <point x="442" y="-146"/>
      <point x="399" y="-139"/>
      <point x="361" y="-127" type="curve"/>
      <point x="346" y="-167" type="line"/>
      <point x="382" y="-180"/>
      <point x="434" y="-188"/>
    </contour>
  </outline>
</glyph>
<glyph name="kahook-cy" format="2">
  <advance width="630"/>
  <unicode hex="04C4"/>
  <outline>
    <contour>
      <point x="352" y="-185" type="line"/>
      <point x="519" y="-156"/>
      <point x="568" y="-97"/>
      <point x="568" y="39" type="curve" smooth="yes"/>
      <point x="568" y="88" type="line" smooth="yes"/>
      <point x="568" y="207"/>
      <point x="482" y="269"/>
      <point x="333" y="270" type="curve"/>
      <point x="332" y="255" type="line"/>
      <point x="568" y="484" type="line"/>
      <point x="507" y="484" type="line"/>
      <point x="288" y="271" type="line"/>
      <point x="153" y="271" type="line"/>
      <point x="153" y="484" type="line"/>
      <point x="107" y="484" type="line"/>
      <point x="107" y="0" type="line"/>
      <point x="153" y="0" type="line"/>
      <point x="153" y="232" type="line"/>
      <point x="333" y="232" type="line"/>
      <point x="447" y="232"/>
      <point x="522" y="190.889"/>
      <point x="522" y="84" type="curve" smooth="yes"/>
      <point x="522" y="36" type="line" smooth="yes"/>
      <point x="522" y="-74"/>
      <point x="489" y="-120"/>
      <point x="343" y="-145" type="curve"/>
    </contour>
  </outline>
</glyph>
<glyph name="Enhook-cy" format="2">
  <advance width="928"/>
  <unicode hex="04C7"/>
  <outline>
    <contour>
      <point x="583" y="-193" type="line"/>
      <point x="637" y="-190" type="line" smooth="yes"/>
      <point x="748" y="-184"/>
      <point x="810" y="-122"/>
      <point x="810" y="-19" type="curve" smooth="yes"/>
      <point x="810" y="705" type="line"/>
      <point x="764" y="705" type="line"/>
      <point x="764" y="379" type="line"/>
      <point x="164" y="379" type="line"/>
      <point x="164" y="705" type="line"/>
      <point x="118" y="705" type="line"/>
      <point x="118" y="0" type="line"/>
      <point x="164" y="0" type="line"/>
      <point x="164" y="337" type="line"/>
      <point x="764" y="337" type="line"/>
      <point x="764" y="-21" type="line" smooth="yes"/>
      <point x="764" y="-98"/>
      <point x="718" y="-144"/>
      <point x="631" y="-149" type="curve" smooth="yes"/>
      <point x="580" y="-152" type="line"/>
    </contour>
  </outline>
</glyph>
<glyph name="Dzeabkhasian-cy" format="2">
  <advance width="799"/>
  <unicode hex="04E0"/>
  <outline>
    <contour>
      <point x="389" y="-8" type="curve" smooth="yes"/>
      <point x="595" y="-8"/>
      <point x="713" y="64"/>
      <point x="713" y="191" type="curve" smooth="yes"/>
      <point x="713" y="310"/>
      <point x="613" y="377"/>
      <point x="438" y="377" type="curve" smooth="yes"/>
      <point x="339" y="377" type="line"/>
      <point x="339" y="363" type="line"/>
      <point x="679" y="671" type="line"/>
      <point x="679" y="705" type="line"/>
      <point x="69" y="705" type="line"/>
      <point x="69" y="663" type="line"/>
      <point x="635" y="663" type="line"/>
      <point x="635" y="686" type="line"/>
      <point x="292" y="375" type="line"/>
      <point x="292" y="335" type="line"/>
      <point x="431" y="335" type="line" smooth="yes"/>
      <point x="585" y="335"/>
      <point x="664" y="286"/>
      <point x="664" y="191" type="curve" smooth="yes"/>
      <point x="664" y="88"/>
      <point x="572" y="36"/>
      <point x="390" y="36" type="curve" smooth="yes"/>
      <point x="258" y="36"/>
      <point x="161" y="64"/>
      <point x="81" y="125" type="curve"/>
      <point x="57" y="86" type="line"/>
      <point x="129" y="26"/>
      <point x="249" y="-8"/>
    </contour>
  </outline>
</glyph>
<glyph name="Gestrokehook-cy" format="2">
  <advance width="686"/>
  <unicode hex="04FA"/>
  <outline>
    <contour>
      <point x="113" y="-180" type="line"/>
      <point x="162" y="-177" type="line" smooth="yes"/>
      <point x="276" y="-170"/>
      <point x="326" y="-116"/>
      <point x="326" y="1" type="curve" smooth="yes"/>
      <point x="326" y="41" type="line"/>
      <point x="202" y="41" type="line"/>
      <point x="202" y="336" type="line"/>
      <point x="439" y="336" type="line"/>
      <point x="439" y="377" type="line"/>
      <point x="202" y="377" type="line"/>
      <point x="202" y="663" type="line"/>
      <point x="674" y="663" type="line"/>
      <point x="674" y="705" type="line"/>
      <point x="156" y="705" type="line"/>
      <point x="156" y="377" type="line"/>
      <point x="30" y="377" type="line"/>
      <point x="30" y="336" type="line"/>
      <point x="156" y="336" type="line"/>
      <point x="156" y="0" type="line"/>
      <point x="281" y="0" type="line"/>
      <point x="281" y="-91"/>
      <point x="250" y="-131"/>
      <point x="161" y="-138" type="curve" smooth="yes"/>
      <point x="110" y="-142" type="line"/>
    </contour>
  </outline>
</glyph>
<glyph name="Elhook-cy" format="2">
  <advance width="905"/>
  <unicode hex="0512"/>
  <outline>
    <contour>
      <point x="560" y="-193" type="line"/>
      <point x="614" y="-190" type="line" smooth="yes"/>
      <point x="725" y="-184"/>
      <point x="787" y="-122"/>
      <point x="787" y="-19" type="curve" smooth="yes"/>
      <point x="787" y="705" type="line"/>
      <point x="240" y="705" type="line"/>
      <point x="240" y="495" type="line" smooth="yes"/>
      <point x="240" y="218"/>
      <point x="182" y="94"/>
      <point x="21" y="28" type="curve"/>
      <point x="39" y="-13" type="line"/>
      <point x="217" y="58"/>
      <point x="286" y="197"/>
      <point x="286" y="484" type="curve" smooth="yes"/>
      <point x="286" y="663" type="line"/>
      <point x="741" y="663" type="line"/>
      <point x="741" y="-21" type="line" smooth="yes"/>
      <point x="741" y="-98"/>
      <point x="695" y="-144"/>
      <point x="608" y="-149" type="curve" smooth="yes"/>
      <point x="557" y="-152" type="line"/>
    </contour>
  </outline>
</glyph>
<glyph name="Shhadescender-cy" format="2">
  <advance width="845"/>
  <unicode hex="0526"/>
  <outline>
    <contour>
      <point x="817" y="-150" type="line"/>
      <point x="861" y="-150" type="line"/>
      <point x="861" y="42" type="line"/>
      <point x="737" y="42" type="line"/>
      <point x="737" y="163" type="line" smooth="yes"/>
      <point x="737" y="344"/>
      <point x="630" y="431"/>
      <point x="412" y="431" type="curve" smooth="yes"/>
      <point x="315" y="431"/>
      <point x="223" y="414"/>
      <point x="164" y="387" type="curve"/>
      <point x="164" y="705" type="line"/>
      <point x="118" y="705" type="line"/>
      <point x="118" y="0" type="line"/>
      <point x="164" y="0" type="line"/>
      <point x="164" y="341" type="line"/>
      <point x="230" y="371"/>
      <point x="313" y="387"/>
      <point x="403" y="387" type="curve" smooth="yes"/>
      <point x="603" y="387"/>
      <point x="691" y="317"/>
      <point x="691" y="157" type="curve" smooth="yes"/>
      <point x="691" y="0" type="line"/>
      <point x="817" y="0" type="line"/>
    </contour>
  </outline>
</glyph>
<glyph name="EnLeftHook-cy" format="2">
  <advance width="928"/>
  <unicode hex="0528"/>
  <outline>
    <contour>
      <point x="-63" y="-193" type="line"/>
      <point x="-9" y="-190" type="line" smooth="yes"/>
      <point x="102" y="-184"/>
      <point x="164" y="-122"/>
      <point x="164" y="-19" type="curve" smooth="yes"/>
      <point x="164" y="337" type="line"/>
      <point x="764" y="337" type="line"/>
      <point x="764" y="0" type="line"/>
      <point x="810" y="0" type="line"/>
      <point x="810" y="705" type="line"/>
      <point x="764" y="705" type="line"/>
      <point x="764" y="379" type="line"/>
      <point x="164" y="379" type="line"/>
      <point x="164" y="705" type="line"/>
      <point x="118" y="705" type="line"/>
      <point x="118" y="-21" type="line" smooth="yes"/>
      <point x="118" y="-98"/>
      <point x="72" y="-144"/>
      <point x="-15" y="-149" type="curve" smooth="yes"/>
      <point x="-66" y="-152" type="line"/>
    </contour>
  </outline>
</glyph>
<glyph name="emdash" format="2">
  <advance width="1242"/>
  <unicode hex="2014"/>
  <outline>
    <contour>
      <point x="0" y="248" type="line"/>
      <point x="1242" y="248" type="line"/>
      <point x="1242" y="283" type="line"/>
      <point x="0" y="283" type="line"/>
    </contour>
  </outline>
</glyph>
<glyph name="quoteleft" format="2">
  <advance width="252"/>
  <unicode hex="2018"/>
  <outline>
    <contour>
      <point x="88" y="541" type="line"/>
      <point x="164" y="541" type="line"/>
      <point x="164" y="615" type="line"/>
      <point x="117" y="615" type="line"/>
      <point x="132" y="608" type="line"/>
      <point x="132" y="644"/>
      <point x="142" y="665"/>
      <point x="167" y="692" type="curve"/>
      <point x="139" y="715" type="line"/>
      <point x="105" y="685"/>
      <point x="88" y="650"/>
      <point x="88" y="598" type="curve" smooth="yes"/>
    </contour>
  </outline>
</glyph>
<glyph name="quoteright" format="2">
  <advance width="252"/>
  <unicode hex="2019"/>
  <outline>
    <contour>
      <point x="116" y="531" type="line"/>
      <point x="150" y="561"/>
      <point x="167" y="596"/>
      <point x="167" y="648" type="curve" smooth="yes"/>
      <point x="167" y="705" type="line"/>
      <point x="91" y="705" type="line"/>
      <point x="91" y="631" type="line"/>
      <point x="138" y="631" type="line"/>
      <point x="123" y="638" type="line"/>
      <point x="123" y="602"/>
      <point x="113" y="581"/>
      <point x="88" y="554" type="curve"/>
    </contour>
  </outline>
</glyph>
<glyph name="quotesinglbase" format="2">
  <advance width="252"/>
  <unicode hex="201A"/>
  <outline>
    <contour>
      <point x="116" y="-100" type="line"/>
      <point x="150" y="-70"/>
      <point x="167" y="-35"/>
      <point x="167" y="17" type="curve" smooth="yes"/>
      <point x="167" y="74" type="line"/>
      <point x="91" y="74" type="line"/>
      <point x="91" y="0" type="line"/>
      <point x="138" y="0" type="line"/>
      <point x="123" y="7" type="line"/>
      <point x="123" y="-29"/>
      <point x="113" y="-50"/>
      <point x="88" y="-77" type="curve"/>
    </contour>
  </outline>
</glyph>
<glyph name="daggerdbl" format="2">
  <advance width="371"/>
  <unicode hex="2021"/>
  <outline>
    <contour>
      <point x="167" y="157" type="line"/>
      <point x="205" y="157" type="line"/>
      <point x="205" y="277" type="line"/>
      <point x="351" y="277" type="line"/>
      <point x="351" y="311" type="line"/>
      <point x="205" y="311" type="line"/>
      <point x="205" y="551" type="line"/>
      <point x="351" y="551" type="line"/>
      <point x="351" y="585" type="line"/>
      <point x="205" y="585" type="line"/>
      <point x="205" y="705" type="line"/>
      <point x="167" y="705" type="line"/>
      <point x="167" y="585" type="line"/>
      <point x="21" y="585" type="line"/>
      <point x="21" y="551" type="line"/>
      <point x="167" y="551" type="line"/>
      <point x="167" y="311" type="line"/>
      <point x="21" y="311" type="line"/>
      <point x="21" y="277" type="line"/>
      <point x="167" y="277" type="line"/>
    </contour>
  </outline>
</glyph>
<glyph name="perthousand" format="2">
  <advance width="1622"/>
  <unicode hex="2030"/>
  <outline>
    <contour>
      <point x="1340" y="-8" type="curve" smooth="yes"/>
      <point x="1464" y="-8"/>
      <point x="1540" y="72"/>
      <point x="1540" y="207" type="curve" smooth="yes"/>
      <point x="1540" y="342"/>
      <point x="1464" y="422"/>
      <point x="1340" y="422" type="curve" smooth="yes"/>
      <point x="1216" y="422"/>
      <point x="1140" y="342"/>
      <point x="1140" y="207" type="curve" smooth="yes"/>
      <point x="1140" y="72"/>
      <point x="1216" y="-8"/>
    </contour>
    <contour>
      <point x="1340" y="30" type="curve" smooth="yes"/>
      <point x="1244" y="30"/>
      <point x="1186" y="94"/>
      <point x="1186" y="207" type="curve" smooth="yes"/>
      <point x="1186" y="320"/>
      <point x="1244" y="384"/>
      <point x="1340" y="384" type="curve" smooth="yes"/>
      <point x="1436" y="384"/>
      <point x="1494" y="320"/>
      <point x="1494" y="207" type="curve" smooth="yes"/>
      <point x="1494" y="94"/>
      <point x="1436" y="30"/>
    </contour>
    <contour>
      <point x="326" y="-23" type="line"/>
      <point x="843" y="703" type="line"/>
      <point x="807" y="727" type="line"/>
      <point x="290" y="1" type="line"/>
    </contour>
    <contour>
      <point x="282" y="282" type="curve" smooth="yes"/>
      <point x="406" y="282"/>
      <point x="482" y="362"/>
      <point x="482" y="497" type="curve" smooth="yes"/>
      <point x="482" y="632"/>
      <point x="406" y="712"/>
      <point x="282" y="712" type="curve" smooth="yes"/>
      <point x="158" y="712"/>
      <point x="82" y="632"/>
      <point x="82" y="497" type="curve" smooth="yes"/>
      <point x="82" y="362"/>
      <point x="158" y="282"/>
    </contour>
    <contour>
      <point x="282" y="320" type="curve" smooth="yes"/>
      <point x="186" y="320"/>
      <point x="128" y="384"/>
      <point x="128" y="497" type="curve" smooth="yes"/>
      <point x="128" y="610"/>
      <point x="186" y="674"/>
      <point x="282" y="674" type="curve" smooth="yes"/>
      <point x="378" y="674"/>
      <point x="436" y="610"/>
      <point x="436" y="497" type="curve" smooth="yes"/>
      <point x="436" y="384"/>
      <point x="378" y="320"/>
    </contour>
    <contour>
      <point x="851" y="-8" type="curve" smooth="yes"/>
      <point x="975" y="-8"/>
      <point x="1051" y="72"/>
      <point x="1051" y="207" type="curve" smooth="yes"/>
      <point x="1051" y="342"/>
      <point x="975" y="422"/>
      <point x="851" y="422" type="curve" smooth="yes"/>
      <point x="727" y="422"/>
      <point x="651" y="342"/>
      <point x="651" y="207" type="curve" smooth="yes"/>
      <point x="651" y="72"/>
      <point x="727" y="-8"/>
    </contour>
    <contour>
      <point x="851" y="30" type="curve" smooth="yes"/>
      <point x="755" y="30"/>
      <point x="697" y="94"/>
      <point x="697" y="207" type="curve" smooth="yes"/>
      <point x="697" y="320"/>
      <point x="755" y="384"/>
      <point x="851" y="384" type="curve" smooth="yes"/>
      <point x="947" y="384"/>
      <point x="1005" y="320"/>
      <point x="1005" y="207" type="curve" smooth="yes"/>
      <point x="1005" y="94"/>
      <point x="947" y="30"/>
    </contour>
  </outline>
</glyph>
<glyph name="guilsinglleft" format="2">
  <advance width="283"/>
  <unicode hex="2039"/>
  <outline>
    <contour>
      <point x="185" y="92" type="line"/>
      <point x="220" y="110" type="line"/>
      <point x="120" y="265" type="line"/>
      <point x="220" y="420" type="line"/>
      <point x="185" y="438" type="line"/>
      <point x="70" y="277" type="line"/>
      <point x="70" y="253" type="line"/>
    </contour>
  </outline>
</glyph>
<glyph name="colonsign" format="2">
  <advance width="748"/>
  <unicode hex="20A1"/>
  <outline>
    <contour>
      <point x="119" y="-115" type="line"/>
      <point x="169" y="-115" type="line"/>
      <point x="236" y="67" type="line"/>
      <point x="219" y="62" type="line"/>
      <point x="258" y="33"/>
      <point x="305" y="12"/>
      <point x="360" y="3" type="curve"/>
      <point x="351" y="13" type="line"/>
      <point x="304" y="-115" type="line"/>
      <point x="354" y="-115" type="line"/>
      <point x="400" y="10" type="line"/>
      <point x="386" y="-1" type="line"/>
      <point x="404" y="-3"/>
      <point x="423" y="-4"/>
      <point x="442" y="-4" type="curve" smooth="yes"/>
      <point x="550" y="-4"/>
      <point x="640" y="28"/>
      <point x="705" y="89" type="curve"/>
      <point x="678" y="127" type="line"/>
      <point x="610" y="67"/>
      <point x="538" y="40"/>
      <point x="443" y="40" type="curve" smooth="yes"/>
      <point x="252" y="40"/>
      <point x="144" y="153"/>
      <point x="144" y="351" type="curve" smooth="yes"/>
      <point x="144" y="550"/>
      <point x="254" y="665"/>
      <point x="443" y="665" type="curve" smooth="yes"/>
      <point x="538" y="665"/>
      <point x="610" y="638"/>
      <point x="678" y="578" type="curve"/>
      <point x="705" y="616" type="line"/>
      <point x="682" y="638"/>
      <point x="656" y="656"/>
      <point x="627" y="670" type="curve"/>
      <point x="635" y="649" type="line"/>
      <point x="698" y="820" type="line"/>
      <point x="648" y="820" type="line"/>
      <point x="595" y="676" type="line"/>
      <point x="609" y="678" type="line"/>
      <point x="563" y="697"/>
      <point x="509" y="708"/>
      <point x="451" y="709" type="curve"/>
      <point x="467" y="695" type="line"/>
      <point x="513" y="820" type="line"/>
      <point x="463" y="820" type="line"/>
      <point x="417" y="695" type="line"/>
      <point x="437" y="709" type="line"/>
      <point x="223" y="706"/>
      <point x="95" y="573"/>
      <point x="95" y="352" type="curve" smooth="yes"/>
      <point x="95" y="233"/>
      <point x="132" y="139"/>
      <point x="200" y="78" type="curve"/>
      <point x="197" y="97" type="line"/>
    </contour>
  </outline>
</glyph>
<glyph name="euro" format="2">
  <advance width="748"/>
  <unicode hex="20AC"/>
  <outline>
    <contour>
      <point x="483" y="-8" type="curve" smooth="yes"/>
      <point x="582" y="-8"/>
      <point x="657" y="23"/>
      <point x="734" y="95" type="curve"/>
      <point x="707" y="133" type="line"/>
      <point x="623" y="60"/>
      <point x="568" y="36"/>
      <point x="486" y="36" type="curve" smooth="yes"/>
      <point x="332" y="36"/>
      <point x="238" y="116"/>
      <point x="213" y="268" type="curve"/>
      <point x="202" y="259" type="line"/>
      <point x="450" y="259" type="line"/>
      <point x="450" y="297" type="line"/>
      <point x="196" y="297" type="line"/>
      <point x="211" y="284" type="line"/>
      <point x="206" y="319"/>
      <point x="206" y="383"/>
      <point x="211" y="418" type="curve"/>
      <point x="196" y="409" type="line"/>
      <point x="450" y="409" type="line"/>
      <point x="450" y="447" type="line"/>
      <point x="192" y="447" type="line"/>
      <point x="214" y="439" type="line"/>
      <point x="240" y="589"/>
      <point x="334" y="669"/>
      <point x="486" y="669" type="curve" smooth="yes"/>
      <point x="568" y="669"/>
      <point x="623" y="645"/>
      <point x="707" y="572" type="curve"/>
      <point x="734" y="610" type="line"/>
      <point x="654" y="684"/>
      <point x="583" y="713"/>
      <point x="485" y="713" type="curve" smooth="yes"/>
      <point x="306" y="713"/>
      <point x="191" y="614"/>
      <point x="164" y="437" type="curve"/>
      <point x="178" y="447" type="line"/>
      <point x="20" y="447" type="line"/>
      <point x="20" y="409" type="line"/>
      <point x="171" y="409" type="line"/>
      <point x="162" y="422" type="line"/>
      <point x="157" y="385"/>
      <point x="157" y="321"/>
      <point x="162" y="284" type="curve"/>
      <point x="171" y="297" type="line"/>
      <point x="20" y="297" type="line"/>
      <point x="20" y="259" type="line"/>
      <point x="175" y="259" type="line"/>
      <point x="164" y="270" type="line"/>
      <point x="191" y="92"/>
      <point x="306" y="-8"/>
    </contour>
  </outline>
</glyph>
<glyph name="kip" format="2">
  <advance width="748"/>
  <unicode hex="20AD"/>
  <outline>
    <contour>
      <point x="160" y="0" type="line"/>
      <point x="206" y="0" type="line"/>
      <point x="206" y="334" type="line"/>
      <point x="208" y="334" type="line"/>
      <point x="639" y="0" type="line"/>
      <point x="706" y="0" type="line"/>
      <point x="260" y="341" type="line"/>
      <point x="260" y="334" type="line"/>
      <point x="667" y="334" type="line"/>
      <point x="667" y="372" type="line"/>
      <point x="261" y="372" type="line"/>
      <point x="261" y="367" type="line"/>
      <point x="706" y="705" type="line"/>
      <point x="641" y="705" type="line"/>
      <point x="208" y="372" type="line"/>
      <point x="206" y="372" type="line"/>
      <point x="206" y="705" type="line"/>
      <point x="160" y="705" type="line"/>
      <point x="160" y="372" type="line"/>
      <point x="16" y="372" type="line"/>
      <point x="16" y="334" type="line"/>
      <point x="160" y="334" type="line"/>
    </contour>
  </outline>
</glyph>
<glyph name="tugrik" format="2">
  <advance width="748"/>
  <unicode hex="20AE"/>
  <outline>
    <contour>
      <point x="351" y="0" type="line"/>
      <point x="397" y="0" type="line"/>
      <point x="397" y="252" type="line"/>
      <point x="592" y="341" type="line"/>
      <point x="592" y="383" type="line"/>
      <point x="397" y="294" type="line"/>
      <point x="397" y="416" type="line"/>
      <point x="592" y="505" type="line"/>
      <point x="592" y="547" type="line"/>
      <point x="397" y="458" type="line"/>
      <point x="397" y="663" type="line"/>
      <point x="726" y="663" type="line"/>
      <point x="726" y="705" type="line"/>
      <point x="22" y="705" type="line"/>
      <point x="22" y="663" type="line"/>
      <point x="351" y="663" type="line"/>
      <point x="351" y="438" type="line"/>
      <point x="156" y="349" type="line"/>
      <point x="156" y="307" type="line"/>
      <point x="351" y="396" type="line"/>
      <point x="351" y="274" type="line"/>
      <point x="156" y="185" type="line"/>
      <point x="156" y="143" type="line"/>
      <point x="351" y="232" type="line"/>
    </contour>
  </outline>
</glyph>
<glyph name="peso" format="2">
  <advance width="748"/>
  <unicode hex="20B1"/>
  <outline>
    <contour>
      <point x="146" y="0" type="line"/>
      <point x="192" y="0" type="line"/>
      <point x="192" y="263" type="line"/>
      <point x="347" y="263" type="line" smooth="yes"/>
      <point x="494" y="263"/>
      <point x="583" y="308"/>
      <point x="615" y="399" type="curve"/>
      <point x="595" y="389" type="line"/>
      <point x="734" y="389" type="line"/>
      <point x="734" y="428" type="line"/>
      <point x="603" y="428" type="line"/>
      <point x="621" y="420" type="line"/>
      <point x="630" y="454"/>
      <point x="630" y="513"/>
      <point x="621" y="548" type="curve"/>
      <point x="601" y="540" type="line"/>
      <point x="734" y="540" type="line"/>
      <point x="734" y="578" type="line"/>
      <point x="594" y="578" type="line"/>
      <point x="614" y="572" type="line"/>
      <point x="582" y="661"/>
      <point x="492" y="705"/>
      <point x="347" y="705" type="curve" smooth="yes"/>
      <point x="146" y="705" type="line"/>
      <point x="146" y="578" type="line"/>
      <point x="18" y="578" type="line"/>
      <point x="18" y="540" type="line"/>
      <point x="146" y="540" type="line"/>
      <point x="146" y="428" type="line"/>
      <point x="18" y="428" type="line"/>
      <point x="18" y="390" type="line"/>
      <point x="146" y="390" type="line"/>
    </contour>
    <contour>
      <point x="192" y="305" type="line"/>
      <point x="192" y="663" type="line"/>
      <point x="348" y="663" type="line" smooth="yes"/>
      <point x="509" y="663"/>
      <point x="581" y="608"/>
      <point x="581" y="484" type="curve" smooth="yes"/>
      <point x="581" y="360"/>
      <point x="508" y="305"/>
      <point x="348" y="305" type="curve" smooth="yes"/>
    </contour>
  </outline>
</glyph>
<glyph name="guarani" format="2">
  <advance width="748"/>
  <unicode hex="20B2"/>
  <outline>
    <contour>
      <point x="404" y="-115" type="line"/>
      <point x="450" y="-115" type="line"/>
      <point x="450" y="21" type="line"/>
      <point x="433" y="-4" type="line"/>
      <point x="519" y="-3"/>
      <point x="615" y="18"/>
      <point x="678" y="48" type="curve"/>
      <point x="678" y="356" type="line"/>
      <point x="425" y="356" type="line"/>
      <point x="425" y="315" type="line"/>
      <point x="633" y="315" type="line"/>
      <point x="633" y="57" type="line"/>
      <point x="643" y="80" type="line"/>
      <point x="575" y="54"/>
      <point x="503" y="40"/>
      <point x="431" y="40" type="curve" smooth="yes"/>
      <point x="231" y="40"/>
      <point x="126" y="147"/>
      <point x="126" y="348" type="curve" smooth="yes"/>
      <point x="126" y="551"/>
      <point x="234" y="665"/>
      <point x="425" y="665" type="curve" smooth="yes"/>
      <point x="516" y="665"/>
      <point x="588" y="637"/>
      <point x="662" y="572" type="curve"/>
      <point x="689" y="610" type="line"/>
      <point x="622" y="674"/>
      <point x="534" y="707"/>
      <point x="429" y="709" type="curve"/>
      <point x="450" y="692" type="line"/>
      <point x="450" y="820" type="line"/>
      <point x="404" y="820" type="line"/>
      <point x="404" y="693" type="line"/>
      <point x="414" y="709" type="line"/>
      <point x="205" y="706"/>
      <point x="77" y="572"/>
      <point x="77" y="349" type="curve" smooth="yes"/>
      <point x="77" y="125"/>
      <point x="205" y="-1"/>
      <point x="417" y="-4" type="curve"/>
      <point x="404" y="21" type="line"/>
    </contour>
  </outline>
</glyph>
<glyph name="hryvnia" format="2">
  <advance width="748"/>
  <unicode hex="20B4"/>
  <outline>
    <contour>
      <point x="342" y="-8" type="curve" smooth="yes"/>
      <point x="469" y="-8"/>
      <point x="589" y="33"/>
      <point x="651" y="96" type="curve"/>
      <point x="628" y="134" type="line"/>
      <point x="553" y="68"/>
      <point x="463" y="36"/>
      <point x="344" y="36" type="curve" smooth="yes"/>
      <point x="223" y="36"/>
      <point x="156" y="69"/>
      <point x="156" y="134" type="curve" smooth="yes"/>
      <point x="156" y="181"/>
      <point x="191" y="222"/>
      <point x="269" y="267" type="curve"/>
      <point x="227" y="259" type="line"/>
      <point x="648" y="259" type="line"/>
      <point x="648" y="297" type="line"/>
      <point x="300" y="297" type="line"/>
      <point x="295" y="286" type="line"/>
      <point x="512" y="420" type="line"/>
      <point x="473" y="409" type="line"/>
      <point x="648" y="409" type="line"/>
      <point x="648" y="447" type="line"/>
      <point x="527" y="447" type="line"/>
      <point x="533" y="438" type="line"/>
      <point x="609" y="484"/>
      <point x="644" y="530"/>
      <point x="644" y="585" type="curve" smooth="yes"/>
      <point x="644" y="668"/>
      <point x="566" y="713"/>
      <point x="423" y="713" type="curve" smooth="yes"/>
      <point x="303" y="713"/>
      <point x="208" y="682"/>
      <point x="132" y="618" type="curve"/>
      <point x="159" y="579" type="line"/>
      <point x="237" y="643"/>
      <point x="312" y="669"/>
      <point x="422" y="669" type="curve" smooth="yes"/>
      <point x="540" y="669"/>
      <point x="596" y="639"/>
      <point x="596" y="575" type="curve" smooth="yes"/>
      <point x="596" y="530"/>
      <point x="570" y="502"/>
      <point x="468" y="440" type="curve"/>
      <point x="508" y="447" type="line"/>
      <point x="104" y="447" type="line"/>
      <point x="104" y="409" type="line"/>
      <point x="437" y="409" type="line"/>
      <point x="436" y="417" type="line"/>
      <point x="224" y="286" type="line"/>
      <point x="259" y="297" type="line"/>
      <point x="104" y="297" type="line"/>
      <point x="104" y="259" type="line"/>
      <point x="208" y="259" type="line"/>
      <point x="208" y="270" type="line"/>
      <point x="141" y="233"/>
      <point x="108" y="189"/>
      <point x="108" y="135" type="curve" smooth="yes"/>
      <point x="108" y="45"/>
      <point x="197" y="-8"/>
    </contour>
  </outline>
</glyph>
<glyph name="cedi" format="2">
  <advance width="748"/>
  <unicode hex="20B5"/>
  <outline>
    <contour>
      <point x="417" y="-115" type="line"/>
      <point x="463" y="-115" type="line"/>
      <point x="463" y="12" type="line"/>
      <point x="447" y="-4" type="line"/>
      <point x="551" y="-2"/>
      <point x="638" y="30"/>
      <point x="701" y="89" type="curve"/>
      <point x="674" y="127" type="line"/>
      <point x="606" y="67"/>
      <point x="534" y="40"/>
      <point x="439" y="40" type="curve" smooth="yes"/>
      <point x="248" y="40"/>
      <point x="140" y="153"/>
      <point x="140" y="351" type="curve" smooth="yes"/>
      <point x="140" y="550"/>
      <point x="250" y="665"/>
      <point x="439" y="665" type="curve" smooth="yes"/>
      <point x="534" y="665"/>
      <point x="606" y="638"/>
      <point x="674" y="578" type="curve"/>
      <point x="701" y="616" type="line"/>
      <point x="638" y="675"/>
      <point x="552" y="707"/>
      <point x="449" y="709" type="curve"/>
      <point x="463" y="692" type="line"/>
      <point x="463" y="820" type="line"/>
      <point x="417" y="820" type="line"/>
      <point x="417" y="693" type="line"/>
      <point x="431" y="709" type="line"/>
      <point x="218" y="705"/>
      <point x="91" y="572"/>
      <point x="91" y="352" type="curve" smooth="yes"/>
      <point x="91" y="132"/>
      <point x="217" y="0"/>
      <point x="429" y="-4" type="curve"/>
      <point x="417" y="12" type="line"/>
    </contour>
  </outline>
</glyph>
<glyph name="tenge" format="2">
  <advance width="748"/>
  <unicode hex="20B8"/>
  <outline>
    <contour>
      <point x="351" y="0" type="line"/>
      <point x="397" y="0" type="line"/>
      <point x="397" y="517" type="line"/>
      <point x="726" y="517" type="line"/>
      <point x="726" y="555" type="line"/>
      <point x="22" y="555" type="line"/>
      <point x="22" y="517" type="line"/>
      <point x="351" y="517" type="line"/>
    </contour>
    <contour>
      <point x="22" y="667" type="line"/>
      <point x="726" y="667" type="line"/>
      <point x="726" y="705" type="line"/>
      <point x="22" y="705" type="line"/>
    </contour>
  </outline>
</glyph>
<glyph name="liraTurkish" format="2">
  <advance width="748"/>
  <unicode hex="20BA"/>
  <outline>
    <contour>
      <point x="234" y="0" type="line"/>
      <point x="479" y="0" type="line" smooth="yes"/>
      <point x="620" y="0"/>
      <point x="682" y="54"/>
      <point x="682" y="179" type="curve" smooth="yes"/>
      <point x="682" y="222" type="line"/>
      <point x="639" y="222" type="line"/>
      <point x="639" y="182" type="line" smooth="yes"/>
      <point x="639" y="82"/>
      <point x="593" y="42"/>
      <point x="481" y="42" type="curve" smooth="yes"/>
      <point x="280" y="42" type="line"/>
      <point x="280" y="294" type="line"/>
      <point x="525" y="403" type="line"/>
      <point x="525" y="445" type="line"/>
      <point x="280" y="336" type="line"/>
      <point x="280" y="454" type="line"/>
      <point x="525" y="563" type="line"/>
      <point x="525" y="605" type="line"/>
      <point x="280" y="496" type="line"/>
      <point x="280" y="705" type="line"/>
      <point x="234" y="705" type="line"/>
      <point x="234" y="475" type="line"/>
      <point x="90" y="411" type="line"/>
      <point x="90" y="369" type="line"/>
      <point x="234" y="433" type="line"/>
      <point x="234" y="315" type="line"/>
      <point x="90" y="251" type="line"/>
      <point x="90" y="209" type="line"/>
      <point x="234" y="273" type="line"/>
    </contour>
  </outline>
</glyph>
<glyph name="manat" format="2">
  <advance width="748"/>
  <unicode hex="20BC"/>
  <outline>
    <contour>
      <point x="92" y="0" type="line"/>
      <point x="138" y="0" type="line"/>
      <point x="138" y="207" type="line" smooth="yes"/>
      <point x="138" y="427"/>
      <point x="214" y="544"/>
      <point x="360" y="547" type="curve"/>
      <point x="351" y="556" type="line"/>
      <point x="351" y="160" type="line"/>
      <point x="397" y="160" type="line"/>
      <point x="397" y="556" type="line"/>
      <point x="388" y="547" type="line"/>
      <point x="534" y="544"/>
      <point x="610" y="427"/>
      <point x="610" y="207" type="curve" smooth="yes"/>
      <point x="610" y="0" type="line"/>
      <point x="656" y="0" type="line"/>
      <point x="656" y="207" type="line" smooth="yes"/>
      <point x="656" y="456"/>
      <point x="566" y="583"/>
      <point x="383" y="590" type="curve"/>
      <point x="397" y="576" type="line"/>
      <point x="397" y="705" type="line"/>
      <point x="351" y="705" type="line"/>
      <point x="351" y="576" type="line"/>
      <point x="365" y="590" type="line"/>
      <point x="182" y="583"/>
      <point x="92" y="456"/>
      <point x="92" y="207" type="curve" smooth="yes"/>
    </contour>
  </outline>
</glyph>
<glyph name="literSign" format="2">
  <advance width="748"/>
  <unicode hex="2113"/>
  <outline>
    <contour>
      <point x="389" y="-8" type="curve" smooth="yes"/>
      <point x="443" y="-8"/>
      <point x="488" y="14"/>
      <point x="524" y="54" type="curve"/>
      <point x="496" y="85" type="line"/>
      <point x="459" y="47"/>
      <point x="430" y="32"/>
      <point x="392" y="32" type="curve" smooth="yes"/>
      <point x="342" y="32"/>
      <point x="318" y="58"/>
      <point x="318" y="111" type="curve" smooth="yes"/>
      <point x="318" y="315" type="line"/>
      <point x="351" y="349" type="line" smooth="yes"/>
      <point x="444" y="445"/>
      <point x="490" y="530"/>
      <point x="490" y="609" type="curve" smooth="yes"/>
      <point x="490" y="676"/>
      <point x="456" y="713"/>
      <point x="392" y="713" type="curve" smooth="yes"/>
      <point x="320" y="713"/>
      <point x="274" y="666"/>
      <point x="274" y="591" type="curve" smooth="yes"/>
      <point x="274" y="324" type="line"/>
      <point x="170" y="216" type="line"/>
      <point x="198" y="190" type="line"/>
      <point x="289" y="285" type="line"/>
      <point x="274" y="287" type="line"/>
      <point x="274" y="102" type="line" smooth="yes"/>
      <point x="274" y="32"/>
      <point x="317" y="-8"/>
    </contour>
    <contour>
      <point x="318" y="370" type="curve"/>
      <point x="318" y="589" type="line" smooth="yes"/>
      <point x="318" y="641"/>
      <point x="346" y="673"/>
      <point x="391" y="673" type="curve" smooth="yes"/>
      <point x="428" y="673"/>
      <point x="446" y="652"/>
      <point x="446" y="607" type="curve" smooth="yes"/>
      <point x="446" y="540"/>
      <point x="408" y="465"/>
      <point x="338" y="391" type="curve" smooth="yes"/>
      <point x="331" y="384"/>
      <point x="325" y="377"/>
    </contour>
  </outline>
</glyph>
<glyph name="trademark" format="2">
  <advance width="1111"/>
  <unicode hex="2122"/>
  <outline>
    <contour>
      <point x="191" y="284" type="line"/>
      <point x="235" y="284" type="line"/>
      <point x="235" y="665" type="line"/>
      <point x="426" y="665" type="line"/>
      <point x="426" y="705" type="line"/>
      <point x="0" y="705" type="line"/>
      <point x="0" y="665" type="line"/>
      <point x="191" y="665" type="line"/>
    </contour>
    <contour>
      <point x="512" y="284" type="line"/>
      <point x="556" y="284" type="line"/>
      <point x="556" y="654" type="line"/>
      <point x="540" y="654" type="line"/>
      <point x="742" y="347" type="line"/>
      <point x="774" y="347" type="line"/>
      <point x="976" y="654" type="line"/>
      <point x="960" y="654" type="line"/>
      <point x="960" y="284" type="line"/>
      <point x="1004" y="284" type="line"/>
      <point x="1004" y="705" type="line"/>
      <point x="961" y="705" type="line"/>
      <point x="750" y="382" type="line"/>
      <point x="766" y="382" type="line"/>
      <point x="555" y="705" type="line"/>
      <point x="512" y="705" type="line"/>
    </contour>
  </outline>
</glyph>
<glyph name="increment" format="2">
  <advance width="748"/>
  <unicode hex="2206"/>
  <outline>
    <contour>
      <point x="40" y="0" type="line"/>
      <point x="708" y="0" type="line"/>
      <point x="708" y="32" type="line"/>
      <point x="397" y="705" type="line"/>
      <point x="351" y="705" type="line"/>
      <point x="40" y="32" type="line"/>
    </contour>
    <contour>
      <point x="78" y="11" type="line"/>
      <point x="373" y="652" type="line"/>
      <point x="375" y="652" type="line"/>
      <point x="670" y="11" type="line"/>
      <point x="670" y="42" type="line"/>
      <point x="78" y="42" type="line"/>
    </contour>
  </outline>
</glyph>
<glyph name="product" format="2">
  <advance width="748"/>
  <unicode hex="220F"/>
  <outline>
    <contour>
      <point x="68" y="-180" type="line"/>
      <point x="114" y="-180" type="line"/>
      <point x="114" y="663" type="line"/>
      <point x="634" y="663" type="line"/>
      <point x="634" y="-180" type="line"/>
      <point x="680" y="-180" type="line"/>
      <point x="680" y="705" type="line"/>
      <point x="68" y="705" type="line"/>
    </contour>
  </outline>
</glyph>
<glyph name="divisionslash" format="2">
  <advance width="748"/>
  <unicode hex="2215"/>
  <outline>
    <contour>
      <point x="237" y="-55" type="line"/>
      <point x="551" y="728" type="line"/>
      <point x="511" y="744" type="line"/>
      <point x="197" y="-39" type="line"/>
    </contour>
  </outline>
</glyph>
<glyph name="infinity" format="2">
  <advance width="748"/>
  <unicode hex="221E"/>
  <outline>
    <contour>
      <point x="209" y="145" type="curve" smooth="yes"/>
      <point x="274" y="145"/>
      <point x="333" y="181"/>
      <point x="370" y="243" type="curve"/>
      <point x="417" y="179"/>
      <point x="475" y="145"/>
      <point x="540" y="145" type="curve" smooth="yes"/>
      <point x="624" y="145"/>
      <point x="685" y="203"/>
      <point x="685" y="284" type="curve" smooth="yes"/>
      <point x="685" y="365"/>
      <point x="624" y="423"/>
      <point x="540" y="423" type="curve" smooth="yes"/>
      <point x="476" y="423"/>
      <point x="417" y="387"/>
      <point x="376" y="323" type="curve"/>
      <point x="329" y="389"/>
      <point x="273" y="423"/>
      <point x="208" y="423" type="curve" smooth="yes"/>
      <point x="124" y="423"/>
      <point x="63" y="366"/>
      <point x="63" y="284" type="curve" smooth="yes"/>
      <point x="63" y="203"/>
      <point x="123" y="145"/>
    </contour>
    <contour>
      <point x="212" y="183" type="curve" smooth="yes"/>
      <point x="150" y="183"/>
      <point x="110" y="222"/>
      <point x="110" y="284" type="curve" smooth="yes"/>
      <point x="110" y="346"/>
      <point x="150" y="385"/>
      <point x="212" y="385" type="curve" smooth="yes"/>
      <point x="268" y="385"/>
      <point x="312" y="353"/>
      <point x="352" y="285" type="curve"/>
      <point x="312" y="216"/>
      <point x="268" y="183"/>
    </contour>
    <contour>
      <point x="536" y="183" type="curve" smooth="yes"/>
      <point x="480" y="183"/>
      <point x="436" y="215"/>
      <point x="396" y="283" type="curve"/>
      <point x="436" y="352"/>
      <point x="480" y="385"/>
      <point x="536" y="385" type="curve" smooth="yes"/>
      <point x="598" y="385"/>
      <point x="638" y="346"/>
      <point x="638" y="284" type="curve" smooth="yes"/>
      <point x="638" y="222"/>
      <point x="598" y="183"/>
    </contour>
  </outline>
</glyph>
<glyph name="integral" format="2">
  <advance width="748"/>
  <unicode hex="222B"/>
  <outline>
    <contour>
      <point x="174" y="-188" type="line"/>
      <point x="220" y="-188" type="line" smooth="yes"/>
      <point x="342" y="-188"/>
      <point x="397" y="-134"/>
      <point x="397" y="-16" type="curve" smooth="yes"/>
      <point x="397" y="541" type="line" smooth="yes"/>
      <point x="397" y="638"/>
      <point x="431" y="672"/>
      <point x="528" y="672" type="curve" smooth="yes"/>
      <point x="574" y="672" type="line"/>
      <point x="574" y="713" type="line"/>
      <point x="528" y="713" type="line" smooth="yes"/>
      <point x="406" y="713"/>
      <point x="351" y="659"/>
      <point x="351" y="541" type="curve" smooth="yes"/>
      <point x="351" y="-16" type="line" smooth="yes"/>
      <point x="351" y="-113"/>
      <point x="317" y="-147"/>
      <point x="220" y="-147" type="curve" smooth="yes"/>
      <point x="174" y="-147" type="line"/>
    </contour>
  </outline>
</glyph>
<glyph name="approxequal" format="2">
  <advance width="748"/>
  <unicode hex="2248"/>
  <outline>
    <contour>
      <point x="506" y="323" type="curve" smooth="yes"/>
      <point x="567" y="323"/>
      <point x="604" y="347"/>
      <point x="645" y="417" type="curve"/>
      <point x="604" y="436" type="line"/>
      <point x="573" y="381"/>
      <point x="550" y="365"/>
      <point x="508" y="365" type="curve" smooth="yes"/>
      <point x="481" y="365"/>
      <point x="456" y="376"/>
      <point x="389" y="406" type="curve" smooth="yes"/>
      <point x="307" y="443"/>
      <point x="278" y="452"/>
      <point x="240" y="452" type="curve" smooth="yes"/>
      <point x="182" y="452"/>
      <point x="144" y="428"/>
      <point x="103" y="358" type="curve"/>
      <point x="144" y="339" type="line"/>
      <point x="175" y="394"/>
      <point x="198" y="410"/>
      <point x="242" y="410" type="curve" smooth="yes"/>
      <point x="273" y="410"/>
      <point x="290" y="400"/>
      <point x="359" y="369" type="curve" smooth="yes"/>
      <point x="438" y="333"/>
      <point x="467" y="323"/>
    </contour>
    <contour>
      <point x="506" y="123" type="curve" smooth="yes"/>
      <point x="567" y="123"/>
      <point x="604" y="147"/>
      <point x="645" y="217" type="curve"/>
      <point x="604" y="236" type="line"/>
      <point x="573" y="181"/>
      <point x="550" y="165"/>
      <point x="508" y="165" type="curve" smooth="yes"/>
      <point x="481" y="165"/>
      <point x="456" y="176"/>
      <point x="389" y="206" type="curve" smooth="yes"/>
      <point x="307" y="243"/>
      <point x="278" y="252"/>
      <point x="240" y="252" type="curve" smooth="yes"/>
      <point x="182" y="252"/>
      <point x="144" y="228"/>
      <point x="103" y="158" type="curve"/>
      <point x="144" y="139" type="line"/>
      <point x="175" y="194"/>
      <point x="198" y="210"/>
      <point x="242" y="210" type="curve" smooth="yes"/>
      <point x="273" y="210"/>
      <point x="290" y="200"/>
      <point x="359" y="169" type="curve" smooth="yes"/>
      <point x="438" y="133"/>
      <point x="467" y="123"/>
    </contour>
  </outline>
</glyph>
<glyph name="lessequal" format="2">
  <advance width="748"/>
  <unicode hex="2264"/>
  <outline>
    <contour>
      <point x="645" y="110" type="line"/>
      <point x="645" y="156" type="line"/>
      <point x="143" y="331" type="line"/>
      <point x="143" y="311" type="line"/>
      <point x="645" y="486" type="line"/>
      <point x="645" y="532" type="line"/>
      <point x="109" y="341" type="line"/>
      <point x="109" y="301" type="line"/>
    </contour>
    <contour>
      <point x="103" y="0" type="line"/>
      <point x="645" y="0" type="line"/>
      <point x="645" y="40" type="line"/>
      <point x="103" y="40" type="line"/>
    </contour>
  </outline>
</glyph>
<glyph name="greaterequal" format="2">
  <advance width="748"/>
  <unicode hex="2265"/>
  <outline>
    <contour>
      <point x="103" y="110" type="line"/>
      <point x="639" y="301" type="line"/>
      <point x="639" y="341" type="line"/>
      <point x="103" y="532" type="line"/>
      <point x="103" y="486" type="line"/>
      <point x="605" y="311" type="line"/>
      <point x="605" y="331" type="line"/>
      <point x="103" y="156" type="line"/>
    </contour>
    <contour>
      <point x="103" y="0" type="line"/>
      <point x="645" y="0" type="line"/>
      <point x="645" y="40" type="line"/>
      <point x="103" y="40" type="line"/>
    </contour>
  </outline>
</glyph>
<glyph name="lozenge" format="2">
  <advance width="748"/>
  <unicode hex="25CA"/>
  <outline>
    <contour>
      <point x="354" y="-200" type="line"/>
      <point x="394" y="-200" type="line"/>
      <point x="684" y="279" type="line"/>
      <point x="394" y="758" type="line"/>
      <point x="354" y="758" type="line"/>
      <point x="64" y="279" type="line"/>
    </contour>
    <contour>
      <point x="374" y="-155" type="line"/>
      <point x="114" y="279" type="line"/>
      <point x="374" y="713" type="line"/>
      <point x="634" y="279" type="line"/>
    </contour>
  </outline>
</glyph>
<glyph name="leftanglebracket-math" format="2">
  <advance width="748"/>
  <unicode hex="27E8"/>
  <outline>
    <contour>
      <point x="434" y="-23" type="line"/>
      <point x="470" y="-9" type="line"/>
      <point x="322" y="348" type="line"/>
      <point x="470" y="704" type="line"/>
      <point x="434" y="718" type="line"/>
      <point x="282" y="360" type="line"/>
      <point x="282" y="335" type="line"/>
    </contour>
  </outline>
</glyph>
<glyph name="fi" format="2">
  <advance width="627"/>
  <unicode hex="FB01"/>
  <anchor x="136.88" y="0" name="bottom"/>
  <anchor x="324" y="0" name="caret_1"/>
  <anchor x="507.782" y="0" name="ogonek"/>
  <anchor x="234.904" y="705" name="top"/>
  <outline>
    <contour>
      <point x="128" y="0" type="line"/>
      <point x="174" y="0" type="line"/>
      <point x="174" y="445" type="line"/>
      <point x="474" y="445" type="line"/>
      <point x="474" y="0" type="line"/>
      <point x="520" y="0" type="line"/>
      <point x="520" y="484" type="line"/>
      <point x="164" y="484" type="line"/>
      <point x="174" y="474" type="line"/>
      <point x="174" y="512" type="line" smooth="yes"/>
      <point x="174" y="611"/>
      <point x="229" y="659"/>
      <point x="329" y="664" type="curve" smooth="yes"/>
      <point x="386" y="667" type="line"/>
      <point x="380" y="707" type="line"/>
      <point x="343" y="705" type="line" smooth="yes"/>
      <point x="199" y="697"/>
      <point x="128" y="634"/>
      <point x="128" y="511" type="curve" smooth="yes"/>
      <point x="128" y="474" type="line"/>
      <point x="138" y="484" type="line"/>
      <point x="6" y="484" type="line"/>
      <point x="6" y="445" type="line"/>
      <point x="128" y="445" type="line"/>
    </contour>
    <contour>
      <point x="459" y="618" type="line"/>
      <point x="534" y="618" type="line"/>
      <point x="534" y="684" type="line"/>
      <point x="459" y="684" type="line"/>
    </contour>
  </outline>
</glyph>
<glyph name="__Kabashkir-cy" format="2">
  <advance width="343"/>
  <anchor x="332" y="705" name="_topleft"/>
  <anchor x="11" y="705" name="_topright"/>
  <outline>
    <contour>
      <point x="11" y="663" type="line"/>
      <point x="332" y="663" type="line"/>
      <point x="332" y="705" type="line"/>
      <point x="11" y="705" type="line"/>
    </contour>
  </outline>
</glyph>
<glyph name="__Zedescener-cy.case" format="2">
  <advance width="161"/>
  <anchor x="97" y="0" name="_bottom"/>
  <outline>
    <contour>
      <point x="74" y="-150" type="line"/>
      <point x="119" y="-150" type="line"/>
      <point x="119" y="15" type="line"/>
      <point x="74" y="15" type="line"/>
    </contour>
  </outline>
</glyph>
<glyph name="__descender-cy.case.mirror" format="2">
  <anchor x="-5" y="0" name="_bottomright"/>
  <outline>
    <contour>
      <point x="-79" y="-150" type="line"/>
      <point x="-79" y="0" type="line"/>
      <point x="-1" y="0" type="line"/>
      <point x="-1" y="42" type="line"/>
      <point x="-127" y="42" type="line"/>
      <point x="-127" y="-150" type="line"/>
    </contour>
  </outline>
</glyph>
<glyph name="acutecomb_dotaccentcomb" format="2">
  <anchor x="0" y="484" name="_top"/>
  <outline>
    <contour>
      <point x="-21" y="549" type="line"/>
      <point x="20" y="549" type="line"/>
      <point x="171" y="749" type="line"/>
      <point x="109" y="749" type="line"/>
    </contour>
    <contour>
      <point x="-73" y="750" type="line"/>
      <point x="1" y="750" type="line"/>
      <point x="1" y="820" type="line"/>
      <point x="-73" y="820" type="line"/>
    </contour>
  </outline>
</glyph>
<glyph name="brevecomb-cy.case" format="2">
  <anchor x="0" y="705" name="_top"/>
  <outline>
    <contour>
      <point x="0" y="760" type="curve" smooth="yes"/>
      <point x="116" y="760"/>
      <point x="192" y="799"/>
      <point x="224" y="885" type="curve"/>
      <point x="189" y="898" type="line"/>
      <point x="163" y="829"/>
      <point x="98" y="798"/>
      <point x="0" y="798" type="curve" smooth="yes"/>
      <point x="-98" y="798"/>
      <point x="-163" y="829"/>
      <point x="-189" y="898" type="curve"/>
      <point x="-224" y="885" type="line"/>
      <point x="-192" y="799"/>
      <point x="-116" y="760"/>
    </contour>
  </outline>
</glyph>
<glyph name="brevecomb-cy" format="2">
  <anchor x="0" y="484" name="_top"/>
  <outline>
    <contour>
      <point x="0" y="547" type="curve" smooth="yes"/>
      <point x="106" y="547"/>
      <point x="172" y="588"/>
      <point x="204" y="672" type="curve"/>
      <point x="169" y="685" type="line"/>
      <point x="143" y="617"/>
      <point x="88" y="585"/>
      <point x="0" y="585" type="curve" smooth="yes"/>
      <point x="-88" y="585"/>
      <point x="-143" y="617"/>
      <point x="-169" y="685" type="curve"/>
      <point x="-204" y="672" type="line"/>
      <point x="-172" y="588"/>
      <point x="-106" y="547"/>
    </contour>
  </outline>
</glyph>
<glyph name="brevecomb.case" format="2">
  <anchor x="0" y="705" name="_top"/>
  <anchor x="0" y="865" name="top"/>
  <outline>
    <contour>
      <point x="-1" y="760" type="curve" smooth="yes"/>
      <point x="115" y="760"/>
      <point x="183" y="821"/>
      <point x="192" y="934" type="curve"/>
      <point x="153" y="939" type="line"/>
      <point x="146" y="845"/>
      <point x="95" y="798"/>
      <point x="-1" y="798" type="curve" smooth="yes"/>
      <point x="-97" y="798"/>
      <point x="-148" y="845"/>
      <point x="-155" y="939" type="curve"/>
      <point x="-194" y="934" type="line"/>
      <point x="-185" y="821"/>
      <point x="-117" y="760"/>
    </contour>
  </outline>
</glyph>
<glyph name="brevecomb_hookabovecomb.case" format="2">
  <anchor x="0" y="705" name="_top"/>
  <outline>
    <contour>
      <point x="0" y="760" type="curve" smooth="yes"/>
      <point x="109" y="760"/>
      <point x="170" y="813"/>
      <point x="179" y="914" type="curve"/>
      <point x="140" y="919" type="line"/>
      <point x="134" y="838"/>
      <point x="89" y="798"/>
      <point x="0" y="798" type="curve" smooth="yes"/>
      <point x="-89" y="798"/>
      <point x="-134" y="838"/>
      <point x="-140" y="919" type="curve"/>
      <point x="-179" y="914" type="line"/>
      <point x="-170" y="813"/>
      <point x="-109" y="760"/>
    </contour>
    <contour>
      <point x="-19" y="863" type="curve"/>
      <point x="20" y="863" type="line"/>
      <point x="20" y="915"/>
      <point x="109" y="906"/>
      <point x="109" y="965" type="curve" smooth="yes"/>
      <point x="109" y="999"/>
      <point x="79" y="1017"/>
      <point x="13" y="1017" type="curve" smooth="yes"/>
      <point x="-31" y="1017"/>
      <point x="-65" y="1009"/>
      <point x="-89" y="997" type="curve"/>
      <point x="-78" y="969" type="line"/>
      <point x="-49" y="980"/>
      <point x="-22" y="985"/>
      <point x="7" y="985" type="curve" smooth="yes"/>
      <point x="45" y="985"/>
      <point x="65" y="977"/>
      <point x="65" y="960" type="curve" smooth="yes"/>
      <point x="65" y="924"/>
      <point x="-19" y="929"/>
    </contour>
  </outline>
</glyph>
<glyph name="brevecomb_tildecomb.case" format="2">
  <anchor x="0" y="705" name="_top"/>
  <outline>
    <contour>
      <point x="0" y="760" type="curve" smooth="yes"/>
      <point x="90" y="760"/>
      <point x="152" y="797"/>
      <point x="179" y="866" type="curve"/>
      <point x="140" y="873" type="line"/>
      <point x="116" y="823"/>
      <point x="69" y="798"/>
      <point x="0" y="798" type="curve" smooth="yes"/>
      <point x="-69" y="798"/>
      <point x="-116" y="823"/>
      <point x="-140" y="873" type="curve"/>
      <point x="-179" y="866" type="line"/>
      <point x="-152" y="797"/>
      <point x="-90" y="760"/>
    </contour>
    <contour>
      <point x="-141" y="919" type="line"/>
      <point x="-130" y="962"/>
      <point x="-113" y="979"/>
      <point x="-80" y="979" type="curve" smooth="yes"/>
      <point x="-50" y="979"/>
      <point x="-30" y="966"/>
      <point x="-8" y="952" type="curve" smooth="yes"/>
      <point x="16" y="937"/>
      <point x="41" y="921"/>
      <point x="80" y="921" type="curve" smooth="yes"/>
      <point x="136" y="921"/>
      <point x="170" y="953"/>
      <point x="180" y="1016" type="curve"/>
      <point x="142" y="1019" type="line"/>
      <point x="131" y="976"/>
      <point x="114" y="959"/>
      <point x="81" y="959" type="curve" smooth="yes"/>
      <point x="52" y="959"/>
      <point x="31" y="972"/>
      <point x="10" y="986" type="curve" smooth="yes"/>
      <point x="-14" y="1002"/>
      <point x="-40" y="1017"/>
      <point x="-79" y="1017" type="curve" smooth="yes"/>
      <point x="-135" y="1017"/>
      <point x="-170" y="984"/>
      <point x="-180" y="922" type="curve"/>
    </contour>
  </outline>
</glyph>
<glyph name="brevecomb_tildecomb" format="2">
  <anchor x="0" y="484" name="_top"/>
  <outline>
    <contour>
      <point x="0" y="547" type="curve" smooth="yes"/>
      <point x="90" y="547"/>
      <point x="152" y="584"/>
      <point x="179" y="653" type="curve"/>
      <point x="140" y="660" type="line"/>
      <point x="116" y="610"/>
      <point x="69" y="585"/>
      <point x="0" y="585" type="curve" smooth="yes"/>
      <point x="-69" y="585"/>
      <point x="-116" y="610"/>
      <point x="-140" y="660" type="curve"/>
      <point x="-179" y="653" type="line"/>
      <point x="-152" y="584"/>
      <point x="-90" y="547"/>
    </contour>
    <contour>
      <point x="-141" y="706" type="line"/>
      <point x="-130" y="749"/>
      <point x="-113" y="766"/>
      <point x="-80" y="766" type="curve" smooth="yes"/>
      <point x="-50" y="766"/>
      <point x="-30" y="753"/>
      <point x="-8" y="739" type="curve" smooth="yes"/>
      <point x="16" y="724"/>
      <point x="41" y="708"/>
      <point x="80" y="708" type="curve" smooth="yes"/>
      <point x="136" y="708"/>
      <point x="170" y="740"/>
      <point x="180" y="803" type="curve"/>
      <point x="142" y="806" type="line"/>
      <point x="131" y="763"/>
      <point x="114" y="746"/>
      <point x="81" y="746" type="curve" smooth="yes"/>
      <point x="52" y="746"/>
      <point x="31" y="759"/>
      <point x="10" y="773" type="curve" smooth="yes"/>
      <point x="-14" y="788"/>
      <point x="-40" y="804"/>
      <point x="-79" y="804" type="curve" smooth="yes"/>
      <point x="-135" y="804"/>
      <point x="-170" y="771"/>
      <point x="-180" y="709" type="curve"/>
    </contour>
  </outline>
</glyph>
<glyph name="breveinvertedcomb.case" format="2">
  <anchor x="0" y="705" name="_top"/>
  <anchor x="0" y="865" name="top"/>
  <outline>
    <contour>
      <point x="-155" y="760" type="line"/>
      <point x="-148" y="854"/>
      <point x="-97" y="901"/>
      <point x="-1" y="901" type="curve" smooth="yes"/>
      <point x="95" y="901"/>
      <point x="146" y="854"/>
      <point x="153" y="760" type="curve"/>
      <point x="192" y="765" type="line"/>
      <point x="183" y="878"/>
      <point x="115" y="939"/>
      <point x="-1" y="939" type="curve" smooth="yes"/>
      <point x="-117" y="939"/>
      <point x="-185" y="878"/>
      <point x="-194" y="765" type="curve"/>
    </contour>
  </outline>
</glyph>
<glyph name="caroncomb_dotaccentcomb.case" format="2">
  <anchor x="0" y="705" name="_top"/>
  <outline>
    <contour>
      <point x="-28" y="770" type="line"/>
      <point x="27" y="770" type="line"/>
      <point x="164" y="930" type="line"/>
      <point x="124" y="930" type="line"/>
      <point x="0" y="811" type="line"/>
      <point x="-124" y="930" type="line"/>
      <point x="-164" y="930" type="line"/>
    </contour>
    <contour>
      <point x="-37" y="971" type="line"/>
      <point x="37" y="971" type="line"/>
      <point x="37" y="1041" type="line"/>
      <point x="-37" y="1041" type="line"/>
    </contour>
  </outline>
</glyph>
<glyph name="circumflexcomb_acutecomb.case" format="2">
  <anchor x="0" y="705" name="_top"/>
  <outline>
    <contour>
      <point x="-168" y="765" type="line"/>
      <point x="-128" y="765" type="line"/>
      <point x="-4" y="893" type="line"/>
      <point x="119" y="765" type="line"/>
      <point x="159" y="765" type="line"/>
      <point x="23" y="933" type="line"/>
      <point x="-32" y="933" type="line"/>
    </contour>
    <contour>
      <point x="96" y="866" type="line"/>
      <point x="137" y="866" type="line"/>
      <point x="267" y="1016" type="line"/>
      <point x="204" y="1016" type="line"/>
    </contour>
  </outline>
</glyph>
<glyph name="circumflexcomb_tildecomb.case" format="2">
  <anchor x="0" y="705" name="_top"/>
  <outline>
    <contour>
      <point x="-163" y="765" type="line"/>
      <point x="-123" y="765" type="line"/>
      <point x="1" y="855" type="line"/>
      <point x="124" y="765" type="line"/>
      <point x="164" y="765" type="line"/>
      <point x="28" y="895" type="line"/>
      <point x="-27" y="895" type="line"/>
    </contour>
    <contour>
      <point x="-141" y="922" type="line"/>
      <point x="-130" y="965"/>
      <point x="-113" y="982"/>
      <point x="-80" y="982" type="curve" smooth="yes"/>
      <point x="-50" y="982"/>
      <point x="-30" y="969"/>
      <point x="-8" y="955" type="curve" smooth="yes"/>
      <point x="16" y="940"/>
      <point x="41" y="924"/>
      <point x="80" y="924" type="curve" smooth="yes"/>
      <point x="136" y="924"/>
      <point x="170" y="956"/>
      <point x="180" y="1019" type="curve"/>
      <point x="142" y="1022" type="line"/>
      <point x="131" y="979"/>
      <point x="114" y="962"/>
      <point x="81" y="962" type="curve" smooth="yes"/>
      <point x="52" y="962"/>
      <point x="31" y="975"/>
      <point x="10" y="989" type="curve" smooth="yes"/>
      <point x="-14" y="1005"/>
      <point x="-40" y="1020"/>
      <point x="-79" y="1020" type="curve" smooth="yes"/>
      <point x="-135" y="1020"/>
      <point x="-170" y="987"/>
      <point x="-180" y="925" type="curve"/>
    </contour>
  </outline>
</glyph>
<glyph name="dblgravecomb.case" format="2">
  <anchor x="0" y="705" name="_top"/>
  <anchor x="0" y="865" name="top"/>
  <outline>
    <contour>
      <point x="51" y="765" type="line"/>
      <point x="81" y="765" type="line"/>
      <point x="-26" y="943" type="line"/>
      <point x="-87" y="943" type="line"/>
    </contour>
    <contour>
      <point x="-82" y="765" type="line"/>
      <point x="-52" y="765" type="line"/>
      <point x="-158" y="943" type="line"/>
      <point x="-218" y="943" type="line"/>
    </contour>
  </outline>
</glyph>
<glyph name="dieresiscomb.case" format="2">
  <anchor x="0" y="705" name="_top"/>
  <anchor x="0" y="865" name="top"/>
  <outline>
    <contour>
      <point x="66" y="820" type="line"/>
      <point x="136" y="820" type="line"/>
      <point x="136" y="886" type="line"/>
      <point x="66" y="886" type="line"/>
    </contour>
    <contour>
      <point x="-136" y="820" type="line"/>
      <point x="-66" y="820" type="line"/>
      <point x="-66" y="886" type="line"/>
      <point x="-136" y="886" type="line"/>
    </contour>
  </outline>
</glyph>
<glyph name="dieresiscomb_acutecomb.case" format="2">
  <anchor x="0" y="705" name="_top"/>
  <outline>
    <contour>
      <point x="-21" y="871" type="line"/>
      <point x="20" y="871" type="line"/>
      <point x="166" y="1021" type="line"/>
      <point x="103" y="1021" type="line"/>
    </contour>
    <contour>
      <point x="-136" y="771" type="line"/>
      <point x="-66" y="771" type="line"/>
      <point x="-66" y="833" type="line"/>
      <point x="-136" y="833" type="line"/>
    </contour>
    <contour>
      <point x="66" y="771" type="line"/>
      <point x="136" y="771" type="line"/>
      <point x="136" y="833" type="line"/>
      <point x="66" y="833" type="line"/>
    </contour>
  </outline>
</glyph>
